<svg width="60" height="59" viewBox="0 0 60 59" fill="none" xmlns="http://www.w3.org/2000/svg">
<rect x="0.75" y="0.25" width="58.5" height="58.5" rx="29.25" fill="white"/>
<g clip-path="url(#clip0_2631_460)">
<path d="M43.6742 29.8908L39.7792 23.0508C39.6525 22.8608 39.51 22.75 39.3517 22.7183C39.1933 22.6866 39.0508 22.7025 38.9242 22.7658L37.4992 23.6208V18.3008L34.6492 15.0708L34.4592 14.9758H23.3442C23.0908 14.9758 22.885 15.055 22.7267 15.2133C22.5683 15.3716 22.4892 15.5458 22.4892 15.7358V24.5708L21.0642 23.7158C20.9375 23.6525 20.795 23.6366 20.6367 23.6683C20.4783 23.7 20.3358 23.7791 20.2092 23.9058L16.3142 30.8408C16.1875 30.9675 16.1558 31.1258 16.2192 31.3158C16.2825 31.5058 16.3775 31.6325 16.5042 31.6958L19.7342 33.5958C20.2408 34.0391 20.6842 34.5458 21.0642 35.1158L20.0192 37.0158C19.8292 37.3325 19.75 37.6808 19.7817 38.0608C19.8133 38.4408 19.9558 38.7575 20.2092 39.0108C20.4625 39.2641 20.7633 39.4225 21.1117 39.4858C21.46 39.5491 21.8242 39.5175 22.2042 39.3908C22.3308 39.8341 22.6317 40.1666 23.1067 40.3883C23.5817 40.61 24.0408 40.5941 24.4842 40.3408C24.6108 40.7841 24.88 41.1008 25.2917 41.2908C25.7033 41.4808 26.0992 41.5441 26.4792 41.4808C26.6692 41.4175 26.8592 41.3225 27.0492 41.1958C27.1758 41.5125 27.3817 41.7658 27.6667 41.9558C27.9517 42.1458 28.2525 42.2408 28.5692 42.2408C29.2025 42.2408 29.6775 41.9558 29.9942 41.3858L31.5142 42.3358C31.8308 42.5258 32.1792 42.605 32.5592 42.5733C32.9392 42.5416 33.2875 42.3991 33.6042 42.1458C33.9208 41.8925 34.1425 41.5916 34.2692 41.2433C34.3958 40.895 34.3958 40.5308 34.2692 40.1508V39.9608H34.4592C34.9658 39.8341 35.3458 39.5333 35.5992 39.0583C35.8525 38.5833 35.9158 38.0925 35.7892 37.5858L35.6942 37.4908C36.2642 37.3641 36.7075 37.0475 37.0242 36.5408C37.3408 36.0341 37.4042 35.4958 37.2142 34.9258C37.7842 34.7991 38.1958 34.4825 38.4492 33.9758L38.6392 33.7858C38.8292 33.6591 39.0825 33.4533 39.3992 33.1683C39.7158 32.8833 39.9058 32.7408 39.9692 32.7408C40.0325 32.7408 40.0958 32.7091 40.1592 32.6458L43.4842 30.7458C43.6108 30.6825 43.7058 30.5716 43.7692 30.4133C43.8325 30.255 43.8008 30.0808 43.6742 29.8908ZM34.8392 16.4958L36.0742 17.8258H34.8392V16.4958ZM23.3442 15.8308H33.8892V18.3008C33.8892 18.4275 33.9367 18.5383 34.0317 18.6333C34.1267 18.7283 34.2375 18.7758 34.3642 18.7758H36.6442V24.0958L35.6942 24.6658C34.7442 24.6025 33.7308 24.6658 32.6542 24.8558C31.4508 24.9825 30.4692 25.2358 29.7092 25.6158L29.2342 25.8058C28.9808 25.8691 28.7592 25.9641 28.5692 26.0908C26.9858 25.5208 25.5608 25.3308 24.2942 25.5208L23.3442 25.0458V15.8308ZM19.8292 32.5508L17.1692 31.0308L20.8742 24.6658L23.5342 26.1858L19.8292 32.5508ZM22.2992 37.9658L22.1092 38.2508C22.0458 38.4408 21.9033 38.5675 21.6817 38.6308C21.46 38.6941 21.2542 38.6625 21.0642 38.5358C20.8742 38.4091 20.7475 38.2508 20.6842 38.0608C20.6208 37.8708 20.6525 37.6808 20.7792 37.4908L22.3942 34.6408C22.4575 34.4508 22.6 34.3241 22.8217 34.2608C23.0433 34.1975 23.2492 34.2291 23.4392 34.3558C23.6292 34.4825 23.7558 34.6566 23.8192 34.8783C23.8825 35.1 23.8508 35.3058 23.7242 35.4958L22.2992 37.9658ZM24.5792 39.0108L24.4842 39.2008C24.3575 39.3908 24.1833 39.5175 23.9617 39.5808C23.74 39.6441 23.5342 39.6283 23.3442 39.5333C23.1542 39.4383 23.0275 39.28 22.9642 39.0583C22.9008 38.8366 22.9325 38.6308 23.0592 38.4408L24.4842 35.8758C24.6108 35.6858 24.785 35.575 25.0067 35.5433C25.2283 35.5116 25.4342 35.5433 25.6242 35.6383C25.8142 35.7333 25.9408 35.8916 26.0042 36.1133C26.0675 36.335 26.0358 36.5408 25.9092 36.7308L24.5792 39.0108ZM26.7642 40.2458C26.6375 40.4358 26.4792 40.5625 26.2892 40.6258C26.0992 40.6891 25.8933 40.6575 25.6717 40.5308C25.45 40.4041 25.3233 40.23 25.2917 40.0083C25.26 39.7866 25.2758 39.5808 25.3392 39.3908L26.6692 37.2058C26.7958 37.0158 26.97 36.8891 27.1917 36.8258C27.4133 36.7625 27.6192 36.7783 27.8092 36.8733C27.9992 36.9683 28.11 37.1266 28.1417 37.3483C28.1733 37.57 28.1575 37.7758 28.0942 37.9658L27.0492 39.6758L26.7642 40.2458ZM28.1892 41.1958C27.9992 41.0691 27.8725 40.9108 27.8092 40.7208C27.7458 40.5308 27.7458 40.3408 27.8092 40.1508L28.8542 38.4408C28.9808 38.2508 29.1392 38.1241 29.3292 38.0608C29.5192 37.9975 29.7092 38.0133 29.8992 38.1083C30.0892 38.2033 30.2158 38.3616 30.2792 38.5833C30.3425 38.805 30.3108 39.0108 30.1842 39.2008L29.2342 40.9108C29.1075 41.1008 28.9492 41.2275 28.7592 41.2908C28.5692 41.3541 28.3792 41.3225 28.1892 41.1958ZM33.3192 41.1958C33.1925 41.3858 32.9867 41.5283 32.7017 41.6233C32.4167 41.7183 32.1792 41.7025 31.9892 41.5758L30.4692 40.6258L31.0392 39.6758C31.1658 39.3591 31.2292 39.0425 31.2292 38.7258L32.9392 39.7708C33.1925 39.8975 33.3508 40.1033 33.4142 40.3883C33.4775 40.6733 33.4458 40.9425 33.3192 41.1958ZM37.6892 33.5958C37.5625 33.8491 37.3725 34.0075 37.1192 34.0708C36.8658 34.1341 36.6125 34.1025 36.3592 33.9758L32.6542 31.7908C32.4642 31.7275 32.3058 31.7275 32.1792 31.7908C32.0525 31.8541 31.9892 31.9808 31.9892 32.1708C31.9892 32.3608 32.0525 32.4875 32.1792 32.5508L35.8842 34.7358C36.1375 34.8625 36.2958 35.0525 36.3592 35.3058C36.4225 35.5591 36.3908 35.8125 36.2642 36.0658C36.1375 36.3191 35.9317 36.4775 35.6467 36.5408C35.3617 36.6041 35.0925 36.5725 34.8392 36.4458L31.9892 34.8308C31.8625 34.7675 31.72 34.7675 31.5617 34.8308C31.4033 34.8941 31.3242 35.0208 31.3242 35.2108C31.3242 35.4008 31.4192 35.5275 31.6092 35.5908L34.4592 37.2058C34.6492 37.3958 34.7917 37.6175 34.8867 37.8708C34.9817 38.1241 34.95 38.3775 34.7917 38.6308C34.6333 38.8841 34.4275 39.0425 34.1742 39.1058C33.9208 39.1691 33.6675 39.1375 33.4142 39.0108L31.5142 37.8708C31.3242 37.8075 31.1342 37.8391 30.9442 37.9658C30.7542 37.6491 30.485 37.4116 30.1367 37.2533C29.7883 37.095 29.4242 37.0791 29.0442 37.2058V37.1108C28.9175 36.6675 28.6483 36.335 28.2367 36.1133C27.825 35.8916 27.3975 35.8441 26.9542 35.9708H26.8592V35.8758C26.7325 35.4325 26.4633 35.1 26.0517 34.8783C25.64 34.6566 25.2125 34.5775 24.7692 34.6408L24.6742 34.7358C24.6108 34.3558 24.4525 34.055 24.1992 33.8333C23.9458 33.6116 23.645 33.4691 23.2967 33.4058C22.9483 33.3425 22.6158 33.39 22.2992 33.5483C21.9825 33.7066 21.7292 33.9441 21.5392 34.2608C21.2858 33.8175 20.9692 33.4375 20.5892 33.1208L24.4842 26.3758C25.4975 26.2491 26.6692 26.4075 27.9992 26.8508L27.2392 29.6058C27.1125 29.9858 27.0808 30.3658 27.1442 30.7458C27.2075 31.1258 27.3658 31.49 27.6192 31.8383C27.8725 32.1866 28.1258 32.3608 28.3792 32.3608C28.6325 32.3608 28.8858 32.1708 29.1392 31.7908L29.2342 31.6958C29.6142 31.1891 29.9308 30.6508 30.1842 30.0808C30.6275 29.3841 30.9125 29.0041 31.0392 28.9408L31.6092 28.8458L37.3092 32.1708C37.5625 32.2975 37.7367 32.5033 37.8317 32.7883C37.9267 33.0733 37.8792 33.3425 37.6892 33.5958ZM38.7342 32.6458C38.5442 32.0758 38.2275 31.6641 37.7842 31.4108L31.8942 27.9908C31.7675 27.9275 31.6408 27.8958 31.5142 27.8958L30.8492 28.0858C30.5958 28.1491 30.3742 28.3075 30.1842 28.5608C29.9942 28.8141 29.7408 29.1941 29.4242 29.7008C29.1708 30.2075 28.8542 30.7141 28.4742 31.2208L28.3792 31.4108C28.1892 31.0941 28.0783 30.825 28.0467 30.6033C28.015 30.3816 28.0308 30.1441 28.0942 29.8908L28.7592 27.3258C28.8225 27.1991 28.8858 27.0725 28.9492 26.9458H29.0442C29.1708 26.8191 29.2975 26.7241 29.4242 26.6608L30.0892 26.4708C30.7858 26.0908 31.7042 25.8375 32.8442 25.7108C33.7942 25.5841 34.7125 25.5208 35.5992 25.5208L39.3042 32.0758L38.7342 32.6458ZM40.1592 31.6958L36.4542 25.2358L39.1142 23.7158L42.8192 30.1758L40.1592 31.6958ZM27.4292 23.2408C27.5558 23.2408 27.6508 23.1933 27.7142 23.0983C27.7775 23.0033 27.8092 22.8925 27.8092 22.7658V19.8208C27.8092 19.6941 27.7775 19.5833 27.7142 19.4883C27.6508 19.3933 27.5558 19.3458 27.4292 19.3458H24.3892C24.2625 19.3458 24.1675 19.3933 24.1042 19.4883C24.0408 19.5833 24.0092 19.6941 24.0092 19.8208V22.7658C24.0092 22.8925 24.0408 23.0033 24.1042 23.0983C24.1675 23.1933 24.2625 23.2408 24.3892 23.2408H27.4292ZM24.8642 20.2008H26.9542V22.2908H24.8642V20.2008ZM26.7642 21.1508L26.0992 22.0058C25.9725 22.0691 25.8458 22.1008 25.7192 22.1008C25.5925 22.1008 25.4975 22.0691 25.4342 22.0058L25.0542 21.6258C24.9908 21.5625 24.9592 21.4675 24.9592 21.3408C24.9592 21.2141 25.0067 21.1033 25.1017 21.0083C25.1967 20.9133 25.3075 20.8658 25.4342 20.8658C25.5608 20.8658 25.6558 20.8975 25.7192 20.9608V21.0558L26.0992 20.5808C26.2258 20.4541 26.3683 20.4066 26.5267 20.4383C26.685 20.47 26.7958 20.565 26.8592 20.7233C26.9225 20.8816 26.8908 21.0241 26.7642 21.1508ZM29.1392 22.9558C29.1392 22.8291 29.1867 22.7183 29.2817 22.6233C29.3767 22.5283 29.4875 22.4808 29.6142 22.4808H35.5992C35.7258 22.4808 35.8208 22.5283 35.8842 22.6233C35.9475 22.7183 35.9792 22.8291 35.9792 22.9558C35.9792 23.0825 35.9475 23.1933 35.8842 23.2883C35.8208 23.3833 35.7258 23.4308 35.5992 23.4308H29.6142C29.4875 23.4308 29.3767 23.3833 29.2817 23.2883C29.1867 23.1933 29.1392 23.0825 29.1392 22.9558ZM29.1392 19.8208C29.1392 19.6941 29.1867 19.5833 29.2817 19.4883C29.3767 19.3933 29.4875 19.3458 29.6142 19.3458H32.3692C32.4958 19.3458 32.6067 19.3933 32.7017 19.4883C32.7967 19.5833 32.8442 19.6941 32.8442 19.8208C32.8442 19.9475 32.7967 20.0425 32.7017 20.1058C32.6067 20.1691 32.4958 20.2008 32.3692 20.2008H29.6142C29.4875 20.2008 29.3767 20.1691 29.2817 20.1058C29.1867 20.0425 29.1392 19.9475 29.1392 19.8208ZM29.1392 21.3408C29.1392 21.2141 29.1867 21.1191 29.2817 21.0558C29.3767 20.9925 29.4875 20.9608 29.6142 20.9608H33.5092C33.6358 20.9608 33.7467 20.9925 33.8417 21.0558C33.9367 21.1191 33.9842 21.2141 33.9842 21.3408C33.9842 21.4675 33.9367 21.5783 33.8417 21.6733C33.7467 21.7683 33.6358 21.8158 33.5092 21.8158H29.6142C29.4875 21.8158 29.3767 21.7683 29.2817 21.6733C29.1867 21.5783 29.1392 21.4675 29.1392 21.3408Z" fill="#252B42"/>
</g>
<defs>
<clipPath id="clip0_2631_460">
<rect width="28.515" height="28.5" fill="white" transform="matrix(1 0 0 -1 15.7344 43)"/>
</clipPath>
</defs>
</svg>
