<svg width="59" height="59" viewBox="0 0 59 59" fill="none" xmlns="http://www.w3.org/2000/svg">
<rect x="0.5" y="0.25" width="58.5" height="58.5" rx="29.25" fill="white"/>
<g clip-path="url(#clip0_2631_454)">
<path d="M40.0005 41.005C39.6205 39.105 39.2721 37.3633 38.9555 35.78L38.7655 34.925C38.5755 34.0383 38.1005 33.405 37.3405 33.025C37.1505 32.8983 36.9605 32.8033 36.7705 32.74L33.5405 31.6L32.4955 30.935V30.08C33.2555 29.6367 33.8571 29.0508 34.3005 28.3225C34.7438 27.5942 35.0288 26.8183 35.1555 25.995C35.7888 25.995 36.2796 25.7575 36.628 25.2825C36.9763 24.8075 37.0238 24.285 36.7705 23.715V20.39C36.7705 19.3133 36.5171 18.4267 36.0105 17.73C35.7571 17.35 35.4088 17.065 34.9655 16.875C34.0155 15.6717 32.7171 14.9275 31.0705 14.6425C29.4238 14.3575 27.8721 14.5633 26.4155 15.26C25.9721 15.5133 25.5288 15.83 25.0855 16.21C25.0221 16.2733 24.9746 16.3683 24.943 16.495C24.9113 16.6217 24.943 16.7167 25.038 16.78C25.133 16.8433 25.228 16.8908 25.323 16.9225C25.418 16.9542 25.5288 16.9067 25.6555 16.78C26.5421 16.0833 27.5555 15.64 28.6955 15.45C29.8355 15.26 30.9121 15.355 31.9255 15.735C32.9388 16.115 33.7621 16.685 34.3955 17.445C34.4588 17.5083 34.5221 17.54 34.5855 17.54C34.8388 17.6667 35.0605 17.8567 35.2505 18.11C35.6938 18.68 35.9155 19.44 35.9155 20.39V22.955C35.6621 22.8917 35.4088 22.86 35.1555 22.86V21.435C35.1555 21.3083 35.0921 21.1817 34.9655 21.055C34.8388 20.9283 34.7121 20.8333 34.5855 20.77C34.0155 20.77 33.5721 20.485 33.2555 19.915C33.1288 19.6617 32.9388 19.5192 32.6855 19.4875C32.4321 19.4558 32.2105 19.535 32.0205 19.725C31.1338 20.4217 30.1521 20.865 29.0755 21.055C28.2521 21.245 27.3971 21.2767 26.5105 21.15C25.9405 21.0867 25.4338 21.2133 24.9905 21.53C24.5471 21.8467 24.2938 22.29 24.2305 22.86C23.9138 22.86 23.6288 22.8917 23.3755 22.955V22.48C23.3755 21.5933 23.4071 20.9283 23.4705 20.485C23.6605 19.6617 23.9771 18.9017 24.4205 18.205C24.4838 18.0783 24.4996 17.9675 24.468 17.8725C24.4363 17.7775 24.373 17.6983 24.278 17.635C24.183 17.5717 24.088 17.5558 23.993 17.5875C23.898 17.6192 23.8188 17.6667 23.7555 17.73C23.1855 18.5533 22.8371 19.44 22.7105 20.39C22.5838 20.96 22.5521 21.72 22.6155 22.67L22.5205 23.715C22.2671 24.285 22.3305 24.8075 22.7105 25.2825C23.0905 25.7575 23.5971 25.995 24.2305 25.995C24.3571 27.1983 24.8321 28.2433 25.6555 29.13L25.7505 29.225C26.1305 29.605 26.5421 29.9217 26.9855 30.175V30.935L25.9405 31.6L23.6605 32.455C22.7105 32.7717 22.1721 32.9617 22.0455 33.025L21.9505 33.12C21.3171 33.5 20.9055 34.0383 20.7155 34.735L19.4805 41.005C19.4805 41.195 19.4805 41.385 19.4805 41.575C19.5438 42.0183 19.718 42.3667 20.003 42.62C20.288 42.8733 20.6838 43 21.1905 43H32.6855C32.8121 43 32.9071 42.9525 32.9705 42.8575C33.0338 42.7625 33.0655 42.6675 33.0655 42.5725C33.0655 42.4775 33.0338 42.3825 32.9705 42.2875C32.9071 42.1925 32.8121 42.145 32.6855 42.145H24.1355V38.345C24.1355 38.2183 24.088 38.1233 23.993 38.06C23.898 37.9967 23.803 37.965 23.708 37.965C23.613 37.965 23.518 37.9967 23.423 38.06C23.328 38.1233 23.2805 38.2183 23.2805 38.345V42.145H21.1905C20.4938 42.145 20.2088 41.8283 20.3355 41.195L21.2855 36.255C21.4755 35.3683 21.6021 34.8617 21.6655 34.735V34.64C21.8555 34.1967 22.2038 33.8483 22.7105 33.595L24.5155 33.025L25.5605 34.83C25.5605 34.9567 25.6238 35.0358 25.7505 35.0675C25.8771 35.0992 25.988 35.0833 26.083 35.02C26.178 34.9567 26.2413 34.8775 26.273 34.7825C26.3046 34.6875 26.2888 34.5767 26.2255 34.45L25.2755 32.74L25.9405 32.55L29.2655 38.725C29.3921 38.8517 29.5505 38.915 29.7405 38.915C29.9305 38.915 30.0571 38.8517 30.1205 38.725L33.5405 32.55L34.2055 32.74L30.7855 39.01C30.5321 39.39 30.1838 39.58 29.7405 39.58C29.2971 39.58 28.9488 39.39 28.6955 39.01L27.1755 36.16C27.1121 36.0967 27.033 36.0492 26.938 36.0175C26.843 35.9858 26.7321 35.9858 26.6055 36.0175C26.4788 36.0492 26.3996 36.1283 26.368 36.255C26.3363 36.3817 26.3521 36.4767 26.4155 36.54L27.9355 39.39C28.1888 39.8333 28.553 40.1342 29.028 40.2925C29.503 40.4508 29.978 40.4508 30.453 40.2925C30.928 40.1342 31.2921 39.8333 31.5455 39.39L34.9655 33.025L36.5805 33.595L37.2455 33.88C37.5621 34.1967 37.7838 34.545 37.9105 34.925L39.1455 41.385C39.2088 41.8917 38.9238 42.145 38.2905 42.145H36.2005V38.345C36.2005 38.2183 36.153 38.1233 36.058 38.06C35.963 37.9967 35.868 37.965 35.773 37.965C35.678 37.965 35.583 37.9967 35.488 38.06C35.393 38.1233 35.3455 38.2183 35.3455 38.345V42.145H34.5855C34.4588 42.145 34.3638 42.1925 34.3005 42.2875C34.2371 42.3825 34.2055 42.4775 34.2055 42.5725C34.2055 42.6675 34.2371 42.7625 34.3005 42.8575C34.3638 42.9525 34.4588 43 34.5855 43H38.2905C38.7971 43 39.193 42.8733 39.478 42.62C39.763 42.3667 39.9371 42.0183 40.0005 41.575C40.0005 41.385 40.0005 41.195 40.0005 41.005ZM35.1555 23.715C35.4088 23.6517 35.6305 23.6992 35.8205 23.8575C36.0105 24.0158 36.1055 24.2058 36.1055 24.4275C36.1055 24.6492 36.0105 24.8233 35.8205 24.95C35.6305 25.0767 35.4088 25.14 35.1555 25.14V23.715ZM24.1355 25.14C23.8821 25.14 23.6763 25.0767 23.518 24.95C23.3596 24.8233 23.2805 24.6492 23.2805 24.4275C23.2805 24.2058 23.3596 24.0158 23.518 23.8575C23.6763 23.6992 23.8821 23.6517 24.1355 23.715V25.14ZM26.4155 22.005C27.4288 22.1317 28.3788 22.1 29.2655 21.91C30.4688 21.6567 31.5455 21.1183 32.4955 20.295C32.9388 21.055 33.5405 21.4983 34.3005 21.625V23.145L33.8255 23.43C33.6355 23.1133 33.3505 22.955 32.9705 22.955H31.0705C30.8171 22.955 30.6113 23.0025 30.453 23.0975C30.2946 23.1925 30.1521 23.3667 30.0255 23.62H29.2655C29.2021 23.3667 29.0755 23.1925 28.8855 23.0975C28.6955 23.0025 28.5055 22.955 28.3155 22.955H26.3205C25.9405 22.955 25.6555 23.1133 25.4655 23.43L24.9905 23.145C24.9905 22.765 25.133 22.4642 25.418 22.2425C25.703 22.0208 26.0355 21.9417 26.4155 22.005ZM33.2555 24V24.855C33.2555 25.045 33.1921 25.2033 33.0655 25.33C32.9388 25.4567 32.7805 25.52 32.5905 25.52H31.4505C31.2605 25.52 31.1021 25.4567 30.9755 25.33C30.8488 25.2033 30.7855 25.045 30.7855 24.855V24C30.7855 23.81 30.8805 23.715 31.0705 23.715H32.9705C33.1605 23.715 33.2555 23.81 33.2555 24ZM28.5055 24V24.855C28.5055 25.045 28.4421 25.2033 28.3155 25.33C28.1888 25.4567 28.0305 25.52 27.8405 25.52H26.7955C26.6055 25.52 26.4471 25.4567 26.3205 25.33C26.1938 25.2033 26.1305 25.045 26.1305 24.855V24C26.1305 23.81 26.1938 23.715 26.3205 23.715H28.3155C28.4421 23.715 28.5055 23.81 28.5055 24ZM26.1305 28.465C25.6238 27.8317 25.2755 27.1667 25.0855 26.47C25.0221 26.0267 24.9905 25.425 24.9905 24.665V24.095L25.2755 24.285V24.855C25.2755 25.235 25.418 25.5675 25.703 25.8525C25.988 26.1375 26.3521 26.28 26.7955 26.28H27.8405C28.2838 26.28 28.648 26.1375 28.933 25.8525C29.218 25.5675 29.3605 25.235 29.3605 24.855V24.38H29.9305V24.855C29.9305 25.235 30.0888 25.5675 30.4055 25.8525C30.7221 26.1375 31.0705 26.28 31.4505 26.28H32.5905C32.9705 26.28 33.303 26.1375 33.588 25.8525C33.873 25.5675 34.0155 25.235 34.0155 24.855V24.285L34.3005 24.095V25.33C34.3005 26.5967 33.8571 27.6892 32.9705 28.6075C32.0838 29.5258 30.9755 30.0167 29.6455 30.08C29.3288 30.08 29.0121 30.0483 28.6955 29.985L28.4105 29.89C27.5238 29.6367 26.7638 29.1617 26.1305 28.465ZM29.7405 33.12L27.8405 30.935V30.555C28.7271 30.8717 29.6138 30.9667 30.5005 30.84L31.0705 30.65L31.6405 30.555V30.935L29.7405 33.12ZM30.2155 34.545L30.0255 34.925H29.4555L29.2655 34.545L29.7405 34.26L30.2155 34.545ZM28.6005 35.685L28.4105 35.21L28.6005 35.115L28.7905 35.4L28.6005 35.685ZM27.9355 34.45L26.7005 32.17L27.3655 31.695L29.0755 33.69L27.9355 34.45ZM29.7405 37.775L29.1705 36.73L29.4555 35.78H30.0255L30.3105 36.73L29.7405 37.775ZM30.8805 35.685L30.6905 35.4L30.8805 35.115L31.0705 35.21L30.8805 35.685ZM31.5455 34.45C31.2288 34.26 30.8488 34.0067 30.4055 33.69L32.1155 31.695L32.7805 32.17L31.5455 34.45Z" fill="#252B42"/>
</g>
<defs>
<clipPath id="clip0_2631_454">
<rect width="28.515" height="28.5" fill="white" transform="matrix(1 0 0 -1 15.4844 43)"/>
</clipPath>
</defs>
</svg>
