<svg width="59" height="59" viewBox="0 0 59 59" fill="none" xmlns="http://www.w3.org/2000/svg">
<rect x="0.25" y="0.25" width="58.5" height="58.5" rx="29.25" fill="white"/>
<g clip-path="url(#clip0_2631_472)">
<path d="M42.8888 19.2495H40.7987V18.2045C40.7987 18.0778 40.7512 17.967 40.6562 17.872C40.5612 17.777 40.4504 17.7295 40.3237 17.7295C38.2337 17.7295 36.5238 17.8245 35.1938 18.0145C34.1171 18.1411 32.8821 18.3945 31.4887 18.7745V18.6795C31.4887 18.1095 31.2987 17.6345 30.9187 17.2545C30.5387 16.8745 30.0638 16.6845 29.4937 16.6845C28.9237 16.6845 28.4487 16.8745 28.0687 17.2545C27.6888 17.6345 27.4987 18.1095 27.4987 18.6795V18.7745C26.1054 18.3945 24.8704 18.1411 23.7937 18.0145C22.4637 17.8245 20.7537 17.7295 18.6637 17.7295C18.5371 17.7295 18.4262 17.777 18.3312 17.872C18.2362 17.967 18.1888 18.0778 18.1888 18.2045V19.2495H16.0987C15.9721 19.2495 15.8771 19.297 15.8137 19.392C15.7504 19.487 15.7188 19.5978 15.7188 19.7245V38.9145C15.7188 39.0411 15.7504 39.152 15.8137 39.247C15.8771 39.342 15.9721 39.3895 16.0987 39.3895H27.1187C27.1187 39.8328 27.2612 40.1811 27.5462 40.4345C27.8313 40.6878 28.1637 40.8145 28.5437 40.8145H30.4437C30.8871 40.8145 31.2354 40.6878 31.4887 40.4345C31.7421 40.1811 31.8687 39.8328 31.8687 39.3895H42.8888C43.0154 39.3895 43.1104 39.342 43.1737 39.247C43.2371 39.152 43.2687 39.0411 43.2687 38.9145V19.7245C43.2687 19.5978 43.2371 19.487 43.1737 19.392C43.1104 19.297 43.0154 19.2495 42.8888 19.2495ZM39.9438 18.5845V36.3495C35.6371 36.3495 32.3121 36.9195 29.9688 38.0595V32.1695H38.6138C38.8037 32.1695 38.9304 32.122 38.9937 32.027C39.0571 31.932 39.0887 31.8211 39.0887 31.6945C39.0254 30.9978 38.8037 30.3961 38.4237 29.8895C38.0437 29.3828 37.5688 29.0028 36.9987 28.7495C37.3787 28.3695 37.5688 27.9103 37.5688 27.372C37.5688 26.8336 37.3787 26.3586 36.9987 25.947C36.6187 25.5353 36.1437 25.3295 35.5737 25.3295L35.1938 25.4245C34.8137 24.9811 34.3704 24.6645 33.8638 24.4745C34.3071 24.0311 34.5287 23.5403 34.5287 23.002C34.5287 22.4636 34.3229 21.9886 33.9112 21.577C33.4996 21.1653 33.0087 20.9595 32.4387 20.9595L32.1537 21.0545C31.8371 20.6111 31.4254 20.2945 30.9187 20.1045L31.2037 19.7245C32.7237 19.3445 33.9587 19.0595 34.9088 18.8695C36.2388 18.7428 37.9171 18.6478 39.9438 18.5845ZM26.2638 30.2695C25.8837 29.5728 25.3454 29.0661 24.6488 28.7495C24.9021 28.4961 25.0604 28.1795 25.1237 27.7995H27.4037C27.4671 28.1795 27.6571 28.4961 27.9738 28.7495C27.2137 29.0661 26.6438 29.5728 26.2638 30.2695ZM22.0837 27.3245C22.0837 27.0078 22.1946 26.7545 22.4162 26.5645C22.6379 26.3745 22.9071 26.2795 23.2238 26.2795C23.5404 26.2795 23.8096 26.3745 24.0312 26.5645C24.2529 26.7545 24.3637 27.0078 24.3637 27.3245C24.3637 27.6411 24.2529 27.9103 24.0312 28.132C23.8096 28.3536 23.5404 28.4645 23.2238 28.4645C22.9071 28.4645 22.6379 28.3536 22.4162 28.132C22.1946 27.9103 22.0837 27.6411 22.0837 27.3245ZM25.1237 23.0495C25.1237 22.7328 25.2346 22.4636 25.4563 22.242C25.6779 22.0203 25.9471 21.9095 26.2638 21.9095C26.5804 21.9095 26.8496 22.0203 27.0712 22.242C27.2929 22.4636 27.4037 22.7328 27.4037 23.0495C27.4037 23.3661 27.2929 23.6195 27.0712 23.8095C26.8496 23.9995 26.5804 24.0945 26.2638 24.0945C25.9471 24.0945 25.6779 23.9995 25.4563 23.8095C25.2346 23.6195 25.1237 23.3661 25.1237 23.0495ZM29.4937 20.6745C30.1904 20.6745 30.7921 20.8961 31.2987 21.3395C30.8554 21.6561 30.6021 22.0678 30.5387 22.5745H28.2587C28.1321 22.1311 27.9104 21.7511 27.5938 21.4345C28.1004 20.9278 28.7337 20.6745 29.4937 20.6745ZM32.4387 30.2695C32.0588 29.5728 31.5204 29.0661 30.8237 28.7495C31.0771 28.4961 31.2671 28.1795 31.3938 27.7995H33.5788C33.7054 28.1795 33.8954 28.4961 34.1488 28.7495C33.3888 29.0661 32.8188 29.5728 32.4387 30.2695ZM29.3988 28.4645C29.0821 28.4645 28.8129 28.3536 28.5912 28.132C28.3696 27.9103 28.2587 27.6411 28.2587 27.3245C28.2587 27.0078 28.3696 26.7545 28.5912 26.5645C28.8129 26.3745 29.0821 26.2795 29.3988 26.2795C29.7154 26.2795 29.9846 26.3745 30.2063 26.5645C30.4279 26.7545 30.5387 27.0078 30.5387 27.3245C30.5387 27.6411 30.4279 27.9103 30.2063 28.132C29.9846 28.3536 29.7154 28.4645 29.3988 28.4645ZM27.6888 24.4745C28.0054 24.1578 28.1954 23.8095 28.2587 23.4295H29.0188V25.3295V25.4245C28.6388 24.9811 28.1954 24.6645 27.6888 24.4745ZM30.5387 23.4295C30.6021 23.8095 30.7604 24.1578 31.0138 24.4745C30.6337 24.6645 30.2854 24.9178 29.9688 25.2345V23.4295H30.5387ZM35.5737 29.4145C36.1437 29.4145 36.6663 29.5886 37.1413 29.937C37.6162 30.2853 37.9487 30.7128 38.1388 31.2195H33.0087C33.1987 30.7128 33.5312 30.2853 34.0063 29.937C34.4812 29.5886 35.0037 29.4145 35.5737 29.4145ZM35.5737 28.4645C35.2571 28.4645 34.9879 28.3536 34.7663 28.132C34.5446 27.9103 34.4338 27.6411 34.4338 27.3245C34.4338 27.0078 34.5446 26.7545 34.7663 26.5645C34.9879 26.3745 35.2571 26.2795 35.5737 26.2795C35.8904 26.2795 36.1596 26.3745 36.3813 26.5645C36.6029 26.7545 36.7137 27.0078 36.7137 27.3245C36.7137 27.6411 36.6029 27.9103 36.3813 28.132C36.1596 28.3536 35.8904 28.4645 35.5737 28.4645ZM33.5788 26.9445H31.3938C31.2671 26.4378 31.0138 26.0578 30.6337 25.8045C31.1404 25.2978 31.7579 25.0445 32.4862 25.0445C33.2146 25.0445 33.8321 25.2978 34.3387 25.8045C33.9587 26.0578 33.7054 26.4378 33.5788 26.9445ZM32.4387 24.0945C32.1221 24.0945 31.8529 23.9995 31.6312 23.8095C31.4096 23.6195 31.2987 23.3661 31.2987 23.0495C31.2987 22.7328 31.4096 22.4636 31.6312 22.242C31.8529 22.0203 32.1221 21.9095 32.4387 21.9095C32.7554 21.9095 33.0246 22.0203 33.2463 22.242C33.4679 22.4636 33.5788 22.7328 33.5788 23.0495C33.5788 23.3661 33.4679 23.6195 33.2463 23.8095C33.0246 23.9995 32.7554 24.0945 32.4387 24.0945ZM28.1637 25.8045C27.7837 26.0578 27.5304 26.4378 27.4037 26.9445H25.1237C25.0604 26.4378 24.8387 26.0578 24.4587 25.8045C24.9654 25.2978 25.5829 25.0445 26.3112 25.0445C27.0396 25.0445 27.6571 25.2978 28.1637 25.8045ZM23.2238 29.4145C23.7937 29.4145 24.3162 29.5886 24.7913 29.937C25.2662 30.2853 25.5988 30.7128 25.7887 31.2195H20.6588C20.8488 30.7128 21.1654 30.2853 21.6087 29.937C22.0521 29.5886 22.5904 29.4145 23.2238 29.4145ZM29.3988 29.4145C29.9688 29.4145 30.4913 29.5886 30.9662 29.937C31.4412 30.2853 31.7738 30.7128 31.9637 31.2195H26.8337C27.0238 30.7128 27.3404 30.2853 27.7837 29.937C28.2271 29.5886 28.7654 29.4145 29.3988 29.4145ZM29.4937 17.5395C29.8104 17.5395 30.0796 17.6503 30.3012 17.872C30.5229 18.0936 30.6337 18.3628 30.6337 18.6795C30.6337 18.9961 30.5229 19.2653 30.3012 19.487C30.0796 19.7086 29.8104 19.8195 29.4937 19.8195C29.1771 19.8195 28.9079 19.7086 28.6862 19.487C28.4646 19.2653 28.3538 18.9961 28.3538 18.6795C28.3538 18.3628 28.4646 18.0936 28.6862 17.872C28.9079 17.6503 29.1771 17.5395 29.4937 17.5395ZM19.0438 18.5845C21.0704 18.6478 22.7487 18.7428 24.0787 18.8695C25.0287 19.0595 26.2638 19.3445 27.7837 19.7245L28.0687 20.1045C27.5621 20.2945 27.1187 20.6111 26.7387 21.0545C26.6121 20.9911 26.4537 20.9595 26.2638 20.9595C25.6937 20.9595 25.2188 21.1653 24.8387 21.577C24.4587 21.9886 24.2688 22.4636 24.2688 23.002C24.2688 23.5403 24.4587 24.0311 24.8387 24.4745C24.3321 24.6645 23.9204 24.9811 23.6037 25.4245L23.2238 25.3295C22.6537 25.3295 22.1629 25.5353 21.7512 25.947C21.3396 26.3586 21.1337 26.8336 21.1337 27.372C21.1337 27.9103 21.3554 28.3695 21.7987 28.7495C21.2287 29.0028 20.7537 29.3828 20.3737 29.8895C19.9938 30.3961 19.7404 30.9978 19.6137 31.6945C19.6137 31.8211 19.6612 31.932 19.7562 32.027C19.8513 32.122 19.9621 32.1695 20.0887 32.1695H29.0188V38.0595C26.6754 36.9195 23.3504 36.3495 19.0438 36.3495V18.5845ZM42.4137 38.5345H31.4887C31.3621 38.5345 31.2513 38.582 31.1562 38.677C31.0612 38.772 31.0138 38.8511 31.0138 38.9145V39.3895C31.0138 39.5795 30.9662 39.722 30.8713 39.817C30.7762 39.912 30.6337 39.9595 30.4437 39.9595H28.5437C28.4171 39.9595 28.2904 39.912 28.1637 39.817C28.0371 39.722 27.9738 39.5795 27.9738 39.3895V38.9145C27.9738 38.8511 27.9262 38.772 27.8313 38.677C27.7362 38.582 27.6571 38.5345 27.5938 38.5345H16.5738V20.1995H18.1888V36.7295C18.1888 36.8561 18.2362 36.967 18.3312 37.062C18.4262 37.157 18.5371 37.2045 18.6637 37.2045C23.4137 37.2045 26.9604 37.8695 29.3038 39.1995C29.3671 39.2628 29.4304 39.2945 29.4937 39.2945C29.5571 39.2945 29.6204 39.2628 29.6838 39.1995C32.0271 37.8695 35.5737 37.2045 40.3237 37.2045C40.4504 37.2045 40.5612 37.157 40.6562 37.062C40.7512 36.967 40.7987 36.8561 40.7987 36.7295V20.1995H42.4137V38.5345ZM38.5187 33.6895C38.5187 33.8161 38.4713 33.927 38.3762 34.022C38.2812 34.117 38.1704 34.1645 38.0437 34.1645C35.6371 34.2911 33.6104 34.6078 31.9637 35.1145H31.7738C31.5837 35.1145 31.4571 35.0353 31.3938 34.877C31.3304 34.7186 31.3304 34.592 31.3938 34.497C31.4571 34.402 31.5521 34.3228 31.6788 34.2595C33.4521 33.7528 35.5737 33.4361 38.0437 33.3095C38.1704 33.3095 38.2654 33.3411 38.3288 33.4045C38.3921 33.4678 38.4554 33.5628 38.5187 33.6895ZM27.5938 34.8295C27.5304 35.0195 27.4037 35.1145 27.2137 35.1145H27.0238C25.3771 34.6078 23.3504 34.2911 20.9437 34.1645C20.8171 34.1645 20.7062 34.117 20.6112 34.022C20.5163 33.927 20.4846 33.8161 20.5163 33.6895C20.5479 33.5628 20.5954 33.4678 20.6588 33.4045C20.7221 33.3411 20.8171 33.3095 20.9437 33.3095C23.4137 33.4361 25.5354 33.7528 27.3088 34.2595C27.4354 34.3228 27.5304 34.402 27.5938 34.497C27.6571 34.592 27.6571 34.7028 27.5938 34.8295Z" fill="#252B42"/>
</g>
<defs>
<clipPath id="clip0_2631_472">
<rect width="28.515" height="28.5" fill="white" transform="matrix(1 0 0 -1 15.2344 43)"/>
</clipPath>
</defs>
</svg>
