<svg width="59" height="59" viewBox="0 0 59 59" fill="none" xmlns="http://www.w3.org/2000/svg">
<rect y="0.25" width="58.5" height="58.5" rx="29.25" fill="white"/>
<g clip-path="url(#clip0_2631_466)">
<path d="M38.6481 32.4554C38.9648 32.0754 39.2181 31.6321 39.4081 31.1254C39.5981 30.6187 39.6931 30.1121 39.6931 29.6054C39.6931 28.7821 39.4081 28.0854 38.8381 27.5154C38.2681 26.9454 37.5715 26.6604 36.7481 26.6604C35.9248 26.6604 35.2281 26.9454 34.6581 27.5154C34.0881 28.0854 33.8031 28.7979 33.8031 29.6529C33.8031 30.5079 34.0248 31.2837 34.4681 31.9804L34.7531 32.4554C34.0565 32.4554 33.4231 32.6771 32.8531 33.1204C32.5998 33.0571 32.3465 33.0254 32.0931 33.0254H31.6181C31.9348 32.7721 32.1881 32.4554 32.3781 32.0754C33.0115 31.0621 33.3281 29.8904 33.3281 28.5604C33.3281 27.8637 33.154 27.1987 32.8056 26.5654C32.4573 25.9321 31.9665 25.4254 31.3331 25.0454C30.6998 24.6654 30.0031 24.4754 29.2431 24.4754C28.4831 24.4754 27.7865 24.6654 27.1531 25.0454C26.5198 25.4254 26.029 25.9321 25.6806 26.5654C25.3323 27.1987 25.1581 27.8637 25.1581 28.5604C25.1581 29.8904 25.4748 31.0621 26.1081 32.0754C26.2981 32.3921 26.5515 32.7087 26.8681 33.0254H26.3931C26.1398 33.0254 25.8865 33.0571 25.6331 33.1204C25.0631 32.6771 24.4298 32.4554 23.7331 32.4554L24.0181 31.9804C24.4615 31.2837 24.6831 30.5079 24.6831 29.6529C24.6831 28.7979 24.3981 28.0854 23.8281 27.5154C23.2581 26.9454 22.5615 26.6604 21.7381 26.6604C20.9148 26.6604 20.2181 26.9454 19.6481 27.5154C19.0781 28.0854 18.7931 28.7821 18.7931 29.6054C18.7931 30.1121 18.8881 30.6187 19.0781 31.1254C19.2681 31.6321 19.5215 32.0754 19.8381 32.4554C18.9515 32.4554 18.2073 32.7404 17.6056 33.3104C17.004 33.8804 16.7031 34.5771 16.7031 35.4004V38.8204C16.7031 38.9471 16.7348 39.0579 16.7981 39.1529C16.8615 39.2479 16.9565 39.2954 17.0831 39.2954H22.0231V42.1454C22.0231 42.2721 22.0706 42.3671 22.1656 42.4304C22.2606 42.4937 22.3715 42.5254 22.4981 42.5254H35.9881C36.1148 42.5254 36.2256 42.4937 36.3206 42.4304C36.4156 42.3671 36.4631 42.2721 36.4631 42.1454V39.2954H41.4031C41.5298 39.2954 41.6248 39.2479 41.6881 39.1529C41.7515 39.0579 41.7831 38.9471 41.7831 38.8204V35.4004C41.7831 34.5771 41.4823 33.8804 40.8806 33.3104C40.279 32.7404 39.5348 32.4554 38.6481 32.4554ZM34.6581 29.6054C34.6581 29.0354 34.864 28.5446 35.2756 28.1329C35.6873 27.7212 36.1781 27.5154 36.7481 27.5154C37.3181 27.5154 37.809 27.7212 38.2206 28.1329C38.6323 28.5446 38.8381 29.0671 38.8381 29.7004C38.8381 30.3337 38.6798 30.9037 38.3631 31.4104C37.9831 32.1071 37.4448 32.4554 36.7481 32.4554C36.0515 32.4554 35.5131 32.1071 35.1331 31.4104C34.8165 30.9037 34.6581 30.3021 34.6581 29.6054ZM29.2431 25.4254C30.1298 25.4254 30.8898 25.7262 31.5231 26.3279C32.1565 26.9296 32.4731 27.6737 32.4731 28.5604V28.6554C31.7765 28.5921 31.1748 28.4654 30.6681 28.2754C30.0348 28.0221 29.3698 27.6421 28.6731 27.1354C28.5465 27.0087 28.3881 27.0087 28.1981 27.1354L26.0131 28.3704C26.0765 27.5471 26.4248 26.8504 27.0581 26.2804C27.6915 25.7104 28.4198 25.4254 29.2431 25.4254ZM26.8681 31.6004C26.4881 30.9671 26.2348 30.2387 26.1081 29.4154L28.3881 27.9904C29.0848 28.4971 29.7815 28.8771 30.4781 29.1304C30.9848 29.3204 31.6181 29.4787 32.3781 29.6054C32.2515 30.3654 31.9981 31.0304 31.6181 31.6004C31.0481 32.5504 30.2565 33.0254 29.2431 33.0254C28.2298 33.0254 27.4381 32.5504 26.8681 31.6004ZM19.6481 29.6054C19.6481 29.0354 19.854 28.5446 20.2656 28.1329C20.6773 27.7212 21.1681 27.5154 21.7381 27.5154C22.3081 27.5154 22.799 27.7212 23.2106 28.1329C23.6223 28.5446 23.8281 29.0671 23.8281 29.7004C23.8281 30.3337 23.6698 30.9037 23.3531 31.4104C22.9731 32.1071 22.4348 32.4554 21.7381 32.4554C21.0415 32.4554 20.5031 32.1071 20.1231 31.4104C19.8065 30.9037 19.6481 30.3021 19.6481 29.6054ZM17.5581 38.4404V35.4004C17.5581 34.8304 17.7798 34.3554 18.2231 33.9754C18.6665 33.5954 19.2048 33.4054 19.8381 33.4054H23.7331C23.9865 33.4054 24.2081 33.4371 24.3981 33.5004C23.7015 33.8171 23.1315 34.3079 22.6881 34.9729C22.2448 35.6379 22.0231 36.3504 22.0231 37.1104V38.4404H17.5581ZM35.6081 41.6704H33.3281V38.9154C33.3281 38.7887 33.2806 38.6779 33.1856 38.5829C33.0906 38.4879 32.9798 38.4404 32.8531 38.4404C32.7265 38.4404 32.6315 38.4879 32.5681 38.5829C32.5048 38.6779 32.4731 38.7887 32.4731 38.9154V41.6704H26.0131V38.9154C26.0131 38.7887 25.9815 38.6779 25.9181 38.5829C25.8548 38.4879 25.7598 38.4404 25.6331 38.4404C25.5065 38.4404 25.3956 38.4879 25.3006 38.5829C25.2056 38.6779 25.1581 38.7887 25.1581 38.9154V41.6704H22.8781V37.1104C22.8781 36.2237 23.2265 35.4637 23.9231 34.8304C24.6198 34.1971 25.4431 33.8804 26.3931 33.8804H32.0931C33.0431 33.8804 33.8665 34.1971 34.5631 34.8304C35.2598 35.4637 35.6081 36.2237 35.6081 37.1104V41.6704ZM40.9281 38.4404H36.4631V37.1104C36.4631 36.3504 36.2415 35.6379 35.7981 34.9729C35.3548 34.3079 34.7848 33.8171 34.0881 33.5004C34.2781 33.4371 34.4998 33.4054 34.7531 33.4054H38.6481C39.2815 33.4054 39.8198 33.5954 40.2631 33.9754C40.7065 34.3554 40.9281 34.8304 40.9281 35.4004V38.4404ZM26.7731 20.2954L26.3931 22.6704C26.3931 22.8604 26.4565 23.0029 26.5831 23.0979C26.7098 23.1929 26.8681 23.2087 27.0581 23.1454L29.2431 22.0054L31.4281 23.1454C31.6181 23.2087 31.7765 23.1929 31.9031 23.0979C32.0298 23.0029 32.0931 22.8604 32.0931 22.6704L31.7131 20.2954L33.4231 18.4904C33.5498 18.3637 33.5815 18.2212 33.5181 18.0629C33.4548 17.9046 33.3281 17.7937 33.1381 17.7304L30.7631 17.3504L29.6231 15.1654C29.5598 15.0387 29.4331 14.9754 29.2431 14.9754C29.0531 14.9754 28.9265 15.0387 28.8631 15.1654L27.7231 17.3504L25.3481 17.7304C25.1581 17.7937 25.0315 17.9046 24.9681 18.0629C24.9048 18.2212 24.9365 18.3637 25.0631 18.4904L26.7731 20.2954ZM28.1031 18.2054C28.2298 18.1421 28.3248 18.0471 28.3881 17.9204L29.2431 16.3054L30.0981 17.9204C30.1615 18.0471 30.2565 18.1421 30.3831 18.2054L32.1881 18.4904L30.9531 19.8204C30.8265 19.8837 30.7631 20.0104 30.7631 20.2004L31.0481 21.9104L29.4331 21.1504C29.3065 21.0871 29.1798 21.0871 29.0531 21.1504L27.4381 21.9104L27.7231 20.2004C27.7231 20.0104 27.6598 19.8837 27.5331 19.8204L26.2981 18.4904L28.1031 18.2054ZM18.5081 20.9604L18.2231 22.6704C18.2231 22.8604 18.3023 23.0029 18.4606 23.0979C18.619 23.1929 18.7615 23.2087 18.8881 23.1454L20.4081 22.3854L21.9281 23.1454C22.0548 23.2087 22.1973 23.1929 22.3556 23.0979C22.514 23.0029 22.5931 22.8604 22.5931 22.6704L22.3081 20.9604L23.4481 19.8204C23.5748 19.6937 23.6223 19.5354 23.5906 19.3454C23.559 19.1554 23.4481 19.0604 23.2581 19.0604L21.5481 18.7754L20.7881 17.2554C20.7248 17.1287 20.5981 17.0654 20.4081 17.0654C20.2181 17.0654 20.0915 17.1287 20.0281 17.2554L19.2681 18.7754L17.5581 19.0604C17.3681 19.0604 17.2573 19.1554 17.2256 19.3454C17.194 19.5354 17.2415 19.6937 17.3681 19.8204L18.5081 20.9604ZM19.5531 19.6304C19.7431 19.5671 19.8698 19.4721 19.9331 19.3454L20.4081 18.3954L20.8831 19.3454C20.9465 19.4721 21.0415 19.5671 21.1681 19.6304L22.2131 19.8204L21.5481 20.5804C21.4215 20.6437 21.3581 20.7387 21.3581 20.8654L21.5481 21.9104L20.5981 21.5304C20.4715 21.4671 20.3448 21.4671 20.2181 21.5304L19.2681 21.9104L19.4581 20.8654C19.4581 20.7387 19.3948 20.6437 19.2681 20.5804L18.6031 19.8204L19.5531 19.6304ZM36.1781 20.9604L35.8931 22.6704C35.8931 22.8604 35.9723 23.0029 36.1306 23.0979C36.289 23.1929 36.4315 23.2087 36.5581 23.1454L38.0781 22.3854L39.5981 23.1454C39.7248 23.2087 39.8673 23.1929 40.0256 23.0979C40.184 23.0029 40.2631 22.8604 40.2631 22.6704L39.9781 20.9604L41.1181 19.8204C41.2448 19.6937 41.2923 19.5354 41.2606 19.3454C41.229 19.1554 41.1181 19.0604 40.9281 19.0604L39.2181 18.7754L38.4581 17.2554C38.3948 17.1287 38.2681 17.0654 38.0781 17.0654C37.8881 17.0654 37.7615 17.1287 37.6981 17.2554L36.9381 18.7754L35.2281 19.0604C35.0381 19.0604 34.9273 19.1554 34.8956 19.3454C34.864 19.5354 34.9115 19.6937 35.0381 19.8204L36.1781 20.9604ZM37.3181 19.6304C37.4448 19.5671 37.5398 19.4721 37.6031 19.3454L38.0781 18.3954L38.5531 19.3454C38.6165 19.4721 38.7431 19.5671 38.9331 19.6304L39.8831 19.8204L39.2181 20.5804C39.0915 20.6437 39.0281 20.7387 39.0281 20.8654L39.2181 21.9104L38.2681 21.5304C38.1415 21.4671 38.0148 21.4671 37.8881 21.5304L36.9381 21.9104L37.1281 20.8654C37.1281 20.7387 37.0648 20.6437 36.9381 20.5804L36.2731 19.8204L37.3181 19.6304Z" fill="#252B42"/>
</g>
<defs>
<clipPath id="clip0_2631_466">
<rect width="28.515" height="28.5" fill="white" transform="matrix(1 0 0 -1 14.9844 43)"/>
</clipPath>
</defs>
</svg>
