<svg width="844" height="164" viewBox="0 0 844 164" fill="none" xmlns="http://www.w3.org/2000/svg">
<mask id="path-1-outside-1_2689_307" maskUnits="userSpaceOnUse" x="0" y="0" width="844" height="164" fill="black">
<rect fill="white" width="844" height="164"/>
<path d="M137.092 32.408H166.66V49.496H137.092V32.408ZM138.628 71H115.972V3.8H170.596V20.888H138.628V71ZM212.517 72.536C207.077 72.536 202.021 71.672 197.349 69.944C192.741 68.216 188.741 65.784 185.349 62.648C181.957 59.448 179.301 55.704 177.381 51.416C175.525 47.128 174.597 42.456 174.597 37.4C174.597 32.28 175.525 27.608 177.381 23.384C179.301 19.096 181.957 15.384 185.349 12.248C188.741 9.04799 192.741 6.584 197.349 4.856C202.021 3.128 207.077 2.264 212.517 2.264C218.021 2.264 223.077 3.128 227.685 4.856C232.293 6.584 236.293 9.04799 239.685 12.248C243.077 15.384 245.701 19.096 247.557 23.384C249.477 27.608 250.437 32.28 250.437 37.4C250.437 42.456 249.477 47.128 247.557 51.416C245.701 55.704 243.077 59.448 239.685 62.648C236.293 65.784 232.293 68.216 227.685 69.944C223.077 71.672 218.021 72.536 212.517 72.536ZM212.517 54.2C214.629 54.2 216.581 53.816 218.373 53.048C220.229 52.28 221.829 51.192 223.173 49.784C224.581 48.312 225.669 46.552 226.437 44.504C227.205 42.392 227.589 40.024 227.589 37.4C227.589 34.776 227.205 32.44 226.437 30.392C225.669 28.28 224.581 26.52 223.173 25.112C221.829 23.64 220.229 22.52 218.373 21.752C216.581 20.984 214.629 20.6 212.517 20.6C210.405 20.6 208.421 20.984 206.565 21.752C204.773 22.52 203.173 23.64 201.765 25.112C200.421 26.52 199.365 28.28 198.597 30.392C197.829 32.44 197.445 34.776 197.445 37.4C197.445 40.024 197.829 42.392 198.597 44.504C199.365 46.552 200.421 48.312 201.765 49.784C203.173 51.192 204.773 52.28 206.565 53.048C208.421 53.816 210.405 54.2 212.517 54.2ZM258.66 71V3.8H291.012C297.284 3.8 302.692 4.824 307.236 6.872C311.844 8.92 315.396 11.864 317.892 15.704C320.388 19.48 321.636 23.96 321.636 29.144C321.636 34.328 320.388 38.808 317.892 42.584C315.396 46.296 311.844 49.144 307.236 51.128C302.692 53.112 297.284 54.104 291.012 54.104H271.236L281.316 44.792V71H258.66ZM298.884 71L282.372 46.52H306.372L323.076 71H298.884ZM281.316 47.288L271.236 37.016H289.572C292.708 37.016 295.012 36.312 296.484 34.904C298.02 33.496 298.788 31.576 298.788 29.144C298.788 26.712 298.02 24.792 296.484 23.384C295.012 21.976 292.708 21.272 289.572 21.272H271.236L281.316 11V47.288ZM330.191 71V3.8H348.815L375.695 47.672H365.903L392.015 3.8H410.639L410.831 71H390.191L389.999 34.904H393.263L375.407 64.952H365.423L346.799 34.904H350.831V71H330.191ZM414.488 71L443.865 3.8H466.137L495.513 71H472.089L450.393 14.552H459.225L437.529 71H414.488ZM431.961 59.288L437.721 42.968H468.633L474.393 59.288H431.961ZM499.128 71V3.8H517.752L551.928 44.696H543.288V3.8H565.368V71H546.744L512.568 30.104H521.208V71H499.128ZM576.285 71V3.8H609.405C616.893 3.8 623.485 5.176 629.181 7.928C634.877 10.616 639.325 14.456 642.525 19.448C645.725 24.44 647.325 30.392 647.325 37.304C647.325 44.28 645.725 50.296 642.525 55.352C639.325 60.344 634.877 64.216 629.181 66.968C623.485 69.656 616.893 71 609.405 71H576.285ZM598.941 53.336H608.445C611.645 53.336 614.429 52.728 616.797 51.512C619.229 50.296 621.117 48.504 622.461 46.136C623.805 43.704 624.477 40.76 624.477 37.304C624.477 33.912 623.805 31.032 622.461 28.664C621.117 26.296 619.229 24.504 616.797 23.288C614.429 22.072 611.645 21.464 608.445 21.464H598.941V53.336ZM690.829 72.536C685.389 72.536 680.333 71.672 675.661 69.944C671.053 68.216 667.053 65.784 663.661 62.648C660.269 59.448 657.613 55.704 655.693 51.416C653.837 47.128 652.909 42.456 652.909 37.4C652.909 32.28 653.837 27.608 655.693 23.384C657.613 19.096 660.269 15.384 663.661 12.248C667.053 9.04799 671.053 6.584 675.661 4.856C680.333 3.128 685.389 2.264 690.829 2.264C696.333 2.264 701.389 3.128 705.997 4.856C710.605 6.584 714.605 9.04799 717.997 12.248C721.389 15.384 724.013 19.096 725.869 23.384C727.789 27.608 728.749 32.28 728.749 37.4C728.749 42.456 727.789 47.128 725.869 51.416C724.013 55.704 721.389 59.448 717.997 62.648C714.605 65.784 710.605 68.216 705.997 69.944C701.389 71.672 696.333 72.536 690.829 72.536ZM690.829 54.2C692.941 54.2 694.893 53.816 696.685 53.048C698.541 52.28 700.141 51.192 701.485 49.784C702.893 48.312 703.981 46.552 704.749 44.504C705.517 42.392 705.901 40.024 705.901 37.4C705.901 34.776 705.517 32.44 704.749 30.392C703.981 28.28 702.893 26.52 701.485 25.112C700.141 23.64 698.541 22.52 696.685 21.752C694.893 20.984 692.941 20.6 690.829 20.6C688.717 20.6 686.733 20.984 684.877 21.752C683.085 22.52 681.485 23.64 680.077 25.112C678.733 26.52 677.677 28.28 676.909 30.392C676.141 32.44 675.757 34.776 675.757 37.4C675.757 40.024 676.141 42.392 676.909 44.504C677.677 46.552 678.733 48.312 680.077 49.784C681.485 51.192 683.085 52.28 684.877 53.048C686.733 53.816 688.717 54.2 690.829 54.2ZM2.25325 160V92.8H24.9093V142.432H55.2453V160H2.25325ZM61.5033 160V92.8H84.1593V160H61.5033ZM62.7513 87.328L75.4233 71.968H96.0633L77.1513 87.328H62.7513ZM95.0658 160V92.8H128.186C135.674 92.8 142.266 94.176 147.962 96.928C153.658 99.616 158.106 103.456 161.306 108.448C164.506 113.44 166.106 119.392 166.106 126.304C166.106 133.28 164.506 139.296 161.306 144.352C158.106 149.344 153.658 153.216 147.962 155.968C142.266 158.656 135.674 160 128.186 160H95.0658ZM117.722 142.336H127.226C130.426 142.336 133.21 141.728 135.578 140.512C138.01 139.296 139.898 137.504 141.242 135.136C142.586 132.704 143.258 129.76 143.258 126.304C143.258 122.912 142.586 120.032 141.242 117.664C139.898 115.296 138.01 113.504 135.578 112.288C133.21 111.072 130.426 110.464 127.226 110.464H117.722V142.336ZM195.114 117.76H225.066V134.08H195.114V117.76ZM196.65 142.912H230.25V160H174.378V92.8H229.002V109.888H196.65V142.912ZM238.972 160V92.8H271.324C277.596 92.8 283.004 93.824 287.548 95.872C292.156 97.92 295.708 100.864 298.204 104.704C300.7 108.48 301.948 112.96 301.948 118.144C301.948 123.328 300.7 127.808 298.204 131.584C295.708 135.296 292.156 138.144 287.548 140.128C283.004 142.112 277.596 143.104 271.324 143.104H251.548L261.628 133.792V160H238.972ZM279.196 160L262.684 135.52H286.684L303.388 160H279.196ZM261.628 136.288L251.548 126.016H269.884C273.02 126.016 275.324 125.312 276.796 123.904C278.332 122.496 279.1 120.576 279.1 118.144C279.1 115.712 278.332 113.792 276.796 112.384C275.324 110.976 273.02 110.272 269.884 110.272H251.548L261.628 100V136.288ZM331.239 117.76H361.191V134.08H331.239V117.76ZM332.775 142.912H366.375V160H310.503V92.8H365.127V109.888H332.775V142.912ZM400.153 161.536C394.521 161.536 389.081 160.896 383.833 159.616C378.585 158.336 374.265 156.672 370.873 154.624L378.169 138.112C381.369 139.968 384.921 141.472 388.825 142.624C392.793 143.712 396.633 144.256 400.345 144.256C402.521 144.256 404.217 144.128 405.433 143.872C406.713 143.552 407.641 143.136 408.217 142.624C408.793 142.048 409.081 141.376 409.081 140.608C409.081 139.392 408.409 138.432 407.065 137.728C405.721 137.024 403.929 136.448 401.689 136C399.513 135.488 397.113 134.976 394.489 134.464C391.865 133.888 389.209 133.152 386.521 132.256C383.897 131.36 381.465 130.176 379.225 128.704C377.049 127.232 375.289 125.312 373.945 122.944C372.601 120.512 371.929 117.504 371.929 113.92C371.929 109.76 373.081 105.984 375.385 102.592C377.753 99.136 381.241 96.384 385.849 94.336C390.521 92.288 396.313 91.264 403.225 91.264C407.769 91.264 412.249 91.744 416.665 92.704C421.081 93.664 425.049 95.136 428.569 97.12L421.753 113.536C418.425 111.872 415.193 110.624 412.057 109.792C408.985 108.96 405.977 108.544 403.033 108.544C400.857 108.544 399.129 108.736 397.849 109.12C396.569 109.504 395.641 110.016 395.065 110.656C394.553 111.296 394.297 112 394.297 112.768C394.297 113.92 394.969 114.848 396.313 115.552C397.657 116.192 399.417 116.736 401.593 117.184C403.833 117.632 406.265 118.112 408.889 118.624C411.577 119.136 414.233 119.84 416.857 120.736C419.481 121.632 421.881 122.816 424.057 124.288C426.297 125.76 428.089 127.68 429.433 130.048C430.777 132.416 431.449 135.36 431.449 138.88C431.449 142.976 430.265 146.752 427.897 150.208C425.593 153.6 422.137 156.352 417.529 158.464C412.921 160.512 407.129 161.536 400.153 161.536ZM501.724 161.536C496.348 161.536 491.356 160.704 486.748 159.04C482.204 157.312 478.236 154.88 474.844 151.744C471.516 148.608 468.924 144.896 467.068 140.608C465.212 136.32 464.284 131.584 464.284 126.4C464.284 121.216 465.212 116.48 467.068 112.192C468.924 107.904 471.516 104.192 474.844 101.056C478.236 97.92 482.204 95.52 486.748 93.856C491.356 92.128 496.348 91.264 501.724 91.264C508.316 91.264 514.14 92.416 519.196 94.72C524.316 97.024 528.54 100.352 531.868 104.704L517.564 117.472C515.58 114.976 513.372 113.056 510.94 111.712C508.572 110.304 505.884 109.6 502.876 109.6C500.508 109.6 498.364 109.984 496.444 110.752C494.524 111.52 492.86 112.64 491.452 114.112C490.108 115.584 489.052 117.376 488.284 119.488C487.516 121.536 487.132 123.84 487.132 126.4C487.132 128.96 487.516 131.296 488.284 133.408C489.052 135.456 490.108 137.216 491.452 138.688C492.86 140.16 494.524 141.28 496.444 142.048C498.364 142.816 500.508 143.2 502.876 143.2C505.884 143.2 508.572 142.528 510.94 141.184C513.372 139.776 515.58 137.824 517.564 135.328L531.868 148.096C528.54 152.384 524.316 155.712 519.196 158.08C514.14 160.384 508.316 161.536 501.724 161.536ZM572.235 161.536C566.795 161.536 561.739 160.672 557.067 158.944C552.459 157.216 548.459 154.784 545.067 151.648C541.675 148.448 539.019 144.704 537.099 140.416C535.243 136.128 534.315 131.456 534.315 126.4C534.315 121.28 535.243 116.608 537.099 112.384C539.019 108.096 541.675 104.384 545.067 101.248C548.459 98.048 552.459 95.584 557.067 93.856C561.739 92.128 566.795 91.264 572.235 91.264C577.739 91.264 582.795 92.128 587.403 93.856C592.011 95.584 596.011 98.048 599.403 101.248C602.795 104.384 605.419 108.096 607.275 112.384C609.195 116.608 610.155 121.28 610.155 126.4C610.155 131.456 609.195 136.128 607.275 140.416C605.419 144.704 602.795 148.448 599.403 151.648C596.011 154.784 592.011 157.216 587.403 158.944C582.795 160.672 577.739 161.536 572.235 161.536ZM572.235 143.2C574.347 143.2 576.299 142.816 578.091 142.048C579.947 141.28 581.547 140.192 582.891 138.784C584.299 137.312 585.387 135.552 586.155 133.504C586.923 131.392 587.307 129.024 587.307 126.4C587.307 123.776 586.923 121.44 586.155 119.392C585.387 117.28 584.299 115.52 582.891 114.112C581.547 112.64 579.947 111.52 578.091 110.752C576.299 109.984 574.347 109.6 572.235 109.6C570.123 109.6 568.139 109.984 566.283 110.752C564.491 111.52 562.891 112.64 561.483 114.112C560.139 115.52 559.083 117.28 558.315 119.392C557.547 121.44 557.163 123.776 557.163 126.4C557.163 129.024 557.547 131.392 558.315 133.504C559.083 135.552 560.139 137.312 561.483 138.784C562.891 140.192 564.491 141.28 566.283 142.048C568.139 142.816 570.123 143.2 572.235 143.2ZM618.378 160V92.8H637.002L671.178 133.696H662.538V92.8H684.618V160H665.994L631.818 119.104H640.458V160H618.378ZM745.436 121.408H775.004V138.496H745.436V121.408ZM746.972 160H724.316V92.8H778.94V109.888H746.972V160ZM806.833 117.76H836.785V134.08H806.833V117.76ZM808.369 142.912H841.969V160H786.097V92.8H840.721V109.888H808.369V142.912Z"/>
</mask>
<path d="M137.092 32.408H166.66V49.496H137.092V32.408ZM138.628 71H115.972V3.8H170.596V20.888H138.628V71ZM212.517 72.536C207.077 72.536 202.021 71.672 197.349 69.944C192.741 68.216 188.741 65.784 185.349 62.648C181.957 59.448 179.301 55.704 177.381 51.416C175.525 47.128 174.597 42.456 174.597 37.4C174.597 32.28 175.525 27.608 177.381 23.384C179.301 19.096 181.957 15.384 185.349 12.248C188.741 9.04799 192.741 6.584 197.349 4.856C202.021 3.128 207.077 2.264 212.517 2.264C218.021 2.264 223.077 3.128 227.685 4.856C232.293 6.584 236.293 9.04799 239.685 12.248C243.077 15.384 245.701 19.096 247.557 23.384C249.477 27.608 250.437 32.28 250.437 37.4C250.437 42.456 249.477 47.128 247.557 51.416C245.701 55.704 243.077 59.448 239.685 62.648C236.293 65.784 232.293 68.216 227.685 69.944C223.077 71.672 218.021 72.536 212.517 72.536ZM212.517 54.2C214.629 54.2 216.581 53.816 218.373 53.048C220.229 52.28 221.829 51.192 223.173 49.784C224.581 48.312 225.669 46.552 226.437 44.504C227.205 42.392 227.589 40.024 227.589 37.4C227.589 34.776 227.205 32.44 226.437 30.392C225.669 28.28 224.581 26.52 223.173 25.112C221.829 23.64 220.229 22.52 218.373 21.752C216.581 20.984 214.629 20.6 212.517 20.6C210.405 20.6 208.421 20.984 206.565 21.752C204.773 22.52 203.173 23.64 201.765 25.112C200.421 26.52 199.365 28.28 198.597 30.392C197.829 32.44 197.445 34.776 197.445 37.4C197.445 40.024 197.829 42.392 198.597 44.504C199.365 46.552 200.421 48.312 201.765 49.784C203.173 51.192 204.773 52.28 206.565 53.048C208.421 53.816 210.405 54.2 212.517 54.2ZM258.66 71V3.8H291.012C297.284 3.8 302.692 4.824 307.236 6.872C311.844 8.92 315.396 11.864 317.892 15.704C320.388 19.48 321.636 23.96 321.636 29.144C321.636 34.328 320.388 38.808 317.892 42.584C315.396 46.296 311.844 49.144 307.236 51.128C302.692 53.112 297.284 54.104 291.012 54.104H271.236L281.316 44.792V71H258.66ZM298.884 71L282.372 46.52H306.372L323.076 71H298.884ZM281.316 47.288L271.236 37.016H289.572C292.708 37.016 295.012 36.312 296.484 34.904C298.02 33.496 298.788 31.576 298.788 29.144C298.788 26.712 298.02 24.792 296.484 23.384C295.012 21.976 292.708 21.272 289.572 21.272H271.236L281.316 11V47.288ZM330.191 71V3.8H348.815L375.695 47.672H365.903L392.015 3.8H410.639L410.831 71H390.191L389.999 34.904H393.263L375.407 64.952H365.423L346.799 34.904H350.831V71H330.191ZM414.488 71L443.865 3.8H466.137L495.513 71H472.089L450.393 14.552H459.225L437.529 71H414.488ZM431.961 59.288L437.721 42.968H468.633L474.393 59.288H431.961ZM499.128 71V3.8H517.752L551.928 44.696H543.288V3.8H565.368V71H546.744L512.568 30.104H521.208V71H499.128ZM576.285 71V3.8H609.405C616.893 3.8 623.485 5.176 629.181 7.928C634.877 10.616 639.325 14.456 642.525 19.448C645.725 24.44 647.325 30.392 647.325 37.304C647.325 44.28 645.725 50.296 642.525 55.352C639.325 60.344 634.877 64.216 629.181 66.968C623.485 69.656 616.893 71 609.405 71H576.285ZM598.941 53.336H608.445C611.645 53.336 614.429 52.728 616.797 51.512C619.229 50.296 621.117 48.504 622.461 46.136C623.805 43.704 624.477 40.76 624.477 37.304C624.477 33.912 623.805 31.032 622.461 28.664C621.117 26.296 619.229 24.504 616.797 23.288C614.429 22.072 611.645 21.464 608.445 21.464H598.941V53.336ZM690.829 72.536C685.389 72.536 680.333 71.672 675.661 69.944C671.053 68.216 667.053 65.784 663.661 62.648C660.269 59.448 657.613 55.704 655.693 51.416C653.837 47.128 652.909 42.456 652.909 37.4C652.909 32.28 653.837 27.608 655.693 23.384C657.613 19.096 660.269 15.384 663.661 12.248C667.053 9.04799 671.053 6.584 675.661 4.856C680.333 3.128 685.389 2.264 690.829 2.264C696.333 2.264 701.389 3.128 705.997 4.856C710.605 6.584 714.605 9.04799 717.997 12.248C721.389 15.384 724.013 19.096 725.869 23.384C727.789 27.608 728.749 32.28 728.749 37.4C728.749 42.456 727.789 47.128 725.869 51.416C724.013 55.704 721.389 59.448 717.997 62.648C714.605 65.784 710.605 68.216 705.997 69.944C701.389 71.672 696.333 72.536 690.829 72.536ZM690.829 54.2C692.941 54.2 694.893 53.816 696.685 53.048C698.541 52.28 700.141 51.192 701.485 49.784C702.893 48.312 703.981 46.552 704.749 44.504C705.517 42.392 705.901 40.024 705.901 37.4C705.901 34.776 705.517 32.44 704.749 30.392C703.981 28.28 702.893 26.52 701.485 25.112C700.141 23.64 698.541 22.52 696.685 21.752C694.893 20.984 692.941 20.6 690.829 20.6C688.717 20.6 686.733 20.984 684.877 21.752C683.085 22.52 681.485 23.64 680.077 25.112C678.733 26.52 677.677 28.28 676.909 30.392C676.141 32.44 675.757 34.776 675.757 37.4C675.757 40.024 676.141 42.392 676.909 44.504C677.677 46.552 678.733 48.312 680.077 49.784C681.485 51.192 683.085 52.28 684.877 53.048C686.733 53.816 688.717 54.2 690.829 54.2ZM2.25325 160V92.8H24.9093V142.432H55.2453V160H2.25325ZM61.5033 160V92.8H84.1593V160H61.5033ZM62.7513 87.328L75.4233 71.968H96.0633L77.1513 87.328H62.7513ZM95.0658 160V92.8H128.186C135.674 92.8 142.266 94.176 147.962 96.928C153.658 99.616 158.106 103.456 161.306 108.448C164.506 113.44 166.106 119.392 166.106 126.304C166.106 133.28 164.506 139.296 161.306 144.352C158.106 149.344 153.658 153.216 147.962 155.968C142.266 158.656 135.674 160 128.186 160H95.0658ZM117.722 142.336H127.226C130.426 142.336 133.21 141.728 135.578 140.512C138.01 139.296 139.898 137.504 141.242 135.136C142.586 132.704 143.258 129.76 143.258 126.304C143.258 122.912 142.586 120.032 141.242 117.664C139.898 115.296 138.01 113.504 135.578 112.288C133.21 111.072 130.426 110.464 127.226 110.464H117.722V142.336ZM195.114 117.76H225.066V134.08H195.114V117.76ZM196.65 142.912H230.25V160H174.378V92.8H229.002V109.888H196.65V142.912ZM238.972 160V92.8H271.324C277.596 92.8 283.004 93.824 287.548 95.872C292.156 97.92 295.708 100.864 298.204 104.704C300.7 108.48 301.948 112.96 301.948 118.144C301.948 123.328 300.7 127.808 298.204 131.584C295.708 135.296 292.156 138.144 287.548 140.128C283.004 142.112 277.596 143.104 271.324 143.104H251.548L261.628 133.792V160H238.972ZM279.196 160L262.684 135.52H286.684L303.388 160H279.196ZM261.628 136.288L251.548 126.016H269.884C273.02 126.016 275.324 125.312 276.796 123.904C278.332 122.496 279.1 120.576 279.1 118.144C279.1 115.712 278.332 113.792 276.796 112.384C275.324 110.976 273.02 110.272 269.884 110.272H251.548L261.628 100V136.288ZM331.239 117.76H361.191V134.08H331.239V117.76ZM332.775 142.912H366.375V160H310.503V92.8H365.127V109.888H332.775V142.912ZM400.153 161.536C394.521 161.536 389.081 160.896 383.833 159.616C378.585 158.336 374.265 156.672 370.873 154.624L378.169 138.112C381.369 139.968 384.921 141.472 388.825 142.624C392.793 143.712 396.633 144.256 400.345 144.256C402.521 144.256 404.217 144.128 405.433 143.872C406.713 143.552 407.641 143.136 408.217 142.624C408.793 142.048 409.081 141.376 409.081 140.608C409.081 139.392 408.409 138.432 407.065 137.728C405.721 137.024 403.929 136.448 401.689 136C399.513 135.488 397.113 134.976 394.489 134.464C391.865 133.888 389.209 133.152 386.521 132.256C383.897 131.36 381.465 130.176 379.225 128.704C377.049 127.232 375.289 125.312 373.945 122.944C372.601 120.512 371.929 117.504 371.929 113.92C371.929 109.76 373.081 105.984 375.385 102.592C377.753 99.136 381.241 96.384 385.849 94.336C390.521 92.288 396.313 91.264 403.225 91.264C407.769 91.264 412.249 91.744 416.665 92.704C421.081 93.664 425.049 95.136 428.569 97.12L421.753 113.536C418.425 111.872 415.193 110.624 412.057 109.792C408.985 108.96 405.977 108.544 403.033 108.544C400.857 108.544 399.129 108.736 397.849 109.12C396.569 109.504 395.641 110.016 395.065 110.656C394.553 111.296 394.297 112 394.297 112.768C394.297 113.92 394.969 114.848 396.313 115.552C397.657 116.192 399.417 116.736 401.593 117.184C403.833 117.632 406.265 118.112 408.889 118.624C411.577 119.136 414.233 119.84 416.857 120.736C419.481 121.632 421.881 122.816 424.057 124.288C426.297 125.76 428.089 127.68 429.433 130.048C430.777 132.416 431.449 135.36 431.449 138.88C431.449 142.976 430.265 146.752 427.897 150.208C425.593 153.6 422.137 156.352 417.529 158.464C412.921 160.512 407.129 161.536 400.153 161.536ZM501.724 161.536C496.348 161.536 491.356 160.704 486.748 159.04C482.204 157.312 478.236 154.88 474.844 151.744C471.516 148.608 468.924 144.896 467.068 140.608C465.212 136.32 464.284 131.584 464.284 126.4C464.284 121.216 465.212 116.48 467.068 112.192C468.924 107.904 471.516 104.192 474.844 101.056C478.236 97.92 482.204 95.52 486.748 93.856C491.356 92.128 496.348 91.264 501.724 91.264C508.316 91.264 514.14 92.416 519.196 94.72C524.316 97.024 528.54 100.352 531.868 104.704L517.564 117.472C515.58 114.976 513.372 113.056 510.94 111.712C508.572 110.304 505.884 109.6 502.876 109.6C500.508 109.6 498.364 109.984 496.444 110.752C494.524 111.52 492.86 112.64 491.452 114.112C490.108 115.584 489.052 117.376 488.284 119.488C487.516 121.536 487.132 123.84 487.132 126.4C487.132 128.96 487.516 131.296 488.284 133.408C489.052 135.456 490.108 137.216 491.452 138.688C492.86 140.16 494.524 141.28 496.444 142.048C498.364 142.816 500.508 143.2 502.876 143.2C505.884 143.2 508.572 142.528 510.94 141.184C513.372 139.776 515.58 137.824 517.564 135.328L531.868 148.096C528.54 152.384 524.316 155.712 519.196 158.08C514.14 160.384 508.316 161.536 501.724 161.536ZM572.235 161.536C566.795 161.536 561.739 160.672 557.067 158.944C552.459 157.216 548.459 154.784 545.067 151.648C541.675 148.448 539.019 144.704 537.099 140.416C535.243 136.128 534.315 131.456 534.315 126.4C534.315 121.28 535.243 116.608 537.099 112.384C539.019 108.096 541.675 104.384 545.067 101.248C548.459 98.048 552.459 95.584 557.067 93.856C561.739 92.128 566.795 91.264 572.235 91.264C577.739 91.264 582.795 92.128 587.403 93.856C592.011 95.584 596.011 98.048 599.403 101.248C602.795 104.384 605.419 108.096 607.275 112.384C609.195 116.608 610.155 121.28 610.155 126.4C610.155 131.456 609.195 136.128 607.275 140.416C605.419 144.704 602.795 148.448 599.403 151.648C596.011 154.784 592.011 157.216 587.403 158.944C582.795 160.672 577.739 161.536 572.235 161.536ZM572.235 143.2C574.347 143.2 576.299 142.816 578.091 142.048C579.947 141.28 581.547 140.192 582.891 138.784C584.299 137.312 585.387 135.552 586.155 133.504C586.923 131.392 587.307 129.024 587.307 126.4C587.307 123.776 586.923 121.44 586.155 119.392C585.387 117.28 584.299 115.52 582.891 114.112C581.547 112.64 579.947 111.52 578.091 110.752C576.299 109.984 574.347 109.6 572.235 109.6C570.123 109.6 568.139 109.984 566.283 110.752C564.491 111.52 562.891 112.64 561.483 114.112C560.139 115.52 559.083 117.28 558.315 119.392C557.547 121.44 557.163 123.776 557.163 126.4C557.163 129.024 557.547 131.392 558.315 133.504C559.083 135.552 560.139 137.312 561.483 138.784C562.891 140.192 564.491 141.28 566.283 142.048C568.139 142.816 570.123 143.2 572.235 143.2ZM618.378 160V92.8H637.002L671.178 133.696H662.538V92.8H684.618V160H665.994L631.818 119.104H640.458V160H618.378ZM745.436 121.408H775.004V138.496H745.436V121.408ZM746.972 160H724.316V92.8H778.94V109.888H746.972V160ZM806.833 117.76H836.785V134.08H806.833V117.76ZM808.369 142.912H841.969V160H786.097V92.8H840.721V109.888H808.369V142.912Z" fill="#8156E5"/>
<path d="M137.092 32.408V30.408H135.092V32.408H137.092ZM166.66 32.408H168.66V30.408H166.66V32.408ZM166.66 49.496V51.496H168.66V49.496H166.66ZM137.092 49.496H135.092V51.496H137.092V49.496ZM138.628 71V73H140.628V71H138.628ZM115.972 71H113.972V73H115.972V71ZM115.972 3.8V1.8H113.972V3.8H115.972ZM170.596 3.8H172.596V1.8H170.596V3.8ZM170.596 20.888V22.888H172.596V20.888H170.596ZM138.628 20.888V18.888H136.628V20.888H138.628ZM137.092 32.408V34.408H166.66V32.408V30.408H137.092V32.408ZM166.66 32.408H164.66V49.496H166.66H168.66V32.408H166.66ZM166.66 49.496V47.496H137.092V49.496V51.496H166.66V49.496ZM137.092 49.496H139.092V32.408H137.092H135.092V49.496H137.092ZM138.628 71V69H115.972V71V73H138.628V71ZM115.972 71H117.972V3.8H115.972H113.972V71H115.972ZM115.972 3.8V5.8H170.596V3.8V1.8H115.972V3.8ZM170.596 3.8H168.596V20.888H170.596H172.596V3.8H170.596ZM170.596 20.888V18.888H138.628V20.888V22.888H170.596V20.888ZM138.628 20.888H136.628V71H138.628H140.628V20.888H138.628ZM197.348 69.944L196.646 71.8167L196.655 71.8198L197.348 69.944ZM185.348 62.648L183.976 64.1028L183.983 64.1097L183.991 64.1165L185.348 62.648ZM177.38 51.416L175.545 52.2104L175.55 52.2219L175.555 52.2333L177.38 51.416ZM177.38 23.384L175.555 22.5666L175.549 22.5795L177.38 23.384ZM185.348 12.248L186.706 13.7165L186.714 13.7097L186.721 13.7028L185.348 12.248ZM197.348 4.856L196.655 2.98017L196.646 2.98334L197.348 4.856ZM227.685 4.856L226.982 6.72866V6.72866L227.685 4.856ZM239.685 12.248L238.312 13.7028L238.319 13.7097L238.327 13.7165L239.685 12.248ZM247.557 23.384L245.721 24.1784L245.728 24.1951L245.736 24.2116L247.557 23.384ZM247.557 51.416L245.731 50.5987L245.726 50.6101L245.721 50.6216L247.557 51.416ZM239.685 62.648L241.042 64.1165L241.05 64.1097L241.057 64.1028L239.685 62.648ZM227.685 69.944L226.982 68.0713L227.685 69.944ZM218.372 53.048L217.608 51.2L217.596 51.2048L217.585 51.2097L218.372 53.048ZM223.173 49.784L221.727 48.4016L221.726 48.403L223.173 49.784ZM226.436 44.504L228.309 45.2062L228.313 45.1969L228.316 45.1875L226.436 44.504ZM226.436 30.392L224.557 31.0755L224.56 31.0849L224.564 31.0942L226.436 30.392ZM223.173 25.112L221.696 26.4605L221.726 26.4941L221.758 26.5262L223.173 25.112ZM218.372 21.752L217.585 23.5903L217.596 23.5952L217.608 23.6L218.372 21.752ZM206.564 21.752L205.8 19.904L205.788 19.9088L205.777 19.9137L206.564 21.752ZM201.764 25.112L200.319 23.7296L200.318 23.731L201.764 25.112ZM198.596 30.392L200.469 31.0942L200.473 31.0849L200.476 31.0755L198.596 30.392ZM198.596 44.504L196.717 45.1875L196.72 45.1969L196.724 45.2062L198.596 44.504ZM201.764 49.784L200.288 51.1325L200.318 51.1661L200.35 51.1982L201.764 49.784ZM206.564 53.048L205.777 54.8863L205.788 54.8912L205.8 54.896L206.564 53.048ZM212.517 72.536V70.536C207.291 70.536 202.473 69.7068 198.042 68.0682L197.348 69.944L196.655 71.8198C201.568 73.6372 206.862 74.536 212.517 74.536V72.536ZM197.348 69.944L198.051 68.0713C193.669 66.4283 189.896 64.1283 186.706 61.1795L185.348 62.648L183.991 64.1165C187.585 67.4397 191.812 70.0037 196.646 71.8167L197.348 69.944ZM185.348 62.648L186.721 61.1932C183.522 58.1752 181.019 54.6483 179.206 50.5987L177.38 51.416L175.555 52.2333C177.582 56.7597 180.391 60.7208 183.976 64.1028L185.348 62.648ZM177.38 51.416L179.216 50.6216C177.477 46.6043 176.596 42.2054 176.596 37.4H174.596H172.596C172.596 42.7066 173.572 47.6516 175.545 52.2104L177.38 51.416ZM174.596 37.4H176.596C176.596 32.5265 177.479 28.1324 179.212 24.1885L177.38 23.384L175.549 22.5795C173.57 27.0836 172.596 32.0335 172.596 37.4H174.596ZM177.38 23.384L179.206 24.2013C181.017 20.1554 183.516 16.6661 186.706 13.7165L185.348 12.248L183.991 10.7795C180.397 14.1019 177.584 18.0366 175.555 22.5667L177.38 23.384ZM185.348 12.248L186.721 13.7028C189.909 10.6952 193.678 8.36855 198.051 6.72866L197.348 4.856L196.646 2.98334C191.803 4.79944 187.572 7.40076 183.976 10.7932L185.348 12.248ZM197.348 4.856L198.042 6.73181C202.473 5.09319 207.291 4.264 212.517 4.264V2.264V0.263998C206.862 0.263998 201.568 1.16281 196.655 2.98019L197.348 4.856ZM212.517 2.264V4.264C217.809 4.264 222.624 5.09424 226.982 6.72866L227.685 4.856L228.387 2.98334C223.529 1.16176 218.232 0.263998 212.517 0.263998V2.264ZM227.685 4.856L226.982 6.72866C231.355 8.36855 235.124 10.6952 238.312 13.7028L239.685 12.248L241.057 10.7932C237.461 7.40076 233.23 4.79944 228.387 2.98334L227.685 4.856ZM239.685 12.248L238.327 13.7165C241.512 16.6613 243.974 20.1429 245.721 24.1784L247.557 23.384L249.392 22.5896C247.427 18.0491 244.641 14.1067 241.042 10.7794L239.685 12.248ZM247.557 23.384L245.736 24.2116C247.526 28.1499 248.436 32.5357 248.436 37.4H250.436H252.436C252.436 32.0243 251.427 27.0661 249.377 22.5564L247.557 23.384ZM250.436 37.4H248.436C248.436 42.1961 247.527 46.5869 245.731 50.5987L247.557 51.416L249.382 52.2333C251.426 47.6691 252.436 42.7159 252.436 37.4H250.436ZM247.557 51.416L245.721 50.6216C243.973 54.6608 241.506 58.18 238.312 61.1932L239.685 62.648L241.057 64.1028C244.647 60.716 247.428 56.7472 249.392 52.2104L247.557 51.416ZM239.685 62.648L238.327 61.1795C235.137 64.1283 231.364 66.4283 226.982 68.0713L227.685 69.944L228.387 71.8167C233.221 70.0037 237.448 67.4397 241.042 64.1165L239.685 62.648ZM227.685 69.944L226.982 68.0713C222.624 69.7058 217.809 70.536 212.517 70.536V72.536V74.536C218.232 74.536 223.529 73.6382 228.387 71.8167L227.685 69.944ZM212.517 54.2V56.2C214.877 56.2 217.099 55.7696 219.16 54.8863L218.372 53.048L217.585 51.2097C216.062 51.8624 214.38 52.2 212.517 52.2V54.2ZM218.372 53.048L219.137 54.896C221.242 54.025 223.077 52.7809 224.619 51.1649L223.173 49.784L221.726 48.403C220.58 49.6031 219.215 50.535 217.608 51.2L218.372 53.048ZM223.173 49.784L224.618 51.1664C226.226 49.4849 227.453 47.4886 228.309 45.2062L226.436 44.504L224.564 43.8018C223.884 45.6154 222.935 47.1391 221.727 48.4016L223.173 49.784ZM226.436 44.504L228.316 45.1875C229.176 42.8231 229.589 40.2188 229.589 37.4H227.589H225.589C225.589 39.8292 225.233 41.9609 224.557 43.8205L226.436 44.504ZM227.589 37.4H229.589C229.589 34.5828 229.176 32.0022 228.309 29.6898L226.436 30.392L224.564 31.0942C225.233 32.8778 225.589 34.9692 225.589 37.4H227.589ZM226.436 30.392L228.316 29.7085C227.461 27.3573 226.226 25.3375 224.587 23.6978L223.173 25.112L221.758 26.5262C222.935 27.7025 223.876 29.2027 224.557 31.0755L226.436 30.392ZM223.173 25.112L224.649 23.7635C223.106 22.073 221.262 20.7833 219.137 19.904L218.372 21.752L217.608 23.6C219.195 24.2567 220.551 25.207 221.696 26.4605L223.173 25.112ZM218.372 21.752L219.16 19.9137C217.099 19.0304 214.877 18.6 212.517 18.6V20.6V22.6C214.38 22.6 216.062 22.9376 217.585 23.5903L218.372 21.752ZM212.517 20.6V18.6C210.156 18.6 207.911 19.0305 205.8 19.904L206.564 21.752L207.329 23.6C208.93 22.9375 210.653 22.6 212.517 22.6V20.6ZM206.564 21.752L205.777 19.9137C203.726 20.7926 201.905 22.0718 200.319 23.7296L201.764 25.112L203.21 26.4944C204.44 25.2082 205.819 24.2474 207.352 23.5903L206.564 21.752ZM201.764 25.112L200.318 23.731C198.756 25.3677 197.565 27.3765 196.717 29.7085L198.596 30.392L200.476 31.0755C201.164 29.1835 202.085 27.6723 203.211 26.493L201.764 25.112ZM198.596 30.392L196.724 29.6898C195.857 32.0022 195.445 34.5828 195.445 37.4H197.445H199.445C199.445 34.9692 199.8 32.8778 200.469 31.0942L198.596 30.392ZM197.445 37.4H195.445C195.445 40.2188 195.857 42.8231 196.717 45.1875L198.596 44.504L200.476 43.8205C199.8 41.9609 199.445 39.8292 199.445 37.4H197.445ZM198.596 44.504L196.724 45.2062C197.573 47.4696 198.756 49.4548 200.288 51.1325L201.764 49.784L203.241 48.4355C202.085 47.1692 201.156 45.6344 200.469 43.8018L198.596 44.504ZM201.764 49.784L200.35 51.1982C201.934 52.7822 203.746 54.0159 205.777 54.8863L206.564 53.048L207.352 51.2097C205.799 50.5441 204.411 49.6018 203.179 48.3698L201.764 49.784ZM206.564 53.048L205.8 54.896C207.911 55.7695 210.156 56.2 212.517 56.2V54.2V52.2C210.653 52.2 208.93 51.8625 207.329 51.2L206.564 53.048ZM258.66 71H256.66V73H258.66V71ZM258.66 3.8V1.8H256.66V3.8H258.66ZM307.236 6.872L306.414 8.69538L306.423 8.69962L307.236 6.872ZM317.892 15.704L316.215 16.794L316.219 16.8004L316.223 16.8069L317.892 15.704ZM317.892 42.584L319.551 43.7L319.556 43.6935L319.56 43.6869L317.892 42.584ZM307.236 51.128L306.445 49.291L306.435 49.2951L307.236 51.128ZM271.236 54.104L269.878 52.6349L266.123 56.104H271.236V54.104ZM281.315 44.792H283.315V40.2216L279.958 43.3229L281.315 44.792ZM281.315 71V73H283.315V71H281.315ZM298.884 71L297.225 72.1184L297.82 73H298.884V71ZM282.371 46.52V44.52H278.61L280.713 47.6384L282.371 46.52ZM306.371 46.52L308.024 45.3927L307.428 44.52H306.371V46.52ZM323.076 71V73H326.861L324.728 69.8727L323.076 71ZM281.315 47.288L279.888 48.6888L283.315 52.1816V47.288H281.315ZM271.236 37.016V35.016H266.471L269.808 38.4168L271.236 37.016ZM296.483 34.904L295.132 33.4297L295.116 33.444L295.101 33.4587L296.483 34.904ZM296.483 23.384L295.101 24.8293L295.116 24.844L295.132 24.8583L296.483 23.384ZM271.236 21.272L269.808 19.8712L266.471 23.272H271.236V21.272ZM281.315 11H283.315V6.10641L279.888 9.59919L281.315 11ZM258.66 71H260.66V3.8H258.66H256.66V71H258.66ZM258.66 3.8V5.8H291.012V3.8V1.8H258.66V3.8ZM291.012 3.8V5.8C297.071 5.8 302.186 6.78976 306.414 8.69536L307.236 6.872L308.057 5.04863C303.197 2.85823 297.496 1.8 291.012 1.8V3.8ZM307.236 6.872L306.423 8.69962C310.715 10.607 313.951 13.3107 316.215 16.794L317.892 15.704L319.568 14.614C316.841 10.4173 312.972 7.23299 308.048 5.04437L307.236 6.872ZM317.892 15.704L316.223 16.8069C318.473 20.21 319.635 24.2936 319.635 29.144H321.635H323.635C323.635 23.6264 322.302 18.75 319.56 14.6011L317.892 15.704ZM321.635 29.144H319.635C319.635 33.9944 318.473 38.078 316.223 41.4811L317.892 42.584L319.56 43.6869C322.302 39.538 323.635 34.6616 323.635 29.144H321.635ZM317.892 42.584L316.232 41.468C313.976 44.8235 310.744 47.4399 306.445 49.291L307.236 51.128L308.026 52.965C312.943 50.8481 316.815 47.7685 319.551 43.7L317.892 42.584ZM307.236 51.128L306.435 49.2951C302.201 51.1438 297.078 52.104 291.012 52.104V54.104V56.104C297.489 56.104 303.182 55.0802 308.036 52.9609L307.236 51.128ZM291.012 54.104V52.104H271.236V54.104V56.104H291.012V54.104ZM271.236 54.104L272.593 55.5731L282.673 46.2611L281.315 44.792L279.958 43.3229L269.878 52.6349L271.236 54.104ZM281.315 44.792H279.315V71H281.315H283.315V44.792H281.315ZM281.315 71V69H258.66V71V73H281.315V71ZM298.884 71L300.542 69.8816L284.03 45.4016L282.371 46.52L280.713 47.6384L297.225 72.1184L298.884 71ZM282.371 46.52V48.52H306.371V46.52V44.52H282.371V46.52ZM306.371 46.52L304.719 47.6473L321.423 72.1273L323.076 71L324.728 69.8727L308.024 45.3927L306.371 46.52ZM323.076 71V69H298.884V71V73H323.076V71ZM281.315 47.288L282.743 45.8872L272.663 35.6152L271.236 37.016L269.808 38.4168L279.888 48.6888L281.315 47.288ZM271.236 37.016V39.016H289.572V37.016V35.016H271.236V37.016ZM289.572 37.016V39.016C292.953 39.016 295.864 38.2641 297.866 36.3493L296.483 34.904L295.101 33.4587C294.159 34.3599 292.462 35.016 289.572 35.016V37.016ZM296.483 34.904L297.835 36.3783C299.854 34.5273 300.788 32.034 300.788 29.144H298.788H296.788C296.788 31.118 296.185 32.4647 295.132 33.4297L296.483 34.904ZM298.788 29.144H300.788C300.788 26.254 299.854 23.7607 297.835 21.9097L296.483 23.384L295.132 24.8583C296.185 25.8233 296.788 27.17 296.788 29.144H298.788ZM296.483 23.384L297.866 21.9387C295.864 20.0239 292.953 19.272 289.572 19.272V21.272V23.272C292.462 23.272 294.159 23.9281 295.101 24.8293L296.483 23.384ZM289.572 21.272V19.272H271.236V21.272V23.272H289.572V21.272ZM271.236 21.272L272.663 22.6728L282.743 12.4008L281.315 11L279.888 9.59919L269.808 19.8712L271.236 21.272ZM281.315 11H279.315V47.288H281.315H283.315V11H281.315ZM330.191 71H328.191V73H330.191V71ZM330.191 3.8V1.8H328.191V3.8H330.191ZM348.815 3.8L350.52 2.75513L349.935 1.8H348.815V3.8ZM375.695 47.672V49.672H379.266L377.4 46.6271L375.695 47.672ZM365.903 47.672L364.184 46.6491L362.385 49.672H365.903V47.672ZM392.015 3.8V1.8H390.878L390.296 2.77709L392.015 3.8ZM410.639 3.8L412.639 3.79428L412.633 1.8H410.639V3.8ZM410.831 71V73H412.836L412.831 70.9943L410.831 71ZM390.191 71L388.191 71.0106L388.201 73H390.191V71ZM389.999 34.904V32.904H387.988L387.999 34.9146L389.999 34.904ZM393.263 34.904L394.982 35.9257L396.778 32.904H393.263V34.904ZM375.407 64.952V66.952H376.545L377.126 65.9737L375.407 64.952ZM365.423 64.952L363.723 66.0056L364.309 66.952H365.423V64.952ZM346.799 34.904V32.904H343.206L345.099 35.9576L346.799 34.904ZM350.831 34.904H352.831V32.904H350.831V34.904ZM350.831 71V73H352.831V71H350.831ZM330.191 71H332.191V3.8H330.191H328.191V71H330.191ZM330.191 3.8V5.8H348.815V3.8V1.8H330.191V3.8ZM348.815 3.8L347.109 4.84486L373.989 48.7169L375.695 47.672L377.4 46.6271L350.52 2.75513L348.815 3.8ZM375.695 47.672V45.672H365.903V47.672V49.672H375.695V47.672ZM365.903 47.672L367.621 48.6949L393.733 4.8229L392.015 3.8L390.296 2.77709L364.184 46.6491L365.903 47.672ZM392.015 3.8V5.8H410.639V3.8V1.8H392.015V3.8ZM410.639 3.8L408.639 3.80571L408.831 71.0057L410.831 71L412.831 70.9943L412.639 3.79428L410.639 3.8ZM410.831 71V69H390.191V71V73H410.831V71ZM390.191 71L392.191 70.9894L391.999 34.8934L389.999 34.904L387.999 34.9146L388.191 71.0106L390.191 71ZM389.999 34.904V36.904H393.263V34.904V32.904H389.999V34.904ZM393.263 34.904L391.543 33.8823L373.687 63.9303L375.407 64.952L377.126 65.9737L394.982 35.9257L393.263 34.904ZM375.407 64.952V62.952H365.423V64.952V66.952H375.407V64.952ZM365.423 64.952L367.123 63.8984L348.499 33.8504L346.799 34.904L345.099 35.9576L363.723 66.0056L365.423 64.952ZM346.799 34.904V36.904H350.831V34.904V32.904H346.799V34.904ZM350.831 34.904H348.831V71H350.831H352.831V34.904H350.831ZM350.831 71V69H330.191V71V73H350.831V71ZM414.488 71L412.656 70.1989L411.431 73H414.488V71ZM443.865 3.8V1.8H442.556L442.032 2.99891L443.865 3.8ZM466.137 3.8L467.969 2.99891L467.445 1.8H466.137V3.8ZM495.513 71V73H498.57L497.345 70.1989L495.513 71ZM472.089 71L470.222 71.7175L470.715 73H472.089V71ZM450.393 14.552V12.552H447.481L448.526 15.2695L450.393 14.552ZM459.224 14.552L461.091 15.2695L462.136 12.552H459.224V14.552ZM437.529 71V73H438.902L439.395 71.7175L437.529 71ZM431.961 59.288L430.075 58.6224L429.134 61.288H431.961V59.288ZM437.72 42.968V40.968H436.305L435.835 42.3024L437.72 42.968ZM468.633 42.968L470.518 42.3024L470.048 40.968H468.633V42.968ZM474.393 59.288V61.288H477.219L476.279 58.6224L474.393 59.288ZM414.488 71L416.321 71.8011L445.697 4.60108L443.865 3.8L442.032 2.99891L412.656 70.1989L414.488 71ZM443.865 3.8V5.8H466.137V3.8V1.8H443.865V3.8ZM466.137 3.8L464.304 4.60108L493.68 71.8011L495.513 71L497.345 70.1989L467.969 2.99891L466.137 3.8ZM495.513 71V69H472.089V71V73H495.513V71ZM472.089 71L473.955 70.2825L452.259 13.8345L450.393 14.552L448.526 15.2695L470.222 71.7175L472.089 71ZM450.393 14.552V16.552H459.224V14.552V12.552H450.393V14.552ZM459.224 14.552L457.358 13.8345L435.662 70.2825L437.529 71L439.395 71.7175L461.091 15.2695L459.224 14.552ZM437.529 71V69H414.488V71V73H437.529V71ZM431.961 59.288L433.846 59.9536L439.606 43.6336L437.72 42.968L435.835 42.3024L430.075 58.6224L431.961 59.288ZM437.72 42.968V44.968H468.633V42.968V40.968H437.72V42.968ZM468.633 42.968L466.747 43.6336L472.507 59.9536L474.393 59.288L476.279 58.6224L470.518 42.3024L468.633 42.968ZM474.393 59.288V57.288H431.961V59.288V61.288H474.393V59.288ZM499.128 71H497.128V73H499.128V71ZM499.128 3.8V1.8H497.128V3.8H499.128ZM517.752 3.8L519.287 2.5175L518.687 1.8H517.752V3.8ZM551.928 44.696V46.696H556.206L553.463 43.4135L551.928 44.696ZM543.288 44.696H541.288V46.696H543.288V44.696ZM543.288 3.8V1.8H541.288V3.8H543.288ZM565.368 3.8H567.368V1.8H565.368V3.8ZM565.368 71V73H567.368V71H565.368ZM546.744 71L545.21 72.2825L545.809 73H546.744V71ZM512.568 30.104V28.104H508.29L511.034 31.3865L512.568 30.104ZM521.208 30.104H523.208V28.104H521.208V30.104ZM521.208 71V73H523.208V71H521.208ZM499.128 71H501.128V3.8H499.128H497.128V71H499.128ZM499.128 3.8V5.8H517.752V3.8V1.8H499.128V3.8ZM517.752 3.8L516.218 5.08249L550.394 45.9785L551.928 44.696L553.463 43.4135L519.287 2.5175L517.752 3.8ZM551.928 44.696V42.696H543.288V44.696V46.696H551.928V44.696ZM543.288 44.696H545.288V3.8H543.288H541.288V44.696H543.288ZM543.288 3.8V5.8H565.368V3.8V1.8H543.288V3.8ZM565.368 3.8H563.368V71H565.368H567.368V3.8H565.368ZM565.368 71V69H546.744V71V73H565.368V71ZM546.744 71L548.279 69.7175L514.103 28.8215L512.568 30.104L511.034 31.3865L545.21 72.2825L546.744 71ZM512.568 30.104V32.104H521.208V30.104V28.104H512.568V30.104ZM521.208 30.104H519.208V71H521.208H523.208V30.104H521.208ZM521.208 71V69H499.128V71V73H521.208V71ZM576.284 71H574.284V73H576.284V71ZM576.284 3.8V1.8H574.284V3.8H576.284ZM629.18 7.928L628.31 9.72883L628.319 9.73281L628.327 9.73672L629.18 7.928ZM642.524 19.448L640.841 20.5273L642.524 19.448ZM642.524 55.352L644.208 56.4314L644.214 56.4216L642.524 55.352ZM629.18 66.968L630.034 68.7767L630.042 68.7728L630.051 68.7688L629.18 66.968ZM598.94 53.336H596.94V55.336H598.94V53.336ZM616.797 51.512L615.902 49.7231L615.892 49.728L615.883 49.7329L616.797 51.512ZM622.461 46.136L624.2 47.1232L624.206 47.1133L624.211 47.1034L622.461 46.136ZM622.461 28.664L624.2 27.6768L622.461 28.664ZM616.797 23.288L615.883 25.0671L615.892 25.072L615.902 25.0769L616.797 23.288ZM598.94 21.464V19.464H596.94V21.464H598.94ZM576.284 71H578.284V3.8H576.284H574.284V71H576.284ZM576.284 3.8V5.8H609.404V3.8V1.8H576.284V3.8ZM609.404 3.8V5.8C616.646 5.8 622.931 7.12986 628.31 9.72883L629.18 7.928L630.051 6.12717C624.038 3.22213 617.139 1.8 609.404 1.8V3.8ZM629.18 7.928L628.327 9.73672C633.705 12.2748 637.856 15.8716 640.841 20.5273L642.524 19.448L644.208 18.3687C640.793 13.0404 636.048 8.95719 630.034 6.11928L629.18 7.928ZM642.524 19.448L640.841 20.5273C643.802 25.1468 645.325 30.71 645.325 37.304H647.325H649.325C649.325 30.074 647.647 23.7332 644.208 18.3687L642.524 19.448ZM647.325 37.304H645.325C645.325 43.9653 643.8 49.5965 640.835 54.2824L642.524 55.352L644.214 56.4216C647.649 50.9955 649.325 44.5947 649.325 37.304H647.325ZM642.524 55.352L640.841 54.2727C637.854 58.9327 633.697 62.5647 628.31 65.1672L629.18 66.968L630.051 68.7688C636.056 65.8673 640.795 61.7553 644.208 56.4313L642.524 55.352ZM629.18 66.968L628.327 65.1593C622.944 67.6997 616.652 69 609.404 69V71V73C617.133 73 624.025 71.6123 630.034 68.7767L629.18 66.968ZM609.404 71V69H576.284V71V73H609.404V71ZM598.94 53.336V55.336H608.445V53.336V51.336H598.94V53.336ZM608.445 53.336V55.336C611.899 55.336 615.008 54.6788 617.71 53.2911L616.797 51.512L615.883 49.7329C613.849 50.7772 611.39 51.336 608.445 51.336V53.336ZM616.797 51.512L617.691 53.3008C620.478 51.9071 622.66 49.8358 624.2 47.1232L622.461 46.136L620.721 45.1488C619.573 47.1722 617.979 48.6849 615.902 49.7231L616.797 51.512ZM622.461 46.136L624.211 47.1034C625.754 44.3114 626.477 41.017 626.477 37.304H624.477H622.477C622.477 40.503 621.855 43.0966 620.71 45.1686L622.461 46.136ZM624.477 37.304H626.477C626.477 33.6499 625.752 30.4112 624.2 27.6768L622.461 28.664L620.721 29.6512C621.857 31.6527 622.477 34.1741 622.477 37.304H624.477ZM622.461 28.664L624.2 27.6768C622.66 24.9642 620.478 22.8929 617.691 21.4991L616.797 23.288L615.902 25.0769C617.979 26.1151 619.573 27.6278 620.721 29.6512L622.461 28.664ZM616.797 23.288L617.71 21.5089C615.008 20.1212 611.899 19.464 608.445 19.464V21.464V23.464C611.39 23.464 613.849 24.0228 615.883 25.0671L616.797 23.288ZM608.445 21.464V19.464H598.94V21.464V23.464H608.445V21.464ZM598.94 21.464H596.94V53.336H598.94H600.94V21.464H598.94ZM675.661 69.944L674.959 71.8167L674.967 71.8198L675.661 69.944ZM663.661 62.648L662.289 64.1028L662.296 64.1097L662.303 64.1165L663.661 62.648ZM655.693 51.416L653.858 52.2104L653.863 52.2219L653.868 52.2333L655.693 51.416ZM655.693 23.384L653.868 22.5666L653.862 22.5795L655.693 23.384ZM663.661 12.248L665.019 13.7165L665.026 13.7097L665.033 13.7028L663.661 12.248ZM675.661 4.856L674.967 2.98017L674.959 2.98334L675.661 4.856ZM705.997 4.856L705.295 6.72866V6.72866L705.997 4.856ZM717.997 12.248L716.625 13.7028L716.632 13.7097L716.639 13.7165L717.997 12.248ZM725.869 23.384L724.034 24.1784L724.041 24.1951L724.048 24.2116L725.869 23.384ZM725.869 51.416L724.044 50.5987L724.039 50.6101L724.034 50.6216L725.869 51.416ZM717.997 62.648L719.355 64.1165L719.362 64.1097L719.369 64.1028L717.997 62.648ZM705.997 69.944L705.295 68.0713L705.997 69.944ZM696.685 53.048L695.92 51.2L695.909 51.2048L695.897 51.2097L696.685 53.048ZM701.485 49.784L700.04 48.4016L700.038 48.403L701.485 49.784ZM704.749 44.504L706.622 45.2062L706.625 45.1969L706.629 45.1875L704.749 44.504ZM704.749 30.392L702.869 31.0755L702.873 31.0849L702.876 31.0942L704.749 30.392ZM701.485 25.112L700.008 26.4605L700.039 26.4941L700.071 26.5262L701.485 25.112ZM696.685 21.752L695.897 23.5903L695.909 23.5952L695.92 23.6L696.685 21.752ZM684.877 21.752L684.112 19.904L684.101 19.9088L684.089 19.9137L684.877 21.752ZM680.077 25.112L678.632 23.7296L678.63 23.731L680.077 25.112ZM676.909 30.392L678.782 31.0942L678.785 31.0849L678.789 31.0755L676.909 30.392ZM676.909 44.504L675.029 45.1875L675.033 45.1969L675.036 45.2062L676.909 44.504ZM680.077 49.784L678.6 51.1325L678.631 51.1661L678.663 51.1982L680.077 49.784ZM684.877 53.048L684.089 54.8863L684.101 54.8912L684.112 54.896L684.877 53.048ZM690.829 72.536V70.536C685.604 70.536 680.785 69.7068 676.355 68.0682L675.661 69.944L674.967 71.8198C679.881 73.6372 685.174 74.536 690.829 74.536V72.536ZM675.661 69.944L676.363 68.0713C671.982 66.4283 668.208 64.1283 665.019 61.1795L663.661 62.648L662.303 64.1165C665.898 67.4397 670.124 70.0037 674.959 71.8167L675.661 69.944ZM663.661 62.648L665.033 61.1932C661.834 58.1752 659.332 54.6483 657.518 50.5987L655.693 51.416L653.868 52.2333C655.894 56.7597 658.704 60.7208 662.289 64.1028L663.661 62.648ZM655.693 51.416L657.528 50.6216C655.79 46.6043 654.909 42.2054 654.909 37.4H652.909H650.909C650.909 42.7066 651.884 47.6516 653.858 52.2104L655.693 51.416ZM652.909 37.4H654.909C654.909 32.5265 655.791 28.1324 657.524 24.1885L655.693 23.384L653.862 22.5795C651.883 27.0836 650.909 32.0335 650.909 37.4H652.909ZM655.693 23.384L657.518 24.2013C659.33 20.1554 661.828 16.6661 665.019 13.7165L663.661 12.248L662.303 10.7795C658.71 14.1019 655.896 18.0366 653.868 22.5667L655.693 23.384ZM663.661 12.248L665.033 13.7028C668.221 10.6952 671.99 8.36855 676.363 6.72866L675.661 4.856L674.959 2.98334C670.116 4.79944 665.885 7.40076 662.289 10.7932L663.661 12.248ZM675.661 4.856L676.355 6.73181C680.785 5.09319 685.604 4.264 690.829 4.264V2.264V0.263998C685.174 0.263998 679.881 1.16281 674.967 2.98019L675.661 4.856ZM690.829 2.264V4.264C696.121 4.264 700.936 5.09424 705.295 6.72866L705.997 4.856L706.699 2.98334C701.842 1.16176 696.545 0.263998 690.829 0.263998V2.264ZM705.997 4.856L705.295 6.72866C709.668 8.36855 713.437 10.6952 716.625 13.7028L717.997 12.248L719.369 10.7932C715.773 7.40076 711.542 4.79944 706.699 2.98334L705.997 4.856ZM717.997 12.248L716.639 13.7165C719.824 16.6613 722.287 20.1429 724.034 24.1784L725.869 23.384L727.704 22.5896C725.739 18.0491 722.954 14.1067 719.355 10.7794L717.997 12.248ZM725.869 23.384L724.048 24.2116C725.838 28.1499 726.749 32.5357 726.749 37.4H728.749H730.749C730.749 32.0243 729.74 27.0661 727.69 22.5564L725.869 23.384ZM728.749 37.4H726.749C726.749 42.1961 725.84 46.5869 724.044 50.5987L725.869 51.416L727.694 52.2333C729.738 47.6691 730.749 42.7159 730.749 37.4H728.749ZM725.869 51.416L724.034 50.6216C722.285 54.6608 719.819 58.18 716.625 61.1932L717.997 62.648L719.369 64.1028C722.959 60.716 725.741 56.7472 727.704 52.2104L725.869 51.416ZM717.997 62.648L716.639 61.1795C713.45 64.1283 709.676 66.4283 705.295 68.0713L705.997 69.944L706.699 71.8167C711.534 70.0037 715.76 67.4397 719.355 64.1165L717.997 62.648ZM705.997 69.944L705.295 68.0713C700.936 69.7058 696.121 70.536 690.829 70.536V72.536V74.536C696.545 74.536 701.842 73.6382 706.699 71.8167L705.997 69.944ZM690.829 54.2V56.2C693.189 56.2 695.412 55.7696 697.473 54.8863L696.685 53.048L695.897 51.2097C694.374 51.8624 692.693 52.2 690.829 52.2V54.2ZM696.685 53.048L697.45 54.896C699.555 54.025 701.389 52.7809 702.932 51.1649L701.485 49.784L700.038 48.403C698.893 49.6031 697.527 50.535 695.92 51.2L696.685 53.048ZM701.485 49.784L702.93 51.1664C704.539 49.4849 705.766 47.4886 706.622 45.2062L704.749 44.504L702.876 43.8018C702.196 45.6154 701.247 47.1391 700.04 48.4016L701.485 49.784ZM704.749 44.504L706.629 45.1875C707.488 42.8231 707.901 40.2188 707.901 37.4H705.901H703.901C703.901 39.8292 703.546 41.9609 702.869 43.8205L704.749 44.504ZM705.901 37.4H707.901C707.901 34.5828 707.489 32.0022 706.622 29.6898L704.749 30.392L702.876 31.0942C703.545 32.8778 703.901 34.9692 703.901 37.4H705.901ZM704.749 30.392L706.629 29.7085C705.774 27.3573 704.539 25.3375 702.899 23.6978L701.485 25.112L700.071 26.5262C701.247 27.7025 702.188 29.2027 702.869 31.0755L704.749 30.392ZM701.485 25.112L702.962 23.7635C701.419 22.073 699.575 20.7833 697.45 19.904L696.685 21.752L695.92 23.6C697.507 24.2567 698.864 25.207 700.008 26.4605L701.485 25.112ZM696.685 21.752L697.473 19.9137C695.412 19.0304 693.189 18.6 690.829 18.6V20.6V22.6C692.693 22.6 694.374 22.9376 695.897 23.5903L696.685 21.752ZM690.829 20.6V18.6C688.468 18.6 686.223 19.0305 684.112 19.904L684.877 21.752L685.642 23.6C687.243 22.9375 688.966 22.6 690.829 22.6V20.6ZM684.877 21.752L684.089 19.9137C682.039 20.7926 680.217 22.0718 678.632 23.7296L680.077 25.112L681.522 26.4944C682.753 25.2082 684.132 24.2474 685.665 23.5903L684.877 21.752ZM680.077 25.112L678.63 23.731C677.068 25.3677 675.877 27.3765 675.029 29.7085L676.909 30.392L678.789 31.0755C679.477 29.1835 680.398 27.6723 681.524 26.493L680.077 25.112ZM676.909 30.392L675.036 29.6898C674.169 32.0022 673.757 34.5828 673.757 37.4H675.757H677.757C677.757 34.9692 678.113 32.8778 678.782 31.0942L676.909 30.392ZM675.757 37.4H673.757C673.757 40.2188 674.17 42.8231 675.029 45.1875L676.909 44.504L678.789 43.8205C678.112 41.9609 677.757 39.8292 677.757 37.4H675.757ZM676.909 44.504L675.036 45.2062C675.885 47.4696 677.068 49.4548 678.6 51.1325L680.077 49.784L681.554 48.4355C680.398 47.1692 679.469 45.6344 678.782 43.8018L676.909 44.504ZM680.077 49.784L678.663 51.1982C680.247 52.7822 682.058 54.0159 684.089 54.8863L684.877 53.048L685.665 51.2097C684.112 50.5441 682.723 49.6018 681.491 48.3698L680.077 49.784ZM684.877 53.048L684.112 54.896C686.223 55.7695 688.468 56.2 690.829 56.2V54.2V52.2C688.966 52.2 687.243 51.8625 685.642 51.2L684.877 53.048ZM2.25325 160H0.25325V162H2.25325V160ZM2.25325 92.8V90.8H0.25325V92.8H2.25325ZM24.9093 92.8H26.9092V90.8H24.9093V92.8ZM24.9093 142.432H22.9093V144.432H24.9093V142.432ZM55.2453 142.432H57.2453V140.432H55.2453V142.432ZM55.2453 160V162H57.2453V160H55.2453ZM2.25325 160H4.25325V92.8H2.25325H0.25325V160H2.25325ZM2.25325 92.8V94.8H24.9093V92.8V90.8H2.25325V92.8ZM24.9093 92.8H22.9093V142.432H24.9093H26.9092V92.8H24.9093ZM24.9093 142.432V144.432H55.2453V142.432V140.432H24.9093V142.432ZM55.2453 142.432H53.2453V160H55.2453H57.2453V142.432H55.2453ZM55.2453 160V158H2.25325V160V162H55.2453V160ZM61.5033 160H59.5033V162H61.5033V160ZM61.5033 92.8V90.8H59.5033V92.8H61.5033ZM84.1592 92.8H86.1592V90.8H84.1592V92.8ZM84.1592 160V162H86.1592V160H84.1592ZM62.7513 87.328L61.2085 86.0552L58.5085 89.328H62.7513V87.328ZM75.4232 71.968V69.968H74.4805L73.8805 70.6952L75.4232 71.968ZM96.0632 71.968L97.3241 73.5205L101.698 69.968H96.0632V71.968ZM77.1513 87.328V89.328H77.8611L78.4121 88.8805L77.1513 87.328ZM61.5033 160H63.5033V92.8H61.5033H59.5033V160H61.5033ZM61.5033 92.8V94.8H84.1592V92.8V90.8H61.5033V92.8ZM84.1592 92.8H82.1592V160H84.1592H86.1592V92.8H84.1592ZM84.1592 160V158H61.5033V160V162H84.1592V160ZM62.7513 87.328L64.294 88.6008L76.966 73.2408L75.4232 71.968L73.8805 70.6952L61.2085 86.0552L62.7513 87.328ZM75.4232 71.968V73.968H96.0632V71.968V69.968H75.4232V71.968ZM96.0632 71.968L94.8024 70.4155L75.8904 85.7755L77.1513 87.328L78.4121 88.8805L97.3241 73.5205L96.0632 71.968ZM77.1513 87.328V85.328H62.7513V87.328V89.328H77.1513V87.328ZM95.0658 160H93.0658V162H95.0658V160ZM95.0658 92.8V90.8H93.0658V92.8H95.0658ZM147.962 96.928L147.092 98.7288L147.1 98.7328L147.108 98.7367L147.962 96.928ZM161.306 108.448L159.622 109.527L161.306 108.448ZM161.306 144.352L162.99 145.431L162.996 145.422L161.306 144.352ZM147.962 155.968L148.815 157.777L148.824 157.773L148.832 157.769L147.962 155.968ZM117.722 142.336H115.722V144.336H117.722V142.336ZM135.578 140.512L134.683 138.723L134.674 138.728L134.664 138.733L135.578 140.512ZM141.242 135.136L142.981 136.123L142.987 136.113L142.992 136.103L141.242 135.136ZM141.242 117.664L142.981 116.677L141.242 117.664ZM135.578 112.288L134.664 114.067L134.674 114.072L134.683 114.077L135.578 112.288ZM117.722 110.464V108.464H115.722V110.464H117.722ZM95.0658 160H97.0658V92.8H95.0658H93.0658V160H95.0658ZM95.0658 92.8V94.8H128.186V92.8V90.8H95.0658V92.8ZM128.186 92.8V94.8C135.427 94.8 141.712 96.1299 147.092 98.7288L147.962 96.928L148.832 95.1272C142.819 92.2221 135.92 90.8 128.186 90.8V92.8ZM147.962 96.928L147.108 98.7367C152.487 101.275 156.638 104.872 159.622 109.527L161.306 108.448L162.99 107.369C159.574 102.04 154.829 97.9572 148.815 95.1193L147.962 96.928ZM161.306 108.448L159.622 109.527C162.583 114.147 164.106 119.71 164.106 126.304H166.106H168.106C168.106 119.074 166.428 112.733 162.99 107.369L161.306 108.448ZM166.106 126.304H164.106C164.106 132.965 162.582 138.596 159.616 143.282L161.306 144.352L162.996 145.422C166.43 139.996 168.106 133.595 168.106 126.304H166.106ZM161.306 144.352L159.622 143.273C156.635 147.933 152.478 151.565 147.092 154.167L147.962 155.968L148.832 157.769C154.837 154.867 159.577 150.755 162.99 145.431L161.306 144.352ZM147.962 155.968L147.108 154.159C141.725 156.7 135.434 158 128.186 158V160V162C135.914 162 142.807 160.612 148.815 157.777L147.962 155.968ZM128.186 160V158H95.0658V160V162H128.186V160ZM117.722 142.336V144.336H127.226V142.336V140.336H117.722V142.336ZM127.226 142.336V144.336C130.68 144.336 133.789 143.679 136.491 142.291L135.578 140.512L134.664 138.733C132.63 139.777 130.172 140.336 127.226 140.336V142.336ZM135.578 140.512L136.472 142.301C139.26 140.907 141.442 138.836 142.981 136.123L141.242 135.136L139.502 134.149C138.354 136.172 136.76 137.685 134.683 138.723L135.578 140.512ZM141.242 135.136L142.992 136.103C144.535 133.311 145.258 130.017 145.258 126.304H143.258H141.258C141.258 129.503 140.636 132.097 139.491 134.169L141.242 135.136ZM143.258 126.304H145.258C145.258 122.65 144.533 119.411 142.981 116.677L141.242 117.664L139.502 118.651C140.638 120.653 141.258 123.174 141.258 126.304H143.258ZM141.242 117.664L142.981 116.677C141.442 113.964 139.26 111.893 136.472 110.499L135.578 112.288L134.683 114.077C136.76 115.115 138.354 116.628 139.502 118.651L141.242 117.664ZM135.578 112.288L136.491 110.509C133.789 109.121 130.68 108.464 127.226 108.464V110.464V112.464C130.172 112.464 132.63 113.023 134.664 114.067L135.578 112.288ZM127.226 110.464V108.464H117.722V110.464V112.464H127.226V110.464ZM117.722 110.464H115.722V142.336H117.722H119.722V110.464H117.722ZM195.114 117.76V115.76H193.114V117.76H195.114ZM225.066 117.76H227.066V115.76H225.066V117.76ZM225.066 134.08V136.08H227.066V134.08H225.066ZM195.114 134.08H193.114V136.08H195.114V134.08ZM196.65 142.912H194.65V144.912H196.65V142.912ZM230.25 142.912H232.25V140.912H230.25V142.912ZM230.25 160V162H232.25V160H230.25ZM174.378 160H172.378V162H174.378V160ZM174.378 92.8V90.8H172.378V92.8H174.378ZM229.002 92.8H231.002V90.8H229.002V92.8ZM229.002 109.888V111.888H231.002V109.888H229.002ZM196.65 109.888V107.888H194.65V109.888H196.65ZM195.114 117.76V119.76H225.066V117.76V115.76H195.114V117.76ZM225.066 117.76H223.066V134.08H225.066H227.066V117.76H225.066ZM225.066 134.08V132.08H195.114V134.08V136.08H225.066V134.08ZM195.114 134.08H197.114V117.76H195.114H193.114V134.08H195.114ZM196.65 142.912V144.912H230.25V142.912V140.912H196.65V142.912ZM230.25 142.912H228.25V160H230.25H232.25V142.912H230.25ZM230.25 160V158H174.378V160V162H230.25V160ZM174.378 160H176.378V92.8H174.378H172.378V160H174.378ZM174.378 92.8V94.8H229.002V92.8V90.8H174.378V92.8ZM229.002 92.8H227.002V109.888H229.002H231.002V92.8H229.002ZM229.002 109.888V107.888H196.65V109.888V111.888H229.002V109.888ZM196.65 109.888H194.65V142.912H196.65H198.65V109.888H196.65ZM238.972 160H236.972V162H238.972V160ZM238.972 92.8V90.8H236.972V92.8H238.972ZM287.548 95.872L286.726 97.6954L286.736 97.6996L287.548 95.872ZM298.204 104.704L296.527 105.794L296.531 105.8L296.536 105.807L298.204 104.704ZM298.204 131.584L299.864 132.7L299.868 132.693L299.872 132.687L298.204 131.584ZM287.548 140.128L286.757 138.291L286.748 138.295L287.548 140.128ZM251.548 143.104L250.191 141.635L246.436 145.104H251.548V143.104ZM261.628 133.792H263.628V129.222L260.271 132.323L261.628 133.792ZM261.628 160V162H263.628V160H261.628ZM279.196 160L277.538 161.118L278.133 162H279.196V160ZM262.684 135.52V133.52H258.923L261.026 136.638L262.684 135.52ZM286.684 135.52L288.336 134.393L287.741 133.52H286.684V135.52ZM303.388 160V162H307.174L305.04 158.873L303.388 160ZM261.628 136.288L260.201 137.689L263.628 141.182V136.288H261.628ZM251.548 126.016V124.016H246.783L250.121 127.417L251.548 126.016ZM276.796 123.904L275.445 122.43L275.429 122.444L275.414 122.459L276.796 123.904ZM276.796 112.384L275.414 113.829L275.429 113.844L275.445 113.858L276.796 112.384ZM251.548 110.272L250.121 108.871L246.783 112.272H251.548V110.272ZM261.628 100H263.628V95.1064L260.201 98.5992L261.628 100ZM238.972 160H240.972V92.8H238.972H236.972V160H238.972ZM238.972 92.8V94.8H271.324V92.8V90.8H238.972V92.8ZM271.324 92.8V94.8C277.384 94.8 282.498 95.7898 286.726 97.6954L287.548 95.872L288.37 94.0486C283.51 91.8582 277.808 90.8 271.324 90.8V92.8ZM287.548 95.872L286.736 97.6996C291.027 99.607 294.263 102.311 296.527 105.794L298.204 104.704L299.881 103.614C297.153 99.4173 293.285 96.233 288.36 94.0444L287.548 95.872ZM298.204 104.704L296.536 105.807C298.785 109.21 299.948 113.294 299.948 118.144H301.948H303.948C303.948 112.626 302.615 107.75 299.872 103.601L298.204 104.704ZM301.948 118.144H299.948C299.948 122.994 298.785 127.078 296.536 130.481L298.204 131.584L299.872 132.687C302.615 128.538 303.948 123.662 303.948 118.144H301.948ZM298.204 131.584L296.544 130.468C294.288 133.823 291.057 136.44 286.757 138.291L287.548 140.128L288.339 141.965C293.255 139.848 297.128 136.769 299.864 132.7L298.204 131.584ZM287.548 140.128L286.748 138.295C282.514 140.144 277.391 141.104 271.324 141.104V143.104V145.104C277.801 145.104 283.494 144.08 288.348 141.961L287.548 140.128ZM271.324 143.104V141.104H251.548V143.104V145.104H271.324V143.104ZM251.548 143.104L252.905 144.573L262.985 135.261L261.628 133.792L260.271 132.323L250.191 141.635L251.548 143.104ZM261.628 133.792H259.628V160H261.628H263.628V133.792H261.628ZM261.628 160V158H238.972V160V162H261.628V160ZM279.196 160L280.854 158.882L264.342 134.402L262.684 135.52L261.026 136.638L277.538 161.118L279.196 160ZM262.684 135.52V137.52H286.684V135.52V133.52H262.684V135.52ZM286.684 135.52L285.032 136.647L301.736 161.127L303.388 160L305.04 158.873L288.336 134.393L286.684 135.52ZM303.388 160V158H279.196V160V162H303.388V160ZM261.628 136.288L263.055 134.887L252.975 124.615L251.548 126.016L250.121 127.417L260.201 137.689L261.628 136.288ZM251.548 126.016V128.016H269.884V126.016V124.016H251.548V126.016ZM269.884 126.016V128.016C273.265 128.016 276.177 127.264 278.178 125.349L276.796 123.904L275.414 122.459C274.471 123.36 272.775 124.016 269.884 124.016V126.016ZM276.796 123.904L278.147 125.378C280.167 123.527 281.1 121.034 281.1 118.144H279.1H277.1C277.1 120.118 276.497 121.465 275.445 122.43L276.796 123.904ZM279.1 118.144H281.1C281.1 115.254 280.167 112.761 278.147 110.91L276.796 112.384L275.445 113.858C276.497 114.823 277.1 116.17 277.1 118.144H279.1ZM276.796 112.384L278.178 110.939C276.177 109.024 273.265 108.272 269.884 108.272V110.272V112.272C272.775 112.272 274.471 112.928 275.414 113.829L276.796 112.384ZM269.884 110.272V108.272H251.548V110.272V112.272H269.884V110.272ZM251.548 110.272L252.975 111.673L263.055 101.401L261.628 100L260.201 98.5992L250.121 108.871L251.548 110.272ZM261.628 100H259.628V136.288H261.628H263.628V100H261.628ZM331.239 117.76V115.76H329.239V117.76H331.239ZM361.191 117.76H363.191V115.76H361.191V117.76ZM361.191 134.08V136.08H363.191V134.08H361.191ZM331.239 134.08H329.239V136.08H331.239V134.08ZM332.775 142.912H330.775V144.912H332.775V142.912ZM366.375 142.912H368.375V140.912H366.375V142.912ZM366.375 160V162H368.375V160H366.375ZM310.503 160H308.503V162H310.503V160ZM310.503 92.8V90.8H308.503V92.8H310.503ZM365.127 92.8H367.127V90.8H365.127V92.8ZM365.127 109.888V111.888H367.127V109.888H365.127ZM332.775 109.888V107.888H330.775V109.888H332.775ZM331.239 117.76V119.76H361.191V117.76V115.76H331.239V117.76ZM361.191 117.76H359.191V134.08H361.191H363.191V117.76H361.191ZM361.191 134.08V132.08H331.239V134.08V136.08H361.191V134.08ZM331.239 134.08H333.239V117.76H331.239H329.239V134.08H331.239ZM332.775 142.912V144.912H366.375V142.912V140.912H332.775V142.912ZM366.375 142.912H364.375V160H366.375H368.375V142.912H366.375ZM366.375 160V158H310.503V160V162H366.375V160ZM310.503 160H312.503V92.8H310.503H308.503V160H310.503ZM310.503 92.8V94.8H365.127V92.8V90.8H310.503V92.8ZM365.127 92.8H363.127V109.888H365.127H367.127V92.8H365.127ZM365.127 109.888V107.888H332.775V109.888V111.888H365.127V109.888ZM332.775 109.888H330.775V142.912H332.775H334.775V109.888H332.775ZM383.833 159.616L384.307 157.673L383.833 159.616ZM370.873 154.624L369.044 153.816L368.332 155.426L369.839 156.336L370.873 154.624ZM378.169 138.112L379.172 136.382L377.242 135.262L376.34 137.304L378.169 138.112ZM388.825 142.624L388.259 144.542L388.277 144.548L388.296 144.553L388.825 142.624ZM405.433 143.872L405.845 145.829L405.882 145.821L405.918 145.812L405.433 143.872ZM408.217 142.624L409.546 144.119L409.59 144.08L409.631 144.038L408.217 142.624ZM407.065 137.728L406.137 139.5L407.065 137.728ZM401.689 136L401.231 137.947L401.264 137.955L401.297 137.961L401.689 136ZM394.489 134.464L394.06 136.417L394.083 136.423L394.106 136.427L394.489 134.464ZM386.521 132.256L385.875 134.149L385.882 134.151L385.889 134.153L386.521 132.256ZM379.225 128.704L378.104 130.361L378.115 130.368L378.127 130.375L379.225 128.704ZM373.945 122.944L372.195 123.911L372.2 123.921L372.206 123.931L373.945 122.944ZM375.385 102.592L373.735 101.462L373.731 101.468L375.385 102.592ZM385.849 94.336L385.046 92.5042L385.037 92.5084L385.849 94.336ZM416.665 92.704L416.24 94.6583L416.665 92.704ZM428.569 97.12L430.416 97.8869L431.096 96.2487L429.551 95.3777L428.569 97.12ZM421.753 113.536L420.859 115.325L422.777 116.284L423.6 114.303L421.753 113.536ZM412.057 109.792L411.534 111.722L411.544 111.725L412.057 109.792ZM397.849 109.12L397.274 107.204L397.849 109.12ZM395.065 110.656L393.578 109.318L393.54 109.361L393.503 109.407L395.065 110.656ZM396.313 115.552L395.385 117.324L395.419 117.341L395.453 117.358L396.313 115.552ZM401.593 117.184L401.19 119.143L401.201 119.145L401.593 117.184ZM408.889 118.624L408.506 120.587L408.515 120.589L408.889 118.624ZM416.857 120.736L416.211 122.629L416.857 120.736ZM424.057 124.288L422.936 125.945L422.947 125.952L422.959 125.959L424.057 124.288ZM429.433 130.048L427.694 131.035V131.035L429.433 130.048ZM427.897 150.208L426.247 149.078L426.243 149.084L427.897 150.208ZM417.529 158.464L418.341 160.292L418.352 160.287L418.362 160.282L417.529 158.464ZM400.153 161.536V159.536C394.674 159.536 389.393 158.914 384.307 157.673L383.833 159.616L383.359 161.559C388.769 162.878 394.368 163.536 400.153 163.536V161.536ZM383.833 159.616L384.307 157.673C379.19 156.425 375.075 154.825 371.907 152.912L370.873 154.624L369.839 156.336C373.455 158.519 377.98 160.247 383.359 161.559L383.833 159.616ZM370.873 154.624L372.702 155.432L379.998 138.92L378.169 138.112L376.34 137.304L369.044 153.816L370.873 154.624ZM378.169 138.112L377.166 139.842C380.516 141.786 384.217 143.35 388.259 144.542L388.825 142.624L389.391 140.706C385.625 139.594 382.222 138.15 379.172 136.382L378.169 138.112ZM388.825 142.624L388.296 144.553C392.418 145.683 396.436 146.256 400.345 146.256V144.256V142.256C396.83 142.256 393.168 141.741 389.354 140.695L388.825 142.624ZM400.345 144.256V146.256C402.573 146.256 404.429 146.127 405.845 145.829L405.433 143.872L405.021 141.915C404.005 142.129 402.469 142.256 400.345 142.256V144.256ZM405.433 143.872L405.918 145.812C407.317 145.462 408.614 144.947 409.546 144.119L408.217 142.624L406.888 141.129C406.668 141.325 406.109 141.641 404.948 141.932L405.433 143.872ZM408.217 142.624L409.631 144.038C410.557 143.112 411.081 141.941 411.081 140.608H409.081H407.081C407.081 140.811 407.029 140.984 406.803 141.21L408.217 142.624ZM409.081 140.608H411.081C411.081 138.452 409.802 136.904 407.993 135.956L407.065 137.728L406.137 139.5C407.016 139.96 407.081 140.332 407.081 140.608H409.081ZM407.065 137.728L407.993 135.956C406.418 135.131 404.424 134.507 402.081 134.039L401.689 136L401.297 137.961C403.434 138.389 405.024 138.917 406.137 139.5L407.065 137.728ZM401.689 136L402.147 134.053C399.942 133.534 397.516 133.017 394.872 132.501L394.489 134.464L394.106 136.427C396.71 136.935 399.084 137.442 401.231 137.947L401.689 136ZM394.489 134.464L394.918 132.511C392.366 131.95 389.778 131.234 387.153 130.359L386.521 132.256L385.889 134.153C388.64 135.07 391.364 135.826 394.06 136.417L394.489 134.464ZM386.521 132.256L387.167 130.363C384.697 129.52 382.418 128.409 380.323 127.033L379.225 128.704L378.127 130.375C380.512 131.943 383.097 133.2 385.875 134.149L386.521 132.256ZM379.225 128.704L380.346 127.047C378.434 125.754 376.882 124.067 375.684 121.957L373.945 122.944L372.206 123.931C373.696 126.557 375.664 128.71 378.104 130.361L379.225 128.704ZM373.945 122.944L375.695 121.977C374.556 119.914 373.929 117.261 373.929 113.92H371.929H369.929C369.929 117.747 370.646 121.11 372.195 123.911L373.945 122.944ZM371.929 113.92H373.929C373.929 110.155 374.964 106.771 377.039 103.716L375.385 102.592L373.731 101.468C371.198 105.197 369.929 109.365 369.929 113.92H371.929ZM375.385 102.592L377.035 103.722C379.155 100.629 382.322 98.092 386.661 96.1636L385.849 94.336L385.037 92.5084C380.16 94.6759 376.352 97.6431 373.735 101.462L375.385 102.592ZM385.849 94.336L386.652 96.1677C390.998 94.2626 396.497 93.264 403.225 93.264V91.264V89.264C396.129 89.264 390.044 90.3134 385.046 92.5043L385.849 94.336ZM403.225 91.264V93.264C407.627 93.264 411.965 93.7289 416.24 94.6583L416.665 92.704L417.09 90.7496C412.534 89.7591 407.911 89.264 403.225 89.264V91.264ZM416.665 92.704L416.24 94.6583C420.484 95.5809 424.26 96.9873 427.587 98.8623L428.569 97.12L429.551 95.3777C425.838 93.2847 421.678 91.7471 417.09 90.7496L416.665 92.704ZM428.569 97.12L426.722 96.3531L419.906 112.769L421.753 113.536L423.6 114.303L430.416 97.8869L428.569 97.12ZM421.753 113.536L422.647 111.747C419.215 110.031 415.855 108.73 412.57 107.859L412.057 109.792L411.544 111.725C414.531 112.518 417.635 113.713 420.859 115.325L421.753 113.536ZM412.057 109.792L412.58 107.862C409.351 106.987 406.167 106.544 403.033 106.544V108.544V110.544C405.787 110.544 408.619 110.933 411.534 111.722L412.057 109.792ZM403.033 108.544V106.544C400.768 106.544 398.82 106.741 397.274 107.204L397.849 109.12L398.424 111.036C399.438 110.731 400.946 110.544 403.033 110.544V108.544ZM397.849 109.12L397.274 107.204C395.821 107.64 394.5 108.294 393.578 109.318L395.065 110.656L396.552 111.994C396.782 111.738 397.317 111.368 398.424 111.036L397.849 109.12ZM395.065 110.656L393.503 109.407C392.728 110.376 392.297 111.514 392.297 112.768H394.297H396.297C396.297 112.486 396.378 112.216 396.627 111.905L395.065 110.656ZM394.297 112.768H392.297C392.297 114.904 393.625 116.402 395.385 117.324L396.313 115.552L397.241 113.78C396.313 113.294 396.297 112.936 396.297 112.768H394.297ZM396.313 115.552L395.453 117.358C396.995 118.092 398.925 118.677 401.19 119.143L401.593 117.184L401.996 115.225C399.909 114.795 398.319 114.292 397.173 113.746L396.313 115.552ZM401.593 117.184L401.201 119.145C403.444 119.594 405.879 120.074 408.506 120.587L408.889 118.624L409.272 116.661C406.651 116.15 404.222 115.67 401.985 115.223L401.593 117.184ZM408.889 118.624L408.515 120.589C411.109 121.083 413.674 121.763 416.211 122.629L416.857 120.736L417.503 118.843C414.792 117.917 412.045 117.189 409.263 116.659L408.889 118.624ZM416.857 120.736L416.211 122.629C418.676 123.471 420.915 124.577 422.936 125.945L424.057 124.288L425.178 122.631C422.847 121.055 420.286 119.793 417.503 118.843L416.857 120.736ZM424.057 124.288L422.959 125.959C424.929 127.255 426.504 128.938 427.694 131.035L429.433 130.048L431.172 129.061C429.674 126.422 427.665 124.265 425.155 122.617L424.057 124.288ZM429.433 130.048L427.694 131.035C428.824 133.027 429.449 135.607 429.449 138.88H431.449H433.449C433.449 135.113 432.73 131.805 431.172 129.061L429.433 130.048ZM431.449 138.88H429.449C429.449 142.563 428.393 145.946 426.247 149.078L427.897 150.208L429.547 151.338C432.137 147.558 433.449 143.389 433.449 138.88H431.449ZM427.897 150.208L426.243 149.084C424.187 152.11 421.05 154.65 416.696 156.646L417.529 158.464L418.362 160.282C423.224 158.054 426.999 155.09 429.551 151.332L427.897 150.208ZM417.529 158.464L416.717 156.636C412.443 158.536 406.95 159.536 400.153 159.536V161.536V163.536C407.308 163.536 413.399 162.488 418.341 160.292L417.529 158.464ZM486.748 159.04L486.037 160.909L486.053 160.915L486.069 160.921L486.748 159.04ZM474.844 151.744L473.472 153.2L473.479 153.206L473.486 153.213L474.844 151.744ZM467.068 140.608L465.233 141.402L467.068 140.608ZM467.068 112.192L465.233 111.398L467.068 112.192ZM474.844 101.056L473.486 99.5875L473.479 99.5939L473.472 99.6004L474.844 101.056ZM486.748 93.856L487.436 95.734L487.443 95.7314L487.45 95.7287L486.748 93.856ZM519.196 94.72L518.367 96.54L518.375 96.5438L519.196 94.72ZM531.868 104.704L533.2 106.196L534.583 104.962L533.457 103.489L531.868 104.704ZM517.564 117.472L515.998 118.716L517.316 120.374L518.896 118.964L517.564 117.472ZM510.94 111.712L509.918 113.431L509.945 113.447L509.973 113.462L510.94 111.712ZM496.444 110.752L497.187 112.609L496.444 110.752ZM491.452 114.112L490.007 112.73L489.991 112.746L489.975 112.763L491.452 114.112ZM488.284 119.488L490.157 120.19L490.16 120.181L490.164 120.171L488.284 119.488ZM488.284 133.408L486.404 134.091L486.408 134.101L486.411 134.11L488.284 133.408ZM491.452 138.688L489.975 140.037L489.991 140.054L490.007 140.07L491.452 138.688ZM496.444 142.048L495.701 143.905L496.444 142.048ZM510.94 141.184L511.927 142.923L511.935 142.919L511.942 142.915L510.94 141.184ZM517.564 135.328L518.896 133.836L517.316 132.426L515.998 134.084L517.564 135.328ZM531.868 148.096L533.448 149.322L534.593 147.847L533.2 146.604L531.868 148.096ZM519.196 158.08L520.025 159.9L520.036 159.895L519.196 158.08ZM501.724 161.536V159.536C496.557 159.536 491.797 158.737 487.427 157.159L486.748 159.04L486.069 160.921C490.915 162.671 496.139 163.536 501.724 163.536V161.536ZM486.748 159.04L487.459 157.171C483.141 155.529 479.396 153.229 476.202 150.275L474.844 151.744L473.486 153.213C477.076 156.531 481.267 159.095 486.037 160.909L486.748 159.04ZM474.844 151.744L476.216 150.288C473.09 147.343 470.654 143.858 468.903 139.814L467.068 140.608L465.233 141.402C467.194 145.934 469.942 149.873 473.472 153.2L474.844 151.744ZM467.068 140.608L468.903 139.814C467.167 135.803 466.284 131.341 466.284 126.4H464.284H462.284C462.284 131.827 463.257 136.837 465.233 141.402L467.068 140.608ZM464.284 126.4H466.284C466.284 121.459 467.167 116.997 468.903 112.986L467.068 112.192L465.233 111.398C463.257 115.963 462.284 120.973 462.284 126.4H464.284ZM467.068 112.192L468.903 112.986C470.654 108.942 473.09 105.457 476.216 102.512L474.844 101.056L473.472 99.6004C469.942 102.927 467.194 106.866 465.233 111.398L467.068 112.192ZM474.844 101.056L476.202 102.525C479.39 99.5764 483.128 97.3115 487.436 95.734L486.748 93.856L486.06 91.978C481.28 93.7284 477.082 96.2635 473.486 99.5875L474.844 101.056ZM486.748 93.856L487.45 95.7287C491.814 94.0923 496.566 93.264 501.724 93.264V91.264V89.264C496.13 89.264 490.898 90.1637 486.046 91.9833L486.748 93.856ZM501.724 91.264V93.264C508.083 93.264 513.615 94.3746 518.367 96.5399L519.196 94.72L520.025 92.9001C514.665 90.4574 508.549 89.264 501.724 89.264V91.264ZM519.196 94.72L518.375 96.5438C523.201 98.7152 527.158 101.837 530.279 105.919L531.868 104.704L533.457 103.489C529.922 98.8668 525.431 95.3328 520.017 92.8962L519.196 94.72ZM531.868 104.704L530.536 103.212L516.232 115.98L517.564 117.472L518.896 118.964L533.2 106.196L531.868 104.704ZM517.564 117.472L519.13 116.228C517.006 113.555 514.602 111.451 511.907 109.962L510.94 111.712L509.973 113.462C512.142 114.661 514.154 116.397 515.998 118.716L517.564 117.472ZM510.94 111.712L511.962 109.993C509.257 108.384 506.21 107.6 502.876 107.6V109.6V111.6C505.558 111.6 507.887 112.224 509.918 113.431L510.94 111.712ZM502.876 109.6V107.6C500.29 107.6 497.889 108.02 495.701 108.895L496.444 110.752L497.187 112.609C498.839 111.948 500.726 111.6 502.876 111.6V109.6ZM496.444 110.752L495.701 108.895C493.52 109.768 491.615 111.048 490.007 112.73L491.452 114.112L492.897 115.494C494.105 114.232 495.528 113.272 497.187 112.609L496.444 110.752ZM491.452 114.112L489.975 112.763C488.434 114.452 487.25 116.478 486.404 118.805L488.284 119.488L490.164 120.171C490.854 118.274 491.782 116.716 492.929 115.461L491.452 114.112ZM488.284 119.488L486.411 118.786C485.546 121.093 485.132 123.64 485.132 126.4H487.132H489.132C489.132 124.04 489.486 121.979 490.157 120.19L488.284 119.488ZM487.132 126.4H485.132C485.132 129.161 485.547 131.732 486.404 134.091L488.284 133.408L490.164 132.725C489.486 130.86 489.132 128.759 489.132 126.4H487.132ZM488.284 133.408L486.411 134.11C487.26 136.374 488.443 138.359 489.975 140.037L491.452 138.688L492.929 137.339C491.773 136.073 490.844 134.538 490.157 132.706L488.284 133.408ZM491.452 138.688L490.007 140.07C491.615 141.752 493.52 143.032 495.701 143.905L496.444 142.048L497.187 140.191C495.528 139.528 494.105 138.568 492.897 137.306L491.452 138.688ZM496.444 142.048L495.701 143.905C497.889 144.78 500.29 145.2 502.876 145.2V143.2V141.2C500.726 141.2 498.839 140.852 497.187 140.191L496.444 142.048ZM502.876 143.2V145.2C506.193 145.2 509.228 144.456 511.927 142.923L510.94 141.184L509.953 139.445C507.917 140.6 505.575 141.2 502.876 141.2V143.2ZM510.94 141.184L511.942 142.915C514.618 141.366 517.011 139.238 519.13 136.572L517.564 135.328L515.998 134.084C514.149 136.41 512.126 138.186 509.938 139.453L510.94 141.184ZM517.564 135.328L516.232 136.82L530.536 149.588L531.868 148.096L533.2 146.604L518.896 133.836L517.564 135.328ZM531.868 148.096L530.288 146.87C527.164 150.895 523.198 154.026 518.356 156.265L519.196 158.08L520.036 159.895C525.434 157.398 529.916 153.873 533.448 149.322L531.868 148.096ZM519.196 158.08L518.367 156.26C513.615 158.425 508.083 159.536 501.724 159.536V161.536V163.536C508.549 163.536 514.665 162.343 520.025 159.9L519.196 158.08ZM557.067 158.944L556.365 160.817L556.373 160.82L557.067 158.944ZM545.067 151.648L543.695 153.103L543.702 153.11L543.71 153.117L545.067 151.648ZM537.099 140.416L535.264 141.21L535.269 141.222L535.274 141.233L537.099 140.416ZM537.099 112.384L535.274 111.567L535.268 111.579L537.099 112.384ZM545.067 101.248L546.425 102.717L546.432 102.71L546.44 102.703L545.067 101.248ZM557.067 93.856L556.373 91.9802L556.365 91.9833L557.067 93.856ZM587.403 93.856L586.701 95.7287L587.403 93.856ZM599.403 101.248L598.031 102.703L598.038 102.71L598.046 102.717L599.403 101.248ZM607.275 112.384L605.44 113.178L605.447 113.195L605.455 113.212L607.275 112.384ZM607.275 140.416L605.45 139.599L605.445 139.61L605.44 139.622L607.275 140.416ZM599.403 151.648L600.761 153.117L600.768 153.11L600.776 153.103L599.403 151.648ZM587.403 158.944L586.701 157.071L587.403 158.944ZM578.091 142.048L577.327 140.2L577.315 140.205L577.303 140.21L578.091 142.048ZM582.891 138.784L581.446 137.402L581.445 137.403L582.891 138.784ZM586.155 133.504L588.028 134.206L588.031 134.197L588.035 134.187L586.155 133.504ZM586.155 119.392L584.276 120.075L584.279 120.085L584.283 120.094L586.155 119.392ZM582.891 114.112L581.414 115.461L581.445 115.494L581.477 115.526L582.891 114.112ZM578.091 110.752L577.303 112.59L577.315 112.595L577.327 112.6L578.091 110.752ZM566.283 110.752L565.519 108.904L565.507 108.909L565.495 108.914L566.283 110.752ZM561.483 114.112L560.038 112.73L560.037 112.731L561.483 114.112ZM558.315 119.392L560.188 120.094L560.191 120.085L560.195 120.075L558.315 119.392ZM558.315 133.504L556.436 134.187L556.439 134.197L556.443 134.206L558.315 133.504ZM561.483 138.784L560.006 140.133L560.037 140.166L560.069 140.198L561.483 138.784ZM566.283 142.048L565.495 143.886L565.507 143.891L565.519 143.896L566.283 142.048ZM572.235 161.536V159.536C567.01 159.536 562.191 158.707 557.761 157.068L557.067 158.944L556.373 160.82C561.287 162.637 566.58 163.536 572.235 163.536V161.536ZM557.067 158.944L557.769 157.071C553.388 155.428 549.615 153.128 546.425 150.179L545.067 151.648L543.71 153.117C547.304 156.44 551.53 159.004 556.365 160.817L557.067 158.944ZM545.067 151.648L546.44 150.193C543.241 147.175 540.738 143.648 538.925 139.599L537.099 140.416L535.274 141.233C537.301 145.76 540.11 149.721 543.695 153.103L545.067 151.648ZM537.099 140.416L538.935 139.622C537.196 135.604 536.315 131.205 536.315 126.4H534.315H532.315C532.315 131.707 533.291 136.652 535.264 141.21L537.099 140.416ZM534.315 126.4H536.315C536.315 121.526 537.197 117.132 538.93 113.189L537.099 112.384L535.268 111.579C533.289 116.084 532.315 121.034 532.315 126.4H534.315ZM537.099 112.384L538.925 113.201C540.736 109.155 543.235 105.666 546.425 102.717L545.067 101.248L543.71 99.7794C540.116 103.102 537.302 107.037 535.274 111.567L537.099 112.384ZM545.067 101.248L546.44 102.703C549.628 99.6952 553.396 97.3685 557.769 95.7287L557.067 93.856L556.365 91.9833C551.522 93.7994 547.291 96.4008 543.695 99.7932L545.067 101.248ZM557.067 93.856L557.761 95.7318C562.191 94.0932 567.01 93.264 572.235 93.264V91.264V89.264C566.58 89.264 561.287 90.1628 556.373 91.9802L557.067 93.856ZM572.235 91.264V93.264C577.528 93.264 582.343 94.0942 586.701 95.7287L587.403 93.856L588.105 91.9833C583.248 90.1618 577.951 89.264 572.235 89.264V91.264ZM587.403 93.856L586.701 95.7287C591.074 97.3685 594.843 99.6952 598.031 102.703L599.403 101.248L600.776 99.7932C597.18 96.4008 592.948 93.7994 588.105 91.9833L587.403 93.856ZM599.403 101.248L598.046 102.717C601.231 105.661 603.693 109.143 605.44 113.178L607.275 112.384L609.111 111.59C607.145 107.049 604.36 103.107 600.761 99.7794L599.403 101.248ZM607.275 112.384L605.455 113.212C607.245 117.15 608.155 121.536 608.155 126.4H610.155H612.155C612.155 121.024 611.146 116.066 609.096 111.556L607.275 112.384ZM610.155 126.4H608.155C608.155 131.196 607.246 135.587 605.45 139.599L607.275 140.416L609.101 141.233C611.144 136.669 612.155 131.716 612.155 126.4H610.155ZM607.275 140.416L605.44 139.622C603.691 143.661 601.225 147.18 598.031 150.193L599.403 151.648L600.776 153.103C604.366 149.716 607.147 145.747 609.111 141.21L607.275 140.416ZM599.403 151.648L598.046 150.179C594.856 153.128 591.082 155.428 586.701 157.071L587.403 158.944L588.105 160.817C592.94 159.004 597.167 156.44 600.761 153.117L599.403 151.648ZM587.403 158.944L586.701 157.071C582.343 158.706 577.528 159.536 572.235 159.536V161.536V163.536C577.951 163.536 583.248 162.638 588.105 160.817L587.403 158.944ZM572.235 143.2V145.2C574.595 145.2 576.818 144.77 578.879 143.886L578.091 142.048L577.303 140.21C575.78 140.862 574.099 141.2 572.235 141.2V143.2ZM578.091 142.048L578.856 143.896C580.961 143.025 582.795 141.781 584.338 140.165L582.891 138.784L581.445 137.403C580.299 138.603 578.934 139.535 577.327 140.2L578.091 142.048ZM582.891 138.784L584.337 140.166C585.945 138.485 587.172 136.489 588.028 134.206L586.155 133.504L584.283 132.802C583.602 134.615 582.654 136.139 581.446 137.402L582.891 138.784ZM586.155 133.504L588.035 134.187C588.895 131.823 589.307 129.219 589.307 126.4H587.307H585.307C585.307 128.829 584.952 130.961 584.276 132.821L586.155 133.504ZM587.307 126.4H589.307C589.307 123.583 588.895 121.002 588.028 118.69L586.155 119.392L584.283 120.094C584.951 121.878 585.307 123.969 585.307 126.4H587.307ZM586.155 119.392L588.035 118.709C587.18 116.357 585.945 114.338 584.305 112.698L582.891 114.112L581.477 115.526C582.653 116.702 583.595 118.203 584.276 120.075L586.155 119.392ZM582.891 114.112L584.368 112.763C582.825 111.073 580.981 109.783 578.856 108.904L578.091 110.752L577.327 112.6C578.914 113.257 580.27 114.207 581.414 115.461L582.891 114.112ZM578.091 110.752L578.879 108.914C576.818 108.03 574.595 107.6 572.235 107.6V109.6V111.6C574.099 111.6 575.78 111.938 577.303 112.59L578.091 110.752ZM572.235 109.6V107.6C569.875 107.6 567.629 108.031 565.519 108.904L566.283 110.752L567.048 112.6C568.649 111.937 570.372 111.6 572.235 111.6V109.6ZM566.283 110.752L565.495 108.914C563.445 109.793 561.624 111.072 560.038 112.73L561.483 114.112L562.929 115.494C564.159 114.208 565.538 113.247 567.071 112.59L566.283 110.752ZM561.483 114.112L560.037 112.731C558.474 114.368 557.284 116.376 556.436 118.709L558.315 119.392L560.195 120.075C560.883 118.184 561.804 116.672 562.93 115.493L561.483 114.112ZM558.315 119.392L556.443 118.69C555.575 121.002 555.163 123.583 555.163 126.4H557.163H559.163C559.163 123.969 559.519 121.878 560.188 120.094L558.315 119.392ZM557.163 126.4H555.163C555.163 129.219 555.576 131.823 556.436 134.187L558.315 133.504L560.195 132.821C559.519 130.961 559.163 128.829 559.163 126.4H557.163ZM558.315 133.504L556.443 134.206C557.291 136.47 558.474 138.455 560.006 140.133L561.483 138.784L562.96 137.435C561.804 136.169 560.875 134.634 560.188 132.802L558.315 133.504ZM561.483 138.784L560.069 140.198C561.653 141.782 563.464 143.016 565.495 143.886L566.283 142.048L567.071 140.21C565.518 139.544 564.129 138.602 562.897 137.37L561.483 138.784ZM566.283 142.048L565.519 143.896C567.629 144.769 569.875 145.2 572.235 145.2V143.2V141.2C570.372 141.2 568.649 140.863 567.048 140.2L566.283 142.048ZM618.378 160H616.378V162H618.378V160ZM618.378 92.8V90.8H616.378V92.8H618.378ZM637.002 92.8L638.537 91.5175L637.937 90.8H637.002V92.8ZM671.178 133.696V135.696H675.456L672.713 132.413L671.178 133.696ZM662.538 133.696H660.538V135.696H662.538V133.696ZM662.538 92.8V90.8H660.538V92.8H662.538ZM684.618 92.8H686.618V90.8H684.618V92.8ZM684.618 160V162H686.618V160H684.618ZM665.994 160L664.46 161.283L665.059 162H665.994V160ZM631.818 119.104V117.104H627.54L630.284 120.386L631.818 119.104ZM640.458 119.104H642.458V117.104H640.458V119.104ZM640.458 160V162H642.458V160H640.458ZM618.378 160H620.378V92.8H618.378H616.378V160H618.378ZM618.378 92.8V94.8H637.002V92.8V90.8H618.378V92.8ZM637.002 92.8L635.468 94.0825L669.644 134.978L671.178 133.696L672.713 132.413L638.537 91.5175L637.002 92.8ZM671.178 133.696V131.696H662.538V133.696V135.696H671.178V133.696ZM662.538 133.696H664.538V92.8H662.538H660.538V133.696H662.538ZM662.538 92.8V94.8H684.618V92.8V90.8H662.538V92.8ZM684.618 92.8H682.618V160H684.618H686.618V92.8H684.618ZM684.618 160V158H665.994V160V162H684.618V160ZM665.994 160L667.529 158.717L633.353 117.822L631.818 119.104L630.284 120.386L664.46 161.283L665.994 160ZM631.818 119.104V121.104H640.458V119.104V117.104H631.818V119.104ZM640.458 119.104H638.458V160H640.458H642.458V119.104H640.458ZM640.458 160V158H618.378V160V162H640.458V160ZM745.436 121.408V119.408H743.436V121.408H745.436ZM775.004 121.408H777.004V119.408H775.004V121.408ZM775.004 138.496V140.496H777.004V138.496H775.004ZM745.436 138.496H743.436V140.496H745.436V138.496ZM746.972 160V162H748.972V160H746.972ZM724.316 160H722.316V162H724.316V160ZM724.316 92.8V90.8H722.316V92.8H724.316ZM778.94 92.8H780.94V90.8H778.94V92.8ZM778.94 109.888V111.888H780.94V109.888H778.94ZM746.972 109.888V107.888H744.972V109.888H746.972ZM745.436 121.408V123.408H775.004V121.408V119.408H745.436V121.408ZM775.004 121.408H773.004V138.496H775.004H777.004V121.408H775.004ZM775.004 138.496V136.496H745.436V138.496V140.496H775.004V138.496ZM745.436 138.496H747.436V121.408H745.436H743.436V138.496H745.436ZM746.972 160V158H724.316V160V162H746.972V160ZM724.316 160H726.316V92.8H724.316H722.316V160H724.316ZM724.316 92.8V94.8H778.94V92.8V90.8H724.316V92.8ZM778.94 92.8H776.94V109.888H778.94H780.94V92.8H778.94ZM778.94 109.888V107.888H746.972V109.888V111.888H778.94V109.888ZM746.972 109.888H744.972V160H746.972H748.972V109.888H746.972ZM806.833 117.76V115.76H804.833V117.76H806.833ZM836.785 117.76H838.785V115.76H836.785V117.76ZM836.785 134.08V136.08H838.785V134.08H836.785ZM806.833 134.08H804.833V136.08H806.833V134.08ZM808.369 142.912H806.369V144.912H808.369V142.912ZM841.969 142.912H843.969V140.912H841.969V142.912ZM841.969 160V162H843.969V160H841.969ZM786.097 160H784.097V162H786.097V160ZM786.097 92.8V90.8H784.097V92.8H786.097ZM840.721 92.8H842.721V90.8H840.721V92.8ZM840.721 109.888V111.888H842.721V109.888H840.721ZM808.369 109.888V107.888H806.369V109.888H808.369ZM806.833 117.76V119.76H836.785V117.76V115.76H806.833V117.76ZM836.785 117.76H834.785V134.08H836.785H838.785V117.76H836.785ZM836.785 134.08V132.08H806.833V134.08V136.08H836.785V134.08ZM806.833 134.08H808.833V117.76H806.833H804.833V134.08H806.833ZM808.369 142.912V144.912H841.969V142.912V140.912H808.369V142.912ZM841.969 142.912H839.969V160H841.969H843.969V142.912H841.969ZM841.969 160V158H786.097V160V162H841.969V160ZM786.097 160H788.097V92.8H786.097H784.097V160H786.097ZM786.097 92.8V94.8H840.721V92.8V90.8H786.097V92.8ZM840.721 92.8H838.721V109.888H840.721H842.721V92.8H840.721ZM840.721 109.888V107.888H808.369V109.888V111.888H840.721V109.888ZM808.369 109.888H806.369V142.912H808.369H810.369V109.888H808.369Z" fill="white" mask="url(#path-1-outside-1_2689_307)"/>
</svg>
