<svg width="14" height="13" viewBox="0 0 14 13" fill="none" xmlns="http://www.w3.org/2000/svg">
<path d="M11.5397 2.02334C12.7625 3.22933 13.3738 4.69494 13.3738 6.42018C13.3738 8.14541 12.7625 9.6194 11.5397 10.8421C10.3337 12.0481 8.86812 12.6511 7.14289 12.6511C5.41765 12.6511 3.94366 12.0481 2.72092 10.8421C1.51493 9.6194 0.911936 8.14541 0.911936 6.42018C0.911936 4.69494 1.51493 3.22933 2.72092 2.02334C3.94366 0.800597 5.41765 0.189227 7.14289 0.189227C8.86812 0.189227 10.3337 0.800597 11.5397 2.02334ZM6.41427 9.71153L11.0372 5.08856C11.2382 4.90432 11.2382 4.72007 11.0372 4.53582L10.4845 3.95795C10.2835 3.7737 10.0909 3.7737 9.90662 3.95795L6.13789 7.72667L4.37916 5.96793C4.19491 5.78368 4.00229 5.78368 3.80129 5.96793L3.24854 6.5458C3.04754 6.73005 3.04754 6.9143 3.24854 7.09855L5.86152 9.71153C6.04577 9.91253 6.23002 9.91253 6.41427 9.71153Z" fill="#704FE6"/>
</svg>
