<svg width="498" height="94" viewBox="0 0 498 94" fill="none" xmlns="http://www.w3.org/2000/svg">
<path d="M15.2359 37H10.0771V11.887H18.2836L26.6943 35.0931L25.8089 35.3145V11.887H30.9507V37H22.6932L14.2825 13.862L15.2359 13.6407V37ZM34.8956 37V18.9187H40.1225V37H34.8956ZM37.5006 15.9732C36.6833 15.9732 35.9683 15.7575 35.3553 15.3262C34.7537 14.8949 34.453 14.2876 34.453 13.5045C34.453 12.7099 34.7537 12.097 35.3553 11.6657C35.9683 11.2344 36.6833 11.0187 37.5006 11.0187C38.3292 11.0187 39.0442 11.2344 39.6458 11.6657C40.2587 12.097 40.5652 12.7099 40.5652 13.5045C40.5652 14.299 40.2587 14.9119 39.6458 15.3432C39.0442 15.7632 38.3292 15.9732 37.5006 15.9732ZM60.612 18.9187L55.1297 37H48.0129L42.4114 18.9187H47.8597L51.9799 35.3996H51.1627L55.1467 18.9187H60.612ZM64.4603 29.5427V26.0524H76.4464L75.9357 26.9378C75.9357 26.847 75.9357 26.7618 75.9357 26.6824C75.9357 26.5916 75.9357 26.5065 75.9357 26.427C75.9357 25.78 75.7824 25.1614 75.476 24.5712C75.1695 23.9696 74.6928 23.4816 74.0458 23.107C73.4102 22.7211 72.5929 22.5281 71.5941 22.5281C70.5953 22.5281 69.7326 22.7438 69.0062 23.1751C68.2911 23.5951 67.7406 24.2023 67.3547 24.9968C66.9801 25.7914 66.7928 26.7505 66.7928 27.8742C66.7928 29.0319 66.9744 30.0251 67.3377 30.8537C67.7122 31.6709 68.2627 32.3009 68.9892 32.7436C69.7269 33.1862 70.6407 33.4076 71.7303 33.4076C72.434 33.4076 73.0413 33.3451 73.5521 33.2203C74.0628 33.0841 74.4771 32.9138 74.7949 32.7095C75.1241 32.5052 75.3738 32.2782 75.5441 32.0285C75.7143 31.7788 75.8165 31.5347 75.8505 31.2964H81.0604C80.9923 32.0569 80.7313 32.806 80.2772 33.5438C79.8232 34.2702 79.1933 34.9285 78.3874 35.5188C77.5815 36.0976 76.5997 36.5573 75.4419 36.8978C74.2955 37.2384 72.9845 37.4086 71.509 37.4086C69.5113 37.4086 67.769 37.0114 66.2821 36.2168C64.7951 35.4109 63.6431 34.3043 62.8258 32.8968C62.0086 31.478 61.6 29.8435 61.6 27.9934C61.6 26.1205 62.0143 24.4804 62.8429 23.0729C63.6828 21.6541 64.8462 20.5531 66.3331 19.7699C67.8314 18.9754 69.5624 18.5781 71.526 18.5781C73.535 18.5781 75.2717 18.9811 76.7359 19.787C78.2001 20.5815 79.3295 21.6995 80.124 23.141C80.9185 24.5712 81.3158 26.2397 81.3158 28.1466C81.3158 28.4304 81.3101 28.7028 81.2988 28.9638C81.2874 29.2249 81.2704 29.4179 81.2477 29.5427H64.4603ZM90.0795 10.3888V37H84.8697V10.3888H90.0795ZM96.3171 29.5427V26.0524H108.303L107.792 26.9378C107.792 26.847 107.792 26.7618 107.792 26.6824C107.792 26.5916 107.792 26.5065 107.792 26.427C107.792 25.78 107.639 25.1614 107.333 24.5712C107.026 23.9696 106.55 23.4816 105.903 23.107C105.267 22.7211 104.45 22.5281 103.451 22.5281C102.452 22.5281 101.589 22.7438 100.863 23.1751C100.148 23.5951 99.5974 24.2023 99.2115 24.9968C98.8369 25.7914 98.6496 26.7505 98.6496 27.8742C98.6496 29.0319 98.8312 30.0251 99.1944 30.8537C99.569 31.6709 100.12 32.3009 100.846 32.7436C101.584 33.1862 102.497 33.4076 103.587 33.4076C104.291 33.4076 104.898 33.3451 105.409 33.2203C105.92 33.0841 106.334 32.9138 106.652 32.7095C106.981 32.5052 107.231 32.2782 107.401 32.0285C107.571 31.7788 107.673 31.5347 107.707 31.2964H112.917C112.849 32.0569 112.588 32.806 112.134 33.5438C111.68 34.2702 111.05 34.9285 110.244 35.5188C109.438 36.0976 108.456 36.5573 107.299 36.8978C106.152 37.2384 104.841 37.4086 103.366 37.4086C101.368 37.4086 99.6258 37.0114 98.1388 36.2168C96.6519 35.4109 95.4998 34.3043 94.6826 32.8968C93.8654 31.478 93.4568 29.8435 93.4568 27.9934C93.4568 26.1205 93.8711 24.4804 94.6996 23.0729C95.5396 21.6541 96.703 20.5531 98.1899 19.7699C99.6882 18.9754 101.419 18.5781 103.383 18.5781C105.392 18.5781 107.128 18.9811 108.593 19.787C110.057 20.5815 111.186 21.6995 111.981 23.141C112.775 24.5712 113.173 26.2397 113.173 28.1466C113.173 28.4304 113.167 28.7028 113.156 28.9638C113.144 29.2249 113.127 29.4179 113.104 29.5427H96.3171ZM123.996 37.4086C122.918 37.4086 121.88 37.2838 120.881 37.0341C119.882 36.7843 118.985 36.4154 118.191 35.9274C117.407 35.4393 116.783 34.8321 116.318 34.1056C115.864 33.3678 115.637 32.5109 115.637 31.5347C115.637 31.4893 115.637 31.4383 115.637 31.3815C115.637 31.3134 115.637 31.2623 115.637 31.2283H120.881C120.881 31.2623 120.881 31.302 120.881 31.3475C120.881 31.3815 120.881 31.4212 120.881 31.4666C120.881 32.125 121.17 32.6074 121.749 32.9138C122.339 33.2203 123.134 33.3735 124.133 33.3735C124.655 33.3735 125.154 33.3224 125.631 33.2203C126.119 33.1068 126.516 32.9308 126.823 32.6925C127.141 32.4428 127.299 32.1306 127.299 31.7561C127.299 31.1545 126.965 30.7288 126.295 30.4791C125.637 30.2294 124.575 29.9797 123.111 29.73C122.283 29.5938 121.443 29.4008 120.591 29.1511C119.74 28.9014 118.957 28.5723 118.242 28.1636C117.527 27.7437 116.953 27.2159 116.522 26.5802C116.091 25.9333 115.875 25.1501 115.875 24.2307C115.875 23.0048 116.244 21.9719 116.982 21.132C117.731 20.2921 118.724 19.6564 119.961 19.2251C121.199 18.7938 122.561 18.5781 124.048 18.5781C125.466 18.5781 126.789 18.8165 128.015 19.2932C129.24 19.7586 130.234 20.4339 130.994 21.3193C131.754 22.1933 132.135 23.2489 132.135 24.4861C132.135 24.5088 132.135 24.5428 132.135 24.5882C132.135 24.6336 132.135 24.679 132.135 24.7244H126.942C126.942 24.679 126.942 24.6393 126.942 24.6053C126.942 24.5712 126.942 24.5428 126.942 24.5201C126.942 24.0661 126.794 23.6972 126.499 23.4135C126.215 23.1297 125.852 22.9197 125.41 22.7835C124.967 22.6359 124.507 22.5622 124.03 22.5622C123.599 22.5622 123.151 22.6132 122.685 22.7154C122.231 22.8062 121.846 22.9651 121.528 23.1921C121.21 23.4078 121.051 23.7142 121.051 24.1115C121.051 24.4974 121.221 24.8152 121.562 25.0649C121.902 25.3033 122.379 25.5019 122.992 25.6609C123.605 25.8084 124.314 25.9503 125.12 26.0865C125.881 26.2113 126.681 26.3873 127.521 26.6143C128.372 26.83 129.167 27.1421 129.904 27.5507C130.654 27.948 131.255 28.4758 131.709 29.1341C132.174 29.7811 132.407 30.604 132.407 31.6028C132.407 32.6357 132.169 33.5211 131.692 34.2589C131.215 34.9966 130.568 35.5982 129.751 36.0636C128.945 36.5176 128.043 36.8524 127.044 37.0681C126.057 37.2951 125.041 37.4086 123.996 37.4086ZM143.081 37L149.346 11.853H157.706L163.937 37H158.523L153.517 15.0708H153.552L148.495 37H143.081ZM147.576 31.1772V27.057H159.494V31.1772H147.576ZM175.859 37.4086C173.873 37.4086 172.13 37.0114 170.632 36.2168C169.134 35.4109 167.97 34.2929 167.142 32.8627C166.325 31.4326 165.916 29.7811 165.916 27.9082C165.916 26.0127 166.325 24.3726 167.142 22.9878C167.97 21.5917 169.134 20.5077 170.632 19.7359C172.13 18.9641 173.873 18.5781 175.859 18.5781C177.346 18.5781 178.663 18.7995 179.809 19.2421C180.955 19.6735 181.914 20.2467 182.686 20.9617C183.458 21.6768 184.043 22.46 184.44 23.3113C184.837 24.1626 185.036 25.0082 185.036 25.8481C185.036 25.8595 185.036 25.8822 185.036 25.9162C185.036 25.9389 185.036 25.9616 185.036 25.9843H179.809C179.809 25.9162 179.803 25.8538 179.792 25.7971C179.792 25.729 179.781 25.6609 179.758 25.5927C179.667 25.116 179.468 24.6677 179.162 24.2477C178.856 23.8277 178.424 23.4872 177.868 23.2262C177.323 22.9538 176.642 22.8175 175.825 22.8175C174.951 22.8175 174.168 23.0105 173.475 23.3964C172.794 23.7823 172.255 24.3555 171.858 25.116C171.461 25.8652 171.262 26.7959 171.262 27.9082C171.262 28.9979 171.461 29.94 171.858 30.7345C172.255 31.5177 172.794 32.1193 173.475 32.5393C174.168 32.9592 174.951 33.1692 175.825 33.1692C176.722 33.1692 177.454 33.033 178.021 32.7606C178.589 32.4768 179.014 32.1023 179.298 31.6369C179.582 31.1602 179.752 30.638 179.809 30.0705H185.036C185.036 30.9105 184.837 31.7674 184.44 32.6414C184.054 33.504 183.475 34.2929 182.703 35.008C181.943 35.7231 180.989 36.3019 179.843 36.7446C178.697 37.1873 177.369 37.4086 175.859 37.4086ZM194.461 37.3746C193.144 37.3746 191.97 37.1646 190.937 36.7446C189.915 36.3246 189.115 35.7174 188.536 34.9229C187.957 34.1283 187.668 33.1635 187.668 32.0285C187.668 30.7459 188.02 29.7016 188.723 28.8957C189.427 28.0899 190.358 27.4769 191.515 27.057C192.685 26.6256 193.95 26.3419 195.312 26.2057C197.299 26.0127 198.666 25.8368 199.415 25.6779C200.176 25.519 200.556 25.2409 200.556 24.8436C200.556 24.8323 200.556 24.8209 200.556 24.8096C200.556 24.1399 200.233 23.6121 199.586 23.2262C198.95 22.8403 198.059 22.6473 196.913 22.6473C195.698 22.6473 194.767 22.8686 194.12 23.3113C193.485 23.7426 193.167 24.4066 193.167 25.3033H187.974C187.974 23.8504 188.366 22.6246 189.149 21.6257C189.943 20.6269 191.016 19.8721 192.367 19.3613C193.717 18.8392 195.244 18.5781 196.947 18.5781C198.536 18.5781 200.006 18.8222 201.356 19.3102C202.707 19.787 203.791 20.5077 204.608 21.4725C205.437 22.4373 205.851 23.6632 205.851 25.1501C205.851 25.3884 205.851 25.6268 205.851 25.8652C205.851 26.0922 205.851 26.3249 205.851 26.5632V32.9649C205.851 33.4303 205.863 33.8786 205.885 34.3099C205.919 34.7299 205.987 35.1158 206.09 35.4677C206.203 35.8649 206.345 36.1941 206.515 36.4552C206.685 36.7162 206.827 36.8978 206.941 37H201.748C201.669 36.9205 201.544 36.756 201.373 36.5063C201.214 36.2565 201.078 35.9671 200.965 35.6379C200.829 35.2407 200.726 34.8434 200.658 34.4461C200.602 34.0375 200.573 33.5608 200.573 33.016L201.663 33.7651C201.345 34.5142 200.829 35.1612 200.113 35.706C199.41 36.2395 198.57 36.6538 197.594 36.9489C196.629 37.2327 195.585 37.3746 194.461 37.3746ZM195.874 33.4246C196.703 33.4246 197.475 33.277 198.19 32.9819C198.916 32.6755 199.506 32.1987 199.96 31.5518C200.414 30.9048 200.641 30.0592 200.641 29.0149V27.1932L201.952 28.4701C201.203 28.7425 200.335 28.9695 199.347 29.1511C198.371 29.3214 197.395 29.4576 196.419 29.5597C195.261 29.6733 194.393 29.8719 193.814 30.1556C193.246 30.4281 192.963 30.8934 192.963 31.5518C192.963 32.176 193.207 32.6471 193.695 32.9649C194.183 33.2714 194.909 33.4246 195.874 33.4246ZM217.273 37.4086C215.763 37.4086 214.373 37.0511 213.102 36.336C211.83 35.6096 210.809 34.5369 210.037 33.1181C209.265 31.6993 208.879 29.9513 208.879 27.8742C208.879 25.8879 209.271 24.2023 210.054 22.8175C210.849 21.4328 211.882 20.3829 213.153 19.6678C214.435 18.9414 215.809 18.5781 217.273 18.5781C218.703 18.5781 220.009 18.9414 221.189 19.6678C222.381 20.3942 223.334 21.3874 224.049 22.6473C224.764 23.8958 225.122 25.3374 225.122 26.9718C225.122 27.0286 225.122 27.0853 225.122 27.1421C225.122 27.1875 225.122 27.2386 225.122 27.2953L222.84 27.3294C222.84 27.2953 222.84 27.2613 222.84 27.2272C222.84 27.1818 222.84 27.1421 222.84 27.108C222.84 26.2568 222.636 25.5246 222.228 24.9117C221.819 24.2988 221.291 23.8277 220.644 23.4986C219.997 23.1581 219.322 22.9878 218.618 22.9878C217.449 22.9878 216.439 23.3794 215.588 24.1626C214.736 24.9344 214.311 26.1716 214.311 27.8742C214.311 29.5768 214.736 30.831 215.588 31.6369C216.45 32.4314 217.46 32.8287 218.618 32.8287C219.345 32.8287 220.031 32.6584 220.678 32.3179C221.325 31.9661 221.847 31.4723 222.245 30.8367C222.642 30.2011 222.84 29.4519 222.84 28.5893L225.122 28.7085C225.122 30.3316 224.77 31.8015 224.066 33.1181C223.374 34.4234 222.432 35.4677 221.24 36.2509C220.06 37.0227 218.737 37.4086 217.273 37.4086ZM222.84 37V10.3888H228.135V37H222.84ZM234.186 29.5427V26.0524H246.172L245.661 26.9378C245.661 26.847 245.661 26.7618 245.661 26.6824C245.661 26.5916 245.661 26.5065 245.661 26.427C245.661 25.78 245.508 25.1614 245.201 24.5712C244.895 23.9696 244.418 23.4816 243.771 23.107C243.136 22.7211 242.318 22.5281 241.32 22.5281C240.321 22.5281 239.458 22.7438 238.732 23.1751C238.017 23.5951 237.466 24.2023 237.08 24.9968C236.706 25.7914 236.518 26.7505 236.518 27.8742C236.518 29.0319 236.7 30.0251 237.063 30.8537C237.438 31.6709 237.988 32.3009 238.715 32.7436C239.452 33.1862 240.366 33.4076 241.456 33.4076C242.159 33.4076 242.767 33.3451 243.277 33.2203C243.788 33.0841 244.203 32.9138 244.52 32.7095C244.85 32.5052 245.099 32.2782 245.27 32.0285C245.44 31.7788 245.542 31.5347 245.576 31.2964H250.786C250.718 32.0569 250.457 32.806 250.003 33.5438C249.549 34.2702 248.919 34.9285 248.113 35.5188C247.307 36.0976 246.325 36.5573 245.167 36.8978C244.021 37.2384 242.71 37.4086 241.234 37.4086C239.237 37.4086 237.494 37.0114 236.007 36.2168C234.521 35.4109 233.369 34.3043 232.551 32.8968C231.734 31.478 231.325 29.8435 231.325 27.9934C231.325 26.1205 231.74 24.4804 232.568 23.0729C233.408 21.6541 234.572 20.5531 236.059 19.7699C237.557 18.9754 239.288 18.5781 241.251 18.5781C243.26 18.5781 244.997 18.9811 246.461 19.787C247.926 20.5815 249.055 21.6995 249.849 23.141C250.644 24.5712 251.041 26.2397 251.041 28.1466C251.041 28.4304 251.036 28.7028 251.024 28.9638C251.013 29.2249 250.996 29.4179 250.973 29.5427H234.186ZM238.408 16.518L242.46 11.887H246.495L241.881 16.518H238.408ZM265.628 37V30.0024C265.628 29.3327 265.628 28.7539 265.628 28.2658C265.628 27.7664 265.628 27.3521 265.628 27.0229C265.628 26.5575 265.599 26.0978 265.543 25.6438C265.497 25.1898 265.384 24.7698 265.202 24.3839C265.032 23.9867 264.765 23.6745 264.402 23.4475C264.039 23.2091 263.545 23.09 262.921 23.09C262.342 23.09 261.842 23.2148 261.422 23.4645C261.002 23.7029 260.656 24.0377 260.384 24.469C260.123 24.889 259.93 25.3771 259.805 25.9333C259.68 26.4781 259.618 27.0513 259.618 27.6529L258.171 26.4611C258.171 24.9287 258.449 23.5724 259.005 22.3919C259.561 21.2001 260.35 20.2694 261.371 19.5997C262.404 18.9187 263.624 18.5781 265.032 18.5781C266.542 18.5781 267.716 18.9016 268.556 19.5486C269.408 20.1842 270.003 21.0355 270.344 22.1025C270.696 23.1581 270.872 24.3272 270.872 25.6098C270.872 26.0978 270.872 26.7562 270.872 27.5848C270.872 28.4133 270.872 29.4065 270.872 30.5643V37H265.628ZM254.34 37V18.9187H259.618V37H254.34ZM276.865 37V30.0194C276.865 29.3271 276.865 28.7312 276.865 28.2317C276.865 27.7323 276.865 27.318 276.865 26.9889C276.865 26.4894 276.836 26.0127 276.78 25.5587C276.723 25.0933 276.604 24.6734 276.422 24.2988C276.241 23.9242 275.968 23.6291 275.605 23.4135C275.242 23.1978 274.748 23.09 274.124 23.09C273.545 23.09 273.045 23.2148 272.625 23.4645C272.217 23.7029 271.882 24.0321 271.621 24.452C271.36 24.872 271.167 25.3487 271.042 25.8822C270.928 26.4157 270.872 26.9718 270.872 27.5507L269.425 26.3759C269.425 24.8663 269.697 23.527 270.242 22.3579C270.798 21.1888 271.581 20.2694 272.591 19.5997C273.613 18.9187 274.833 18.5781 276.252 18.5781C277.727 18.5781 278.891 18.8903 279.742 19.5146C280.605 20.1388 281.218 20.9731 281.581 22.0173C281.955 23.0502 282.143 24.208 282.143 25.4906C282.143 26.0014 282.143 26.6597 282.143 27.4656C282.143 28.2715 282.143 29.2533 282.143 30.411V37H276.865ZM285.892 37V18.9187H291.119V37H285.892ZM288.497 15.9732C287.68 15.9732 286.965 15.7575 286.352 15.3262C285.751 14.8949 285.45 14.2876 285.45 13.5045C285.45 12.7099 285.751 12.097 286.352 11.6657C286.965 11.2344 287.68 11.0187 288.497 11.0187C289.326 11.0187 290.041 11.2344 290.643 11.6657C291.256 12.097 291.562 12.7099 291.562 13.5045C291.562 14.299 291.256 14.9119 290.643 15.3432C290.041 15.7632 289.326 15.9732 288.497 15.9732ZM304.117 37.4086C302.131 37.4086 300.389 37.0114 298.891 36.2168C297.392 35.4109 296.229 34.2929 295.4 32.8627C294.583 31.4326 294.174 29.7811 294.174 27.9082C294.174 26.0127 294.583 24.3726 295.4 22.9878C296.229 21.5917 297.392 20.5077 298.891 19.7359C300.389 18.9641 302.131 18.5781 304.117 18.5781C305.604 18.5781 306.921 18.7995 308.067 19.2421C309.214 19.6735 310.173 20.2467 310.945 20.9617C311.717 21.6768 312.301 22.46 312.698 23.3113C313.096 24.1626 313.294 25.0082 313.294 25.8481C313.294 25.8595 313.294 25.8822 313.294 25.9162C313.294 25.9389 313.294 25.9616 313.294 25.9843H308.067C308.067 25.9162 308.062 25.8538 308.05 25.7971C308.05 25.729 308.039 25.6609 308.016 25.5927C307.926 25.116 307.727 24.6677 307.42 24.2477C307.114 23.8277 306.683 23.4872 306.126 23.2262C305.582 22.9538 304.901 22.8175 304.083 22.8175C303.209 22.8175 302.426 23.0105 301.734 23.3964C301.053 23.7823 300.514 24.3555 300.116 25.116C299.719 25.8652 299.52 26.7959 299.52 27.9082C299.52 28.9979 299.719 29.94 300.116 30.7345C300.514 31.5177 301.053 32.1193 301.734 32.5393C302.426 32.9592 303.209 33.1692 304.083 33.1692C304.98 33.1692 305.712 33.033 306.28 32.7606C306.847 32.4768 307.273 32.1023 307.557 31.6369C307.84 31.1602 308.011 30.638 308.067 30.0705H313.294C313.294 30.9105 313.096 31.7674 312.698 32.6414C312.312 33.504 311.734 34.2929 310.962 35.008C310.201 35.7231 309.248 36.3019 308.101 36.7446C306.955 37.1873 305.627 37.4086 304.117 37.4086ZM325.648 37.3916C323.696 37.3916 321.976 36.9886 320.489 36.1828C319.002 35.3769 317.839 34.2702 316.999 32.8627C316.17 31.4439 315.756 29.8095 315.756 27.9593C315.756 26.1205 316.17 24.4974 316.999 23.09C317.839 21.6711 319.002 20.5702 320.489 19.787C321.976 18.9924 323.696 18.5952 325.648 18.5952C327.6 18.5952 329.32 18.9924 330.807 19.787C332.294 20.5702 333.451 21.6711 334.28 23.09C335.12 24.4974 335.54 26.1205 335.54 27.9593C335.54 29.8095 335.12 31.4439 334.28 32.8627C333.451 34.2702 332.294 35.3769 330.807 36.1828C329.32 36.9886 327.6 37.3916 325.648 37.3916ZM325.648 33.2033C326.567 33.2033 327.367 32.9876 328.048 32.5563C328.729 32.125 329.257 31.5177 329.632 30.7345C330.006 29.94 330.194 29.0149 330.194 27.9593C330.194 26.9037 330.006 25.99 329.632 25.2182C329.257 24.435 328.729 23.8334 328.048 23.4135C327.367 22.9935 326.567 22.7835 325.648 22.7835C324.74 22.7835 323.94 22.9935 323.247 23.4135C322.566 23.8334 322.038 24.435 321.664 25.2182C321.289 25.99 321.102 26.9037 321.102 27.9593C321.102 29.0149 321.289 29.94 321.664 30.7345C322.038 31.5177 322.566 32.125 323.247 32.5563C323.94 32.9876 324.74 33.2033 325.648 33.2033ZM346.362 37.4086C345.284 37.4086 344.245 37.2838 343.246 37.0341C342.247 36.7843 341.351 36.4154 340.556 35.9274C339.773 35.4393 339.149 34.8321 338.683 34.1056C338.229 33.3678 338.002 32.5109 338.002 31.5347C338.002 31.4893 338.002 31.4383 338.002 31.3815C338.002 31.3134 338.002 31.2623 338.002 31.2283H343.246C343.246 31.2623 343.246 31.302 343.246 31.3475C343.246 31.3815 343.246 31.4212 343.246 31.4666C343.246 32.125 343.536 32.6074 344.115 32.9138C344.705 33.2203 345.499 33.3735 346.498 33.3735C347.02 33.3735 347.52 33.3224 347.996 33.2203C348.485 33.1068 348.882 32.9308 349.188 32.6925C349.506 32.4428 349.665 32.1306 349.665 31.7561C349.665 31.1545 349.33 30.7288 348.66 30.4791C348.002 30.2294 346.941 29.9797 345.477 29.73C344.648 29.5938 343.808 29.4008 342.957 29.1511C342.106 28.9014 341.322 28.5723 340.607 28.1636C339.892 27.7437 339.319 27.2159 338.888 26.5802C338.456 25.9333 338.241 25.1501 338.241 24.2307C338.241 23.0048 338.61 21.9719 339.347 21.132C340.097 20.2921 341.09 19.6564 342.327 19.2251C343.564 18.7938 344.926 18.5781 346.413 18.5781C347.832 18.5781 349.154 18.8165 350.38 19.2932C351.606 19.7586 352.599 20.4339 353.36 21.3193C354.12 22.1933 354.5 23.2489 354.5 24.4861C354.5 24.5088 354.5 24.5428 354.5 24.5882C354.5 24.6336 354.5 24.679 354.5 24.7244H349.307C349.307 24.679 349.307 24.6393 349.307 24.6053C349.307 24.5712 349.307 24.5428 349.307 24.5201C349.307 24.0661 349.16 23.6972 348.865 23.4135C348.581 23.1297 348.218 22.9197 347.775 22.7835C347.332 22.6359 346.873 22.5622 346.396 22.5622C345.965 22.5622 345.516 22.6132 345.051 22.7154C344.597 22.8062 344.211 22.9651 343.893 23.1921C343.575 23.4078 343.417 23.7142 343.417 24.1115C343.417 24.4974 343.587 24.8152 343.927 25.0649C344.268 25.3033 344.745 25.5019 345.357 25.6609C345.97 25.8084 346.68 25.9503 347.486 26.0865C348.246 26.2113 349.046 26.3873 349.886 26.6143C350.738 26.83 351.532 27.1421 352.27 27.5507C353.019 27.948 353.621 28.4758 354.075 29.1341C354.54 29.7811 354.773 30.604 354.773 31.6028C354.773 32.6357 354.534 33.5211 354.058 34.2589C353.581 34.9966 352.934 35.5982 352.117 36.0636C351.311 36.5176 350.408 36.8524 349.41 37.0681C348.422 37.2951 347.406 37.4086 346.362 37.4086Z" fill="#0E2A46"/>
<path d="M55.5252 6.44726C59.3897 4.56426 62.4826 3.2255 67.2657 2.50677C71.286 1.90266 75.3904 1.57268 79.4392 1.47599C91.1271 1.19689 102.257 3.74009 110.866 7.39804C120.041 11.2966 126.171 17.1884 125.683 24.1001C125.094 32.4126 114.545 39.3494 101.048 43.2335C83.4527 48.2973 61.8506 48.5259 44.334 46.2546C28.3982 44.1883 8.81673 39.3048 2.72115 30.4053C-2.58918 22.6526 9.13848 13.7767 20.8436 8.82836C30.5441 4.72756 42.1531 2.25031 53.5773 3.09351C62.0038 3.71547 70.5385 5.22775 77.5361 7.60273C85.4171 10.2777 90.9175 14.1499 96.7623 17.9868" stroke="#704FE6" stroke-width="2.2701" stroke-linecap="round"/>
</svg>
