<svg width="50" height="50" viewBox="0 0 50 50" fill="none" xmlns="http://www.w3.org/2000/svg">
<rect width="50" height="50" rx="25" fill="#B6D7FF"/>
<g clip-path="url(#clip0_2631_389)">
<path d="M20.125 16.75C17.0225 16.75 14.5 19.3018 14.5 22.375C14.5 23.4473 14.9863 24.376 15.4375 25.0469C15.8887 25.7178 16.3516 26.1484 16.3516 26.1484L24.4609 34.2812L25 34.8203L25.5391 34.2812L33.6484 26.1484C33.6484 26.1484 35.5 24.5166 35.5 22.375C35.5 19.3018 32.9775 16.75 29.875 16.75C27.2998 16.75 25.6416 18.2998 25 18.9531C24.3584 18.2998 22.7002 16.75 20.125 16.75ZM20.125 18.25C22.3662 18.25 24.4375 20.4297 24.4375 20.4297L25 21.0625L25.5625 20.4297C25.5625 20.4297 27.6338 18.25 29.875 18.25C32.1572 18.25 34 20.1221 34 22.375C34 23.5322 32.5938 25.0938 32.5938 25.0938L25 32.6875L17.4062 25.0938C17.4062 25.0938 17.043 24.7451 16.6797 24.2031C16.3164 23.6611 16 22.9551 16 22.375C16 20.1221 17.8428 18.25 20.125 18.25Z" fill="#CB30E0"/>
</g>
<defs>
<clipPath id="clip0_2631_389">
<rect width="32" height="32" fill="white" transform="translate(9 9)"/>
</clipPath>
</defs>
</svg>
