<svg width="6" height="8" viewBox="0 0 6 8" fill="none" xmlns="http://www.w3.org/2000/svg">
<path d="M5.28737 4.47916L2.13529 7.63125C2.02713 7.73941 1.89579 7.79349 1.74128 7.79349C1.58676 7.79349 1.45543 7.73941 1.34727 7.63125L0.83737 7.09818C0.729211 6.99002 0.675131 6.85868 0.675131 6.70417C0.675131 6.54965 0.729211 6.41831 0.83737 6.31015L3.06237 4.08515L0.83737 1.86015C0.729211 1.75199 0.675131 1.62065 0.675131 1.46614C0.675131 1.31163 0.729211 1.18029 0.83737 1.07213L1.34727 0.539055C1.45543 0.430896 1.58676 0.376816 1.74128 0.376816C1.89579 0.376816 2.02713 0.430896 2.13529 0.539055L5.28737 3.69114C5.39553 3.7993 5.44961 3.93064 5.44961 4.08515C5.44961 4.23967 5.39553 4.371 5.28737 4.47916Z" fill="white"/>
<a href="https://www.figma.com/design/Nx4sNsAeWJfmVVOXuDSmxJ?node-id=2-828">
<rect fill="black" fill-opacity="0" y="0.597656" width="7.90234" height="15.8047"/>
</a>
</svg>
