<svg width="35" height="34" viewBox="0 0 35 34" fill="none" xmlns="http://www.w3.org/2000/svg">
<rect x="0.787109" width="33.7875" height="33.7875" rx="16.8937" fill="#4D5756"/>
<path d="M17.8221 13.1082C19.3927 13.1082 20.6891 14.4046 20.6891 15.9752C20.6891 17.5707 19.3927 18.8421 17.8221 18.8421C16.2266 18.8421 14.9552 17.5707 14.9552 15.9752C14.9552 14.4046 16.2266 13.1082 17.8221 13.1082ZM17.8221 17.8449C18.8442 17.8449 19.6669 17.0222 19.6669 15.9752C19.6669 14.953 18.8442 14.1303 17.8221 14.1303C16.7751 14.1303 15.9524 14.953 15.9524 15.9752C15.9524 17.0222 16.8 17.8449 17.8221 17.8449ZM21.4619 13.0085C21.4619 13.3824 21.1627 13.6816 20.7888 13.6816C20.4148 13.6816 20.1157 13.3824 20.1157 13.0085C20.1157 12.6345 20.4148 12.3354 20.7888 12.3354C21.1627 12.3354 21.4619 12.6345 21.4619 13.0085ZM23.3566 13.6816C23.4064 14.604 23.4064 17.3712 23.3566 18.2936C23.3067 19.1911 23.1073 19.964 22.4591 20.6371C21.8109 21.2852 21.0132 21.4847 20.1157 21.5345C19.1933 21.5844 16.426 21.5844 15.5036 21.5345C14.6061 21.4847 13.8333 21.2852 13.1602 20.6371C12.512 19.964 12.3126 19.1911 12.2627 18.2936C12.2129 17.3712 12.2129 14.604 12.2627 13.6816C12.3126 12.7841 12.512 11.9864 13.1602 11.3382C13.8333 10.69 14.6061 10.4906 15.5036 10.4407C16.426 10.3908 19.1933 10.3908 20.1157 10.4407C21.0132 10.4906 21.8109 10.69 22.4591 11.3382C23.1073 11.9864 23.3067 12.7841 23.3566 13.6816ZM22.1599 19.2659C22.4591 18.5429 22.3843 16.7978 22.3843 15.9752C22.3843 15.1774 22.4591 13.4323 22.1599 12.6844C21.9605 12.2107 21.5865 11.8119 21.1129 11.6373C20.365 11.3382 18.6199 11.413 17.8221 11.413C16.9994 11.413 15.2543 11.3382 14.5314 11.6373C14.0328 11.8368 13.6588 12.2107 13.4594 12.6844C13.1602 13.4323 13.235 15.1774 13.235 15.9752C13.235 16.7978 13.1602 18.5429 13.4594 19.2659C13.6588 19.7645 14.0328 20.1385 14.5314 20.3379C15.2543 20.6371 16.9994 20.5623 17.8221 20.5623C18.6199 20.5623 20.365 20.6371 21.1129 20.3379C21.5865 20.1385 21.9854 19.7645 22.1599 19.2659Z" fill="white"/>
</svg>
