<svg width="53" height="53" viewBox="0 0 53 53" fill="none" xmlns="http://www.w3.org/2000/svg">
<rect x="0.25" y="0.177734" width="52.5583" height="52.5583" rx="26.2791" fill="white" fill-opacity="0.05"/>
<rect x="0.625416" y="0.553151" width="51.8075" height="51.8075" rx="25.9037" stroke="#F4F4F4" stroke-opacity="0.5" stroke-width="0.750833"/>
<path d="M25.875 34.675C25.2885 33.8196 24.6163 32.8542 23.8586 31.7788C23.1254 30.7034 22.5999 29.9457 22.2822 29.5057C21.9645 29.0658 21.5978 28.5281 21.1823 27.8926C20.7668 27.2327 20.4858 26.7683 20.3391 26.4995C20.2169 26.2306 20.0703 25.8884 19.8992 25.4729C19.7525 25.0574 19.6548 24.703 19.6059 24.4098C19.5814 24.092 19.5692 23.7254 19.5692 23.3099C19.5692 21.3546 20.2536 19.6926 21.6223 18.3239C22.991 16.9552 24.653 16.2708 26.6083 16.2708C28.5636 16.2708 30.2256 16.9552 31.5943 18.3239C32.963 19.6926 33.6473 21.3546 33.6473 23.3099C33.6473 23.7254 33.6229 24.092 33.574 24.4098C33.5496 24.703 33.4518 25.0574 33.2807 25.4729C33.1341 25.8884 32.9874 26.2306 32.8408 26.4995C32.7186 26.7683 32.4497 27.2327 32.0342 27.8926C31.6187 28.5281 31.2521 29.0658 30.9344 29.5057C30.6166 29.9457 30.0789 30.7034 29.3213 31.7788C28.588 32.8542 27.9281 33.8196 27.3415 34.675C27.1704 34.9195 26.926 35.0417 26.6083 35.0417C26.2905 35.0417 26.0461 34.9195 25.875 34.675ZM24.5186 25.3996C25.1051 25.9618 25.8017 26.2428 26.6083 26.2428C27.4148 26.2428 28.0992 25.9618 28.6613 25.3996C29.2479 24.813 29.5412 24.1165 29.5412 23.3099C29.5412 22.5033 29.2479 21.819 28.6613 21.2568C28.0992 20.6703 27.4148 20.377 26.6083 20.377C25.8017 20.377 25.1051 20.6703 24.5186 21.2568C23.9564 21.819 23.6753 22.5033 23.6753 23.3099C23.6753 24.1165 23.9564 24.813 24.5186 25.3996Z" fill="white"/>
</svg>
