<svg width="54" height="53" viewBox="0 0 54 53" fill="none" xmlns="http://www.w3.org/2000/svg">
<rect x="0.814453" y="0.177734" width="52.5583" height="52.5583" rx="26.2791" fill="white" fill-opacity="0.05"/>
<rect x="1.18987" y="0.553151" width="51.8075" height="51.8075" rx="25.9037" stroke="#F4F4F4" stroke-opacity="0.5" stroke-width="0.750833"/>
<path d="M36.1863 23.2732C36.2596 23.1999 36.333 23.1877 36.4063 23.2366C36.5041 23.2855 36.5529 23.3588 36.5529 23.4565V30.9355C36.5529 31.4244 36.3818 31.8399 36.0397 32.182C35.6975 32.5242 35.282 32.6953 34.7932 32.6953H19.5419C19.0531 32.6953 18.6376 32.5242 18.2954 32.182C17.9532 31.8399 17.7821 31.4244 17.7821 30.9355V23.4565C17.7821 23.3588 17.8188 23.2977 17.8921 23.2732C17.9899 23.2244 18.0754 23.2244 18.1487 23.2732C18.9553 23.8843 20.8373 25.2652 23.7946 27.416C23.8435 27.4649 24.0024 27.5993 24.2712 27.8193C24.5645 28.0393 24.7967 28.2104 24.9678 28.3326C25.1389 28.4303 25.3589 28.5648 25.6277 28.7358C25.8966 28.8825 26.1532 28.9925 26.3976 29.0658C26.6665 29.1391 26.9231 29.1758 27.1675 29.1758C27.3875 29.1758 27.6075 29.1513 27.8274 29.1025C28.0474 29.0291 28.2552 28.9558 28.4507 28.8825C28.6462 28.7847 28.854 28.6625 29.0739 28.5159C29.2939 28.3692 29.4772 28.247 29.6239 28.1493C29.7705 28.027 29.9416 27.8926 30.1371 27.746C30.3327 27.5993 30.4671 27.4893 30.5404 27.416C33.4245 25.3385 35.3064 23.9576 36.1863 23.2732ZM27.1675 28.0026C26.972 28.0026 26.7276 27.9415 26.4343 27.8193C26.1654 27.6727 25.9455 27.5504 25.7744 27.4527C25.6033 27.3305 25.3467 27.1472 25.0045 26.9028C24.6867 26.6339 24.5157 26.4995 24.4912 26.4995C21.5094 24.3242 19.383 22.7478 18.1121 21.7701C17.8921 21.599 17.7821 21.3668 17.7821 21.0735V20.377C17.7821 19.8881 17.9532 19.4726 18.2954 19.1305C18.6376 18.7883 19.0531 18.6172 19.5419 18.6172H34.7932C35.282 18.6172 35.6975 18.7883 36.0397 19.1305C36.3818 19.4726 36.5529 19.8881 36.5529 20.377V21.0735C36.5529 21.3668 36.443 21.599 36.223 21.7701C35.0254 22.6989 32.899 24.2753 29.8438 26.4995C29.8194 26.4995 29.6361 26.6339 29.2939 26.9028C28.9762 27.1472 28.7318 27.3305 28.5607 27.4527C28.3896 27.5504 28.1574 27.6727 27.8641 27.8193C27.5952 27.9415 27.3631 28.0026 27.1675 28.0026Z" fill="white"/>
</svg>
