<svg width="54" height="53" viewBox="0 0 54 53" fill="none" xmlns="http://www.w3.org/2000/svg">
<rect x="0.933594" y="0.177734" width="52.5583" height="52.5583" rx="26.2791" fill="white" fill-opacity="0.05"/>
<rect x="1.30901" y="0.553151" width="51.8075" height="51.8075" rx="25.9037" stroke="#F4F4F4" stroke-opacity="0.5" stroke-width="0.750833"/>
<path d="M36.259 34.7211C36.1693 35.1871 35.8924 35.4242 35.4281 35.4323C30.7361 35.5142 26.6993 33.9224 23.3178 30.6569C19.9363 27.3914 18.2046 23.4127 18.1227 18.7207C18.1146 18.2564 18.3418 17.9713 18.8044 17.8655L22.6013 16.9192C23.0635 16.7889 23.3964 16.9542 23.6 17.4151L25.4312 21.4899C25.6091 21.8779 25.5295 22.2215 25.1925 22.5207L23.0245 24.3553C23.7094 25.7855 24.6236 27.0407 25.7669 28.1208C26.9107 29.2253 28.197 30.0951 29.6259 30.7301L31.4203 28.4988C31.6831 28.152 32.0238 28.0605 32.4422 28.2243L36.5784 29.9121C37.0217 30.0999 37.1863 30.4271 37.0722 30.8935L36.259 34.7211Z" fill="white"/>
</svg>
