<svg width="98" height="98" viewBox="0 0 98 98" fill="none" xmlns="http://www.w3.org/2000/svg">
<rect x="10" y="10" width="78" height="78" rx="39" fill="#8156E5"/>
<g clip-path="url(#clip0_2835_1998)">
<path d="M41.8112 30.9766L40.4335 31.4358C38.5038 32.0806 37.2189 32.9294 36.4675 33.9871C35.7114 35.0447 35.5908 36.2693 35.7856 37.248C35.9619 38.134 36.3654 38.8345 36.7365 39.4004C36.3979 39.5999 36.319 39.5303 35.9619 39.8875C34.997 40.8523 34.2131 42.6567 34.9321 44.8137C35.4748 46.4465 36.7365 47.3279 37.757 47.6897C38.0446 47.7918 38.0493 47.7314 38.3044 47.7778C38.2302 48.1907 38.1467 48.2417 38.1559 48.8169C38.1791 50.1389 38.6476 51.9294 40.3129 53.0056C41.1896 53.5715 42.1684 53.8591 43.1286 54.0122L36.5556 62.7747L37.9936 63.3499C44.4877 65.9522 51.8725 63.3777 51.8725 63.3777L52.6843 63.104V58.5349C53.6027 58.4004 54.8923 58.1499 56.4833 57.4819C58.9975 56.429 61.8364 54.2766 62.1796 50.4822C62.3141 49.0117 61.9709 47.4624 61.6276 46.2053C61.5395 45.876 61.5302 45.9038 61.4421 45.6255H65.3432L64.4201 43.8813C64.4201 43.8813 63.7985 42.6614 63.4738 41.9934C64.4016 39.9246 63.7289 37.6702 62.0173 36.7192C61.5441 36.4548 61.0107 36.2925 60.4448 36.2461C58.7609 36.1023 56.8127 36.9604 55.3005 38.9736C55.1474 39.1777 54.5119 39.9292 54.1501 40.3652C54.0388 40.1472 53.9182 39.8782 53.7836 39.5442C53.2548 38.2129 52.6843 35.9956 52.6843 32.563V31.3755H51.4968C50.1098 31.3755 48.9919 31.7373 48.194 32.3774C47.3962 33.0176 46.9741 33.8757 46.7839 34.6504C46.5148 35.7126 46.6911 36.158 46.7839 36.6775C46.3664 36.8677 46.0695 36.9048 45.4619 37.5125C45.1 37.8743 44.7661 38.3521 44.5248 38.918C43.3095 37.2017 42.3168 35.0586 41.9875 32.4146L41.8112 30.9766ZM50.4345 34.0334C50.5829 36.8491 51.0283 39.0432 51.5849 40.4255C51.9189 41.2605 52.2807 41.8774 52.5637 42.2903C51.7426 43.269 51.52 43.5474 50.8845 44.2896C50.0402 43.8813 48.3378 42.9304 46.5983 41.293C46.3432 40.1936 46.6772 39.6555 47.1411 39.1917C47.6606 38.6721 48.31 38.4402 48.31 38.4402L49.3537 38.0923L49.0847 37.0254C49.0847 37.0254 48.8806 36.0513 49.0847 35.2256C49.1913 34.8127 49.363 34.4834 49.6784 34.2329C49.8083 34.1262 50.2119 34.1169 50.4345 34.0334ZM40.03 34.3906C40.8232 37.8047 42.5673 40.4163 44.4089 42.3413C44.4182 42.3738 44.4228 42.4063 44.4321 42.4387L44.4831 42.4202C46.5798 44.5911 48.7275 45.8389 49.8176 46.3955L51.2138 47.583C51.2138 47.583 56.0519 41.9192 57.1931 40.4023H57.1977C58.7424 38.3428 60.1015 38.3752 60.8669 38.7974C61.6276 39.2195 62.0776 40.0776 61.1962 41.4043L60.8437 41.9331L61.0895 42.5176C61.187 42.7588 61.2936 42.9258 61.456 43.2505H58.0651L58.7006 44.8694C58.7006 44.8694 59.03 45.709 59.3408 46.8315C59.6469 47.9541 59.8974 49.3735 59.8139 50.2688C59.5634 53.0056 57.6523 54.4158 55.5649 55.2925C53.4775 56.1692 51.4179 56.313 51.4179 56.313L50.3093 56.3872V61.2856C49.2841 61.5825 44.9841 62.6077 40.4846 61.4944L46.0046 54.1421C47.2338 54.0818 48.1569 53.9194 48.1569 53.9194L47.7116 51.5815C47.7116 51.5815 46.6865 51.781 45.3598 51.7903C44.0378 51.8042 42.4838 51.5815 41.6025 51.011C40.7443 50.4543 40.5449 49.6472 40.5309 48.7798C40.517 47.9077 40.749 47.1887 40.749 47.1887L41.301 45.5327L39.5568 45.6255C39.5568 45.6255 39.1022 45.6487 38.5549 45.4539C38.0029 45.2544 37.4833 44.9482 37.1865 44.0623C36.718 42.6567 37.1215 42.0862 37.6411 41.5667C38.1606 41.0471 38.81 40.8152 38.81 40.8152L40.633 40.2075L39.2739 38.8484C39.2739 38.8484 38.3137 37.7908 38.1142 36.7842C38.0121 36.2786 38.04 35.8704 38.3972 35.3694C38.6105 35.0771 39.4409 34.7292 40.03 34.3906Z" fill="white"/>
</g>
<rect x="0.75" y="0.75" width="96.5" height="96.5" rx="48.25" stroke="#0E2A46" stroke-dasharray="3 2"/>
<defs>
<clipPath id="clip0_2835_1998">
<rect width="38.02" height="38" fill="white" transform="matrix(1 0 0 -1 29.9805 67)"/>
</clipPath>
</defs>
</svg>
