<svg width="98" height="98" viewBox="0 0 98 98" fill="none" xmlns="http://www.w3.org/2000/svg">
<rect x="10" y="10" width="78" height="78" rx="39" fill="#8156E5"/>
<g clip-path="url(#clip0_2835_1991)">
<path d="M53.0547 38.2759C52.396 38.2805 51.7419 38.313 51.0508 38.4986C50.3596 38.6841 49.6685 38.981 48.9355 39.4634C48.0264 38.93 47.145 38.4893 46.3008 38.3872C45.2524 38.2574 44.2783 38.3269 43.1465 38.3501C41.8059 38.378 40.9292 39.0645 39.5098 39.6118C38.0903 40.1592 36.2627 40.688 33.6836 40.688H32.4961V52.1177L33.1641 52.4517L35.3535 53.5279L43.1465 62.2115L43.1836 62.2486C44.0742 63.1299 45.2756 63.3479 46.3379 63.2876C47.4001 63.2273 48.3975 62.9165 49.1953 62.4341C50.9487 61.3765 55.7266 58.0552 55.7266 58.0552L55.8379 57.981L55.9121 57.9068C56.478 57.3455 56.761 56.659 56.9512 55.94L61.5156 53.6392L64.9297 52.4888L65.7461 52.229V40.688H64.5586C61.9841 40.688 60.1519 40.1314 58.7324 39.5747C57.313 39.0181 56.4502 38.3408 55.0957 38.313C54.3721 38.2991 53.7134 38.2713 53.0547 38.2759ZM53.0918 40.6509C53.6252 40.6463 54.2422 40.6741 55.0215 40.688C55.1467 40.6927 56.2878 41.1797 57.8789 41.8013C59.2241 42.3301 61.0935 42.7986 63.3711 42.9517V50.522L60.625 51.4497H60.5508L60.4766 51.4868L56.877 53.3052C56.6775 52.7625 56.4038 52.2615 55.9863 51.8208L55.9121 51.7095L50.8652 45.5122L50.123 44.5845L49.1953 45.3267L46.0039 47.9243C44.9324 48.6665 44.0649 48.4532 43.1836 48.0357C42.9285 47.9151 42.9424 47.878 42.7383 47.7388L48.1562 43.2486L48.2305 43.1743C49.8401 41.5786 50.8281 41.0266 51.6816 40.7993C52.1084 40.6834 52.5583 40.6555 53.0918 40.6509ZM44.8164 40.688C45.271 40.6787 45.6514 40.6834 46.0039 40.7251C46.3147 40.7622 46.6672 41.0266 46.9688 41.1333C46.8481 41.2447 46.76 41.3096 46.6348 41.4302C46.6069 41.458 46.5884 41.4766 46.5605 41.5044L40.0664 46.8853L39.0645 47.7017L39.9551 48.6294C39.9551 48.6294 40.8132 49.5572 42.1445 50.188C43.4758 50.8189 45.5308 51.1761 47.377 49.8911L47.4512 49.8169L49.752 47.9243L54.1309 53.3052L54.168 53.3794L54.2051 53.4165C54.989 54.1912 54.9705 55.4112 54.2051 56.1997C54.1958 56.209 54.2144 56.2276 54.2051 56.2368C54.1958 56.2415 54.0381 56.3343 54.0195 56.3482L52.4609 54.2329L50.5312 55.6431L52.0527 57.6841C51.4358 58.1016 51.1575 58.3196 50.4941 58.7603L48.8984 56.6079L46.9688 58.0181L48.4902 60.0591C48.3557 60.1426 48.0774 60.3282 47.9707 60.3931C47.595 60.6204 46.8713 60.8755 46.2266 60.9126C45.6189 60.9451 45.155 60.8059 44.9277 60.6158L44.8906 60.5786L36.9492 51.7837L36.8008 51.5982L34.8711 50.6333V42.9517C37.1394 42.8033 39.0227 42.3533 40.3633 41.8384C41.9497 41.2307 43.0815 40.7298 43.2207 40.7251C43.8284 40.7112 44.3618 40.6973 44.8164 40.688Z" fill="white"/>
</g>
<rect x="0.75" y="0.75" width="96.5" height="96.5" rx="48.25" stroke="#0E2A46" stroke-dasharray="3 2"/>
<defs>
<clipPath id="clip0_2835_1991">
<rect width="38.02" height="38" fill="white" transform="matrix(1 0 0 -1 29.9805 68)"/>
</clipPath>
</defs>
</svg>
