<svg width="98" height="98" viewBox="0 0 98 98" fill="none" xmlns="http://www.w3.org/2000/svg">
<rect x="10" y="10" width="78" height="78" rx="39" fill="#8156E5"/>
<g clip-path="url(#clip0_2835_1984)">
<g clip-path="url(#clip1_2835_1984)">
<path d="M48.1211 31.5234L47.0449 33.9727L43.1855 42.6191L33.7598 43.6211L31.0879 43.918L33.0918 45.6992L40.1055 52.0449L38.1387 61.3223L37.582 63.9199L39.9199 62.584L48.1211 57.834L56.3223 62.584L58.6602 63.9199L58.1035 61.3223L56.1367 52.0449L63.1504 45.6992L65.1543 43.918L62.4824 43.6211L53.0566 42.6191L49.1973 33.9727L48.1211 31.5234ZM48.1211 37.3496L51.1641 44.2148L51.4609 44.8457L52.1289 44.9199L59.5879 45.6992L54.0215 50.709L53.502 51.1914L53.6504 51.8594L55.209 59.1699L48.7148 55.459L48.1211 55.0879L47.5273 55.459L41.0332 59.1699L42.5918 51.8594L42.7402 51.1914L42.2207 50.709L36.6543 45.6992L44.1133 44.9199L44.7812 44.8457L45.0781 44.2148L48.1211 37.3496Z" fill="white"/>
</g>
</g>
<rect x="0.75" y="0.75" width="96.5" height="96.5" rx="48.25" stroke="#0E2A46" stroke-dasharray="3 2"/>
<defs>
<clipPath id="clip0_2835_1984">
<rect width="38.02" height="38" fill="white" transform="matrix(1 0 0 -1 29.9805 68)"/>
</clipPath>
<clipPath id="clip1_2835_1984">
<rect width="38.02" height="38" fill="white" transform="matrix(1 0 0 -1 29.0508 67)"/>
</clipPath>
</defs>
</svg>
