<svg width="337" height="85" viewBox="0 0 337 85" fill="none" xmlns="http://www.w3.org/2000/svg">
<path d="M54.6131 27.05H43.8881L41.8421 32H36.3641L46.6601 8.9H51.9401L62.2691 32H56.6591L54.6131 27.05ZM52.9301 22.991L49.2671 14.147L45.6041 22.991H52.9301ZM70.1146 32.264C68.6406 32.264 67.1996 32.088 65.7916 31.736C64.3836 31.362 63.2616 30.9 62.4256 30.35L64.1416 26.654C64.9336 27.16 65.8906 27.578 67.0126 27.908C68.1346 28.216 69.2346 28.37 70.3126 28.37C72.4906 28.37 73.5796 27.831 73.5796 26.753C73.5796 26.247 73.2826 25.884 72.6886 25.664C72.0946 25.444 71.1816 25.257 69.9496 25.103C68.4976 24.883 67.2986 24.63 66.3526 24.344C65.4066 24.058 64.5816 23.552 63.8776 22.826C63.1956 22.1 62.8546 21.066 62.8546 19.724C62.8546 18.602 63.1736 17.612 63.8116 16.754C64.4716 15.874 65.4176 15.192 66.6496 14.708C67.9036 14.224 69.3776 13.982 71.0716 13.982C72.3256 13.982 73.5686 14.125 74.8006 14.411C76.0546 14.675 77.0886 15.049 77.9026 15.533L76.1866 19.196C74.6246 18.316 72.9196 17.876 71.0716 17.876C69.9716 17.876 69.1466 18.03 68.5966 18.338C68.0466 18.646 67.7716 19.042 67.7716 19.526C67.7716 20.076 68.0686 20.461 68.6626 20.681C69.2566 20.901 70.2026 21.11 71.5006 21.308C72.9526 21.55 74.1406 21.814 75.0646 22.1C75.9886 22.364 76.7916 22.859 77.4736 23.585C78.1556 24.311 78.4966 25.323 78.4966 26.621C78.4966 27.721 78.1666 28.7 77.5066 29.558C76.8466 30.416 75.8786 31.087 74.6026 31.571C73.3486 32.033 71.8526 32.264 70.1146 32.264ZM81.6729 14.246H86.8209V32H81.6729V14.246ZM85.6989 7.217H91.2429L85.2699 11.969H81.2439L85.6989 7.217ZM118.335 23.189C118.335 23.255 118.302 23.717 118.236 24.575H104.805C105.047 25.675 105.619 26.544 106.521 27.182C107.423 27.82 108.545 28.139 109.887 28.139C110.811 28.139 111.625 28.007 112.329 27.743C113.055 27.457 113.726 27.017 114.342 26.423L117.081 29.393C115.409 31.307 112.967 32.264 109.755 32.264C107.753 32.264 105.982 31.879 104.442 31.109C102.902 30.317 101.714 29.228 100.878 27.842C100.042 26.456 99.6244 24.883 99.6244 23.123C99.6244 21.385 100.031 19.823 100.845 18.437C101.681 17.029 102.814 15.94 104.244 15.17C105.696 14.378 107.313 13.982 109.095 13.982C110.833 13.982 112.406 14.356 113.814 15.104C115.222 15.852 116.322 16.93 117.114 18.338C117.928 19.724 118.335 21.341 118.335 23.189ZM109.128 17.876C107.962 17.876 106.983 18.206 106.191 18.866C105.399 19.526 104.915 20.428 104.739 21.572H113.484C113.308 20.45 112.824 19.559 112.032 18.899C111.24 18.217 110.272 17.876 109.128 17.876ZM127.736 32.264C126.262 32.264 124.821 32.088 123.413 31.736C122.005 31.362 120.883 30.9 120.047 30.35L121.763 26.654C122.555 27.16 123.512 27.578 124.634 27.908C125.756 28.216 126.856 28.37 127.934 28.37C130.112 28.37 131.201 27.831 131.201 26.753C131.201 26.247 130.904 25.884 130.31 25.664C129.716 25.444 128.803 25.257 127.571 25.103C126.119 24.883 124.92 24.63 123.974 24.344C123.028 24.058 122.203 23.552 121.499 22.826C120.817 22.1 120.476 21.066 120.476 19.724C120.476 18.602 120.795 17.612 121.433 16.754C122.093 15.874 123.039 15.192 124.271 14.708C125.525 14.224 126.999 13.982 128.693 13.982C129.947 13.982 131.19 14.125 132.422 14.411C133.676 14.675 134.71 15.049 135.524 15.533L133.808 19.196C132.246 18.316 130.541 17.876 128.693 17.876C127.593 17.876 126.768 18.03 126.218 18.338C125.668 18.646 125.393 19.042 125.393 19.526C125.393 20.076 125.69 20.461 126.284 20.681C126.878 20.901 127.824 21.11 129.122 21.308C130.574 21.55 131.762 21.814 132.686 22.1C133.61 22.364 134.413 22.859 135.095 23.585C135.777 24.311 136.118 25.323 136.118 26.621C136.118 27.721 135.788 28.7 135.128 29.558C134.468 30.416 133.5 31.087 132.224 31.571C130.97 32.033 129.474 32.264 127.736 32.264ZM154.613 32.264C153.139 32.264 151.698 32.088 150.29 31.736C148.882 31.362 147.76 30.9 146.924 30.35L148.64 26.654C149.432 27.16 150.389 27.578 151.511 27.908C152.633 28.216 153.733 28.37 154.811 28.37C156.989 28.37 158.078 27.831 158.078 26.753C158.078 26.247 157.781 25.884 157.187 25.664C156.593 25.444 155.68 25.257 154.448 25.103C152.996 24.883 151.797 24.63 150.851 24.344C149.905 24.058 149.08 23.552 148.376 22.826C147.694 22.1 147.353 21.066 147.353 19.724C147.353 18.602 147.672 17.612 148.31 16.754C148.97 15.874 149.916 15.192 151.148 14.708C152.402 14.224 153.876 13.982 155.57 13.982C156.824 13.982 158.067 14.125 159.299 14.411C160.553 14.675 161.587 15.049 162.401 15.533L160.685 19.196C159.123 18.316 157.418 17.876 155.57 17.876C154.47 17.876 153.645 18.03 153.095 18.338C152.545 18.646 152.27 19.042 152.27 19.526C152.27 20.076 152.567 20.461 153.161 20.681C153.755 20.901 154.701 21.11 155.999 21.308C157.451 21.55 158.639 21.814 159.563 22.1C160.487 22.364 161.29 22.859 161.972 23.585C162.654 24.311 162.995 25.323 162.995 26.621C162.995 27.721 162.665 28.7 162.005 29.558C161.345 30.416 160.377 31.087 159.101 31.571C157.847 32.033 156.351 32.264 154.613 32.264ZM183.562 23.189C183.562 23.255 183.529 23.717 183.463 24.575H170.032C170.274 25.675 170.846 26.544 171.748 27.182C172.65 27.82 173.772 28.139 175.114 28.139C176.038 28.139 176.852 28.007 177.556 27.743C178.282 27.457 178.953 27.017 179.569 26.423L182.308 29.393C180.636 31.307 178.194 32.264 174.982 32.264C172.98 32.264 171.209 31.879 169.669 31.109C168.129 30.317 166.941 29.228 166.105 27.842C165.269 26.456 164.851 24.883 164.851 23.123C164.851 21.385 165.258 19.823 166.072 18.437C166.908 17.029 168.041 15.94 169.471 15.17C170.923 14.378 172.54 13.982 174.322 13.982C176.06 13.982 177.633 14.356 179.041 15.104C180.449 15.852 181.549 16.93 182.341 18.338C183.155 19.724 183.562 21.341 183.562 23.189ZM174.355 17.876C173.189 17.876 172.21 18.206 171.418 18.866C170.626 19.526 170.142 20.428 169.966 21.572H178.711C178.535 20.45 178.051 19.559 177.259 18.899C176.467 18.217 175.499 17.876 174.355 17.876ZM191.906 16.589C192.522 15.731 193.347 15.082 194.381 14.642C195.437 14.202 196.647 13.982 198.011 13.982V18.734C197.439 18.69 197.054 18.668 196.856 18.668C195.382 18.668 194.227 19.086 193.391 19.922C192.555 20.736 192.137 21.968 192.137 23.618V32H186.989V14.246H191.906V16.589ZM221.041 13.982C222.691 13.982 224.187 14.367 225.529 15.137C226.893 15.885 227.96 16.952 228.73 18.338C229.5 19.702 229.885 21.297 229.885 23.123C229.885 24.949 229.5 26.555 228.73 27.941C227.96 29.305 226.893 30.372 225.529 31.142C224.187 31.89 222.691 32.264 221.041 32.264C218.775 32.264 216.993 31.549 215.695 30.119V38.402H210.547V14.246H215.464V16.292C216.74 14.752 218.599 13.982 221.041 13.982ZM220.15 28.04C221.47 28.04 222.548 27.6 223.384 26.72C224.242 25.818 224.671 24.619 224.671 23.123C224.671 21.627 224.242 20.439 223.384 19.559C222.548 18.657 221.47 18.206 220.15 18.206C218.83 18.206 217.741 18.657 216.883 19.559C216.047 20.439 215.629 21.627 215.629 23.123C215.629 24.619 216.047 25.818 216.883 26.72C217.741 27.6 218.83 28.04 220.15 28.04ZM240.202 13.982C242.952 13.982 245.064 14.642 246.538 15.962C248.012 17.26 248.749 19.229 248.749 21.869V32H243.931V29.789C242.963 31.439 241.159 32.264 238.519 32.264C237.155 32.264 235.967 32.033 234.955 31.571C233.965 31.109 233.206 30.471 232.678 29.657C232.15 28.843 231.886 27.919 231.886 26.885C231.886 25.235 232.502 23.937 233.734 22.991C234.988 22.045 236.913 21.572 239.509 21.572H243.601C243.601 20.45 243.26 19.592 242.578 18.998C241.896 18.382 240.873 18.074 239.509 18.074C238.563 18.074 237.628 18.228 236.704 18.536C235.802 18.822 235.032 19.218 234.394 19.724L232.546 16.127C233.514 15.445 234.669 14.917 236.011 14.543C237.375 14.169 238.772 13.982 240.202 13.982ZM239.806 28.799C240.686 28.799 241.467 28.601 242.149 28.205C242.831 27.787 243.315 27.182 243.601 26.39V24.575H240.07C237.958 24.575 236.902 25.268 236.902 26.654C236.902 27.314 237.155 27.842 237.661 28.238C238.189 28.612 238.904 28.799 239.806 28.799ZM258.325 16.589C258.941 15.731 259.766 15.082 260.8 14.642C261.856 14.202 263.066 13.982 264.43 13.982V18.734C263.858 18.69 263.473 18.668 263.275 18.668C261.801 18.668 260.646 19.086 259.81 19.922C258.974 20.736 258.556 21.968 258.556 23.618V32H253.408V14.246H258.325V16.589ZM279.555 31.142C279.049 31.516 278.422 31.802 277.674 32C276.948 32.176 276.178 32.264 275.364 32.264C273.252 32.264 271.613 31.725 270.447 30.647C269.303 29.569 268.731 27.985 268.731 25.895V18.602H265.992V14.642H268.731V10.319H273.879V14.642H278.301V18.602H273.879V25.829C273.879 26.577 274.066 27.16 274.44 27.578C274.836 27.974 275.386 28.172 276.09 28.172C276.904 28.172 277.597 27.952 278.169 27.512L279.555 31.142ZM299.288 23.189C299.288 23.255 299.255 23.717 299.189 24.575H285.758C286 25.675 286.572 26.544 287.474 27.182C288.376 27.82 289.498 28.139 290.84 28.139C291.764 28.139 292.578 28.007 293.282 27.743C294.008 27.457 294.679 27.017 295.295 26.423L298.034 29.393C296.362 31.307 293.92 32.264 290.708 32.264C288.706 32.264 286.935 31.879 285.395 31.109C283.855 30.317 282.667 29.228 281.831 27.842C280.995 26.456 280.577 24.883 280.577 23.123C280.577 21.385 280.984 19.823 281.798 18.437C282.634 17.029 283.767 15.94 285.197 15.17C286.649 14.378 288.266 13.982 290.048 13.982C291.786 13.982 293.359 14.356 294.767 15.104C296.175 15.852 297.275 16.93 298.067 18.338C298.881 19.724 299.288 21.341 299.288 23.189ZM290.081 17.876C288.915 17.876 287.936 18.206 287.144 18.866C286.352 19.526 285.868 20.428 285.692 21.572H294.437C294.261 20.45 293.777 19.559 292.985 18.899C292.193 18.217 291.225 17.876 290.081 17.876ZM20.8179 47.514V72H15.9009V69.954C14.6249 71.494 12.7769 72.264 10.3569 72.264C8.68491 72.264 7.16691 71.89 5.80291 71.142C4.46091 70.394 3.40491 69.327 2.63491 67.941C1.86491 66.555 1.47991 64.949 1.47991 63.123C1.47991 61.297 1.86491 59.691 2.63491 58.305C3.40491 56.919 4.46091 55.852 5.80291 55.104C7.16691 54.356 8.68491 53.982 10.3569 53.982C12.6229 53.982 14.3939 54.697 15.6699 56.127V47.514H20.8179ZM11.2479 68.04C12.5459 68.04 13.6239 67.6 14.4819 66.72C15.3399 65.818 15.7689 64.619 15.7689 63.123C15.7689 61.627 15.3399 60.439 14.4819 59.559C13.6239 58.657 12.5459 58.206 11.2479 58.206C9.92791 58.206 8.83891 58.657 7.98091 59.559C7.12291 60.439 6.69391 61.627 6.69391 63.123C6.69391 64.619 7.12291 65.818 7.98091 66.72C8.83891 67.6 9.92791 68.04 11.2479 68.04ZM42.9735 63.189C42.9735 63.255 42.9405 63.717 42.8745 64.575H29.4435C29.6855 65.675 30.2575 66.544 31.1595 67.182C32.0615 67.82 33.1835 68.139 34.5255 68.139C35.4495 68.139 36.2635 68.007 36.9675 67.743C37.6935 67.457 38.3645 67.017 38.9805 66.423L41.7195 69.393C40.0475 71.307 37.6055 72.264 34.3935 72.264C32.3915 72.264 30.6205 71.879 29.0805 71.109C27.5405 70.317 26.3525 69.228 25.5165 67.842C24.6805 66.456 24.2625 64.883 24.2625 63.123C24.2625 61.385 24.6695 59.823 25.4835 58.437C26.3195 57.029 27.4525 55.94 28.8825 55.17C30.3345 54.378 31.9515 53.982 33.7335 53.982C35.4715 53.982 37.0445 54.356 38.4525 55.104C39.8605 55.852 40.9605 56.93 41.7525 58.338C42.5665 59.724 42.9735 61.341 42.9735 63.189ZM33.7665 57.876C32.6005 57.876 31.6215 58.206 30.8295 58.866C30.0375 59.526 29.5535 60.428 29.3775 61.572H38.1225C37.9465 60.45 37.4625 59.559 36.6705 58.899C35.8785 58.217 34.9105 57.876 33.7665 57.876ZM46.4009 47.514H51.5489V72H46.4009V47.514ZM66.0354 48.9H71.3814V67.644H82.9644V72H66.0354V48.9ZM85.5884 54.246H90.7364V72H85.5884V54.246ZM88.1624 51.771C87.2164 51.771 86.4464 51.496 85.8524 50.946C85.2584 50.396 84.9614 49.714 84.9614 48.9C84.9614 48.086 85.2584 47.404 85.8524 46.854C86.4464 46.304 87.2164 46.029 88.1624 46.029C89.1084 46.029 89.8784 46.293 90.4724 46.821C91.0664 47.349 91.3634 48.009 91.3634 48.801C91.3634 49.659 91.0664 50.374 90.4724 50.946C89.8784 51.496 89.1084 51.771 88.1624 51.771ZM104.094 72.264C102.202 72.264 100.497 71.879 98.9792 71.109C97.4832 70.317 96.3062 69.228 95.4482 67.842C94.6122 66.456 94.1942 64.883 94.1942 63.123C94.1942 61.363 94.6122 59.79 95.4482 58.404C96.3062 57.018 97.4832 55.94 98.9792 55.17C100.497 54.378 102.202 53.982 104.094 53.982C105.964 53.982 107.592 54.378 108.978 55.17C110.386 55.94 111.409 57.051 112.047 58.503L108.054 60.648C107.13 59.02 105.799 58.206 104.061 58.206C102.719 58.206 101.608 58.646 100.728 59.526C99.8482 60.406 99.4082 61.605 99.4082 63.123C99.4082 64.641 99.8482 65.84 100.728 66.72C101.608 67.6 102.719 68.04 104.061 68.04C105.821 68.04 107.152 67.226 108.054 65.598L112.047 67.776C111.409 69.184 110.386 70.284 108.978 71.076C107.592 71.868 105.964 72.264 104.094 72.264ZM132.177 63.189C132.177 63.255 132.144 63.717 132.078 64.575H118.647C118.889 65.675 119.461 66.544 120.363 67.182C121.265 67.82 122.387 68.139 123.729 68.139C124.653 68.139 125.467 68.007 126.171 67.743C126.897 67.457 127.568 67.017 128.184 66.423L130.923 69.393C129.251 71.307 126.809 72.264 123.597 72.264C121.595 72.264 119.824 71.879 118.284 71.109C116.744 70.317 115.556 69.228 114.72 67.842C113.884 66.456 113.466 64.883 113.466 63.123C113.466 61.385 113.873 59.823 114.687 58.437C115.523 57.029 116.656 55.94 118.086 55.17C119.538 54.378 121.155 53.982 122.937 53.982C124.675 53.982 126.248 54.356 127.656 55.104C129.064 55.852 130.164 56.93 130.956 58.338C131.77 59.724 132.177 61.341 132.177 63.189ZM122.97 57.876C121.804 57.876 120.825 58.206 120.033 58.866C119.241 59.526 118.757 60.428 118.581 61.572H127.326C127.15 60.45 126.666 59.559 125.874 58.899C125.082 58.217 124.114 57.876 122.97 57.876ZM144.052 72.264C142.182 72.264 140.499 71.879 139.003 71.109C137.529 70.317 136.374 69.228 135.538 67.842C134.702 66.456 134.284 64.883 134.284 63.123C134.284 61.363 134.702 59.79 135.538 58.404C136.374 57.018 137.529 55.94 139.003 55.17C140.499 54.378 142.182 53.982 144.052 53.982C145.922 53.982 147.594 54.378 149.068 55.17C150.542 55.94 151.697 57.018 152.533 58.404C153.369 59.79 153.787 61.363 153.787 63.123C153.787 64.883 153.369 66.456 152.533 67.842C151.697 69.228 150.542 70.317 149.068 71.109C147.594 71.879 145.922 72.264 144.052 72.264ZM144.052 68.04C145.372 68.04 146.45 67.6 147.286 66.72C148.144 65.818 148.573 64.619 148.573 63.123C148.573 61.627 148.144 60.439 147.286 59.559C146.45 58.657 145.372 58.206 144.052 58.206C142.732 58.206 141.643 58.657 140.785 59.559C139.927 60.439 139.498 61.627 139.498 63.123C139.498 64.619 139.927 65.818 140.785 66.72C141.643 67.6 142.732 68.04 144.052 68.04ZM187.958 72L187.925 58.14L181.127 69.558H178.718L171.953 58.437V72H166.937V48.9H171.359L180.005 63.255L188.519 48.9H192.908L192.974 72H187.958ZM205.252 53.982C208.002 53.982 210.114 54.642 211.588 55.962C213.062 57.26 213.799 59.229 213.799 61.869V72H208.981V69.789C208.013 71.439 206.209 72.264 203.569 72.264C202.205 72.264 201.017 72.033 200.005 71.571C199.015 71.109 198.256 70.471 197.728 69.657C197.2 68.843 196.936 67.919 196.936 66.885C196.936 65.235 197.552 63.937 198.784 62.991C200.038 62.045 201.963 61.572 204.559 61.572H208.651C208.651 60.45 208.31 59.592 207.628 58.998C206.946 58.382 205.923 58.074 204.559 58.074C203.613 58.074 202.678 58.228 201.754 58.536C200.852 58.822 200.082 59.218 199.444 59.724L197.596 56.127C198.564 55.445 199.719 54.917 201.061 54.543C202.425 54.169 203.822 53.982 205.252 53.982ZM204.856 68.799C205.736 68.799 206.517 68.601 207.199 68.205C207.881 67.787 208.365 67.182 208.651 66.39V64.575H205.12C203.008 64.575 201.952 65.268 201.952 66.654C201.952 67.314 202.205 67.842 202.711 68.238C203.239 68.612 203.954 68.799 204.856 68.799ZM229.25 53.982C231.45 53.982 233.221 54.642 234.563 55.962C235.927 57.282 236.609 59.24 236.609 61.836V72H231.461V62.628C231.461 61.22 231.153 60.175 230.537 59.493C229.921 58.789 229.03 58.437 227.864 58.437C226.566 58.437 225.532 58.844 224.762 59.658C223.992 60.45 223.607 61.638 223.607 63.222V72H218.459V54.246H223.376V56.325C224.058 55.577 224.905 55.005 225.917 54.609C226.929 54.191 228.04 53.982 229.25 53.982ZM248.436 53.982C251.186 53.982 253.298 54.642 254.772 55.962C256.246 57.26 256.983 59.229 256.983 61.869V72H252.165V69.789C251.197 71.439 249.393 72.264 246.753 72.264C245.389 72.264 244.201 72.033 243.189 71.571C242.199 71.109 241.44 70.471 240.912 69.657C240.384 68.843 240.12 67.919 240.12 66.885C240.12 65.235 240.736 63.937 241.968 62.991C243.222 62.045 245.147 61.572 247.743 61.572H251.835C251.835 60.45 251.494 59.592 250.812 58.998C250.13 58.382 249.107 58.074 247.743 58.074C246.797 58.074 245.862 58.228 244.938 58.536C244.036 58.822 243.266 59.218 242.628 59.724L240.78 56.127C241.748 55.445 242.903 54.917 244.245 54.543C245.609 54.169 247.006 53.982 248.436 53.982ZM248.04 68.799C248.92 68.799 249.701 68.601 250.383 68.205C251.065 67.787 251.549 67.182 251.835 66.39V64.575H248.304C246.192 64.575 245.136 65.268 245.136 66.654C245.136 67.314 245.389 67.842 245.895 68.238C246.423 68.612 247.138 68.799 248.04 68.799ZM272.433 53.982C274.633 53.982 276.404 54.642 277.746 55.962C279.11 57.282 279.792 59.24 279.792 61.836V72H274.644V62.628C274.644 61.22 274.336 60.175 273.72 59.493C273.104 58.789 272.213 58.437 271.047 58.437C269.749 58.437 268.715 58.844 267.945 59.658C267.175 60.45 266.79 61.638 266.79 63.222V72H261.642V54.246H266.559V56.325C267.241 55.577 268.088 55.005 269.1 54.609C270.112 54.191 271.223 53.982 272.433 53.982ZM295.91 71.142C295.404 71.516 294.777 71.802 294.029 72C293.303 72.176 292.533 72.264 291.719 72.264C289.607 72.264 287.968 71.725 286.802 70.647C285.658 69.569 285.086 67.985 285.086 65.895V58.602H282.347V54.642H285.086V50.319H290.234V54.642H294.656V58.602H290.234V65.829C290.234 66.577 290.421 67.16 290.795 67.578C291.191 67.974 291.741 68.172 292.445 68.172C293.259 68.172 293.952 67.952 294.524 67.512L295.91 71.142ZM298.799 54.246H303.947V72H298.799V54.246ZM301.373 51.771C300.427 51.771 299.657 51.496 299.063 50.946C298.469 50.396 298.172 49.714 298.172 48.9C298.172 48.086 298.469 47.404 299.063 46.854C299.657 46.304 300.427 46.029 301.373 46.029C302.319 46.029 303.089 46.293 303.683 46.821C304.277 47.349 304.574 48.009 304.574 48.801C304.574 49.659 304.277 50.374 303.683 50.946C303.089 51.496 302.319 51.771 301.373 51.771ZM315.886 53.982C318.636 53.982 320.748 54.642 322.222 55.962C323.696 57.26 324.433 59.229 324.433 61.869V72H319.615V69.789C318.647 71.439 316.843 72.264 314.203 72.264C312.839 72.264 311.651 72.033 310.639 71.571C309.649 71.109 308.89 70.471 308.362 69.657C307.834 68.843 307.57 67.919 307.57 66.885C307.57 65.235 308.186 63.937 309.418 62.991C310.672 62.045 312.597 61.572 315.193 61.572H319.285C319.285 60.45 318.944 59.592 318.262 58.998C317.58 58.382 316.557 58.074 315.193 58.074C314.247 58.074 313.312 58.228 312.388 58.536C311.486 58.822 310.716 59.218 310.078 59.724L308.23 56.127C309.198 55.445 310.353 54.917 311.695 54.543C313.059 54.169 314.456 53.982 315.886 53.982ZM315.49 68.799C316.37 68.799 317.151 68.601 317.833 68.205C318.515 67.787 318.999 67.182 319.285 66.39V64.575H315.754C313.642 64.575 312.586 65.268 312.586 66.654C312.586 67.314 312.839 67.842 313.345 68.238C313.873 68.612 314.588 68.799 315.49 68.799ZM329.092 47.514H334.24V72H329.092V47.514Z" fill="#252B42"/>
<path d="M177.976 38.9477C184.238 36.9187 189.25 35.4761 197.001 34.7016C203.516 34.0506 210.167 33.6951 216.727 33.5909C235.667 33.2901 253.702 36.0306 267.652 39.9722C282.521 44.1732 292.454 50.5218 291.662 57.9696C290.708 66.9267 273.614 74.4015 251.744 78.5868C223.231 84.0434 188.226 84.2897 159.841 81.8422C134.018 79.6157 102.288 74.3535 92.41 64.7637C83.8049 56.4098 102.809 46.8456 121.776 41.5135C137.496 37.0946 156.307 34.4253 174.82 35.3339C188.474 36.004 202.304 37.6336 213.643 40.1928C226.414 43.0752 235.327 47.2477 244.798 51.3821" stroke="#704FE6" stroke-width="2.2701" stroke-linecap="round"/>
</svg>
