<svg width="486" height="101" viewBox="0 0 486 101" fill="none" xmlns="http://www.w3.org/2000/svg">
<path d="M271.379 44.5231C276.486 42.0347 280.574 40.2654 286.894 39.3156C292.207 38.5173 297.632 38.0812 302.982 37.9534C318.428 37.5846 333.136 40.9455 344.513 45.7796C356.639 50.9317 364.74 58.7178 364.094 67.8518C363.316 78.837 349.375 88.0042 331.539 93.1371C308.286 99.8291 279.738 100.131 256.59 97.1296C235.53 94.3989 209.653 87.9453 201.597 76.1843C194.579 65.9389 210.078 54.2092 225.546 47.6698C238.366 42.2505 253.708 38.9767 268.805 40.091C279.941 40.9129 291.22 42.9115 300.467 46.0501C310.882 49.5851 318.151 54.7023 325.875 59.7729" stroke="#704FE6" stroke-width="3" stroke-linecap="round"/>
<path d="M74.7695 21.0062H86.1095V25.3937H74.7695V21.0062ZM75.1745 34H69.707V10.375H87.5608V14.7625H75.1745V34ZM101.501 34V30.4562L101.164 29.68V23.335C101.164 22.21 100.815 21.3325 100.117 20.7025C99.4423 20.0725 98.3961 19.7575 96.9786 19.7575C96.0111 19.7575 95.0548 19.915 94.1098 20.23C93.1873 20.5225 92.3998 20.9275 91.7473 21.445L89.8573 17.7662C90.8473 17.0687 92.0398 16.5287 93.4348 16.1462C94.8298 15.7637 96.2473 15.5725 97.6873 15.5725C100.455 15.5725 102.604 16.225 104.134 17.53C105.664 18.835 106.429 20.8712 106.429 23.6387V34H101.501ZM95.9661 34.27C94.5486 34.27 93.3336 34.0338 92.3211 33.5612C91.3086 33.0662 90.5323 32.4025 89.9923 31.57C89.4523 30.7375 89.1823 29.8037 89.1823 28.7687C89.1823 27.6887 89.4411 26.7437 89.9586 25.9337C90.4986 25.1237 91.3423 24.4937 92.4898 24.0437C93.6373 23.5712 95.1336 23.335 96.9786 23.335H101.805V26.4062H97.5523C96.3148 26.4062 95.4598 26.6087 94.9873 27.0137C94.5373 27.4187 94.3123 27.925 94.3123 28.5325C94.3123 29.2075 94.5711 29.7475 95.0886 30.1525C95.6286 30.535 96.3598 30.7262 97.2823 30.7262C98.1598 30.7262 98.9473 30.5237 99.6448 30.1187C100.342 29.6912 100.849 29.0725 101.164 28.2625L101.974 30.6925C101.591 31.8625 100.894 32.7512 99.8811 33.3587C98.8686 33.9662 97.5636 34.27 95.9661 34.27ZM134.447 15.5725C135.887 15.5725 137.159 15.865 138.261 16.45C139.386 17.0125 140.264 17.89 140.894 19.0825C141.546 20.2525 141.872 21.76 141.872 23.605V34H136.607V24.415C136.607 22.9525 136.304 21.8725 135.696 21.175C135.089 20.4775 134.234 20.1287 133.131 20.1287C132.366 20.1287 131.68 20.3087 131.072 20.6687C130.465 21.0062 129.992 21.5237 129.655 22.2212C129.317 22.9187 129.149 23.8075 129.149 24.8875V34H123.884V24.415C123.884 22.9525 123.58 21.8725 122.972 21.175C122.387 20.4775 121.544 20.1287 120.441 20.1287C119.676 20.1287 118.99 20.3087 118.382 20.6687C117.775 21.0062 117.302 21.5237 116.965 22.2212C116.627 22.9187 116.459 23.8075 116.459 24.8875V34H111.194V15.8425H116.222V20.8037L115.277 19.3525C115.907 18.115 116.796 17.1812 117.944 16.5512C119.114 15.8987 120.441 15.5725 121.926 15.5725C123.591 15.5725 125.042 16 126.28 16.855C127.54 17.6875 128.372 18.97 128.777 20.7025L126.921 20.1962C127.529 18.7787 128.496 17.6537 129.824 16.8212C131.174 15.9887 132.715 15.5725 134.447 15.5725ZM146.592 34V15.8425H151.857V34H146.592ZM149.224 13.3112C148.257 13.3112 147.469 13.03 146.862 12.4675C146.254 11.905 145.95 11.2075 145.95 10.375C145.95 9.5425 146.254 8.845 146.862 8.2825C147.469 7.72 148.257 7.43875 149.224 7.43875C150.192 7.43875 150.979 7.70875 151.587 8.24875C152.194 8.76625 152.498 9.44125 152.498 10.2737C152.498 11.1512 152.194 11.8825 151.587 12.4675C151.002 13.03 150.214 13.3112 149.224 13.3112ZM156.743 34V8.9575H162.008V34H156.743ZM166.894 34V15.8425H172.159V34H166.894ZM169.527 13.3112C168.559 13.3112 167.772 13.03 167.164 12.4675C166.557 11.905 166.253 11.2075 166.253 10.375C166.253 9.5425 166.557 8.845 167.164 8.2825C167.772 7.72 168.559 7.43875 169.527 7.43875C170.494 7.43875 171.282 7.70875 171.889 8.24875C172.497 8.76625 172.801 9.44125 172.801 10.2737C172.801 11.1512 172.497 11.8825 171.889 12.4675C171.304 13.03 170.517 13.3112 169.527 13.3112ZM188.183 34V30.4562L187.846 29.68V23.335C187.846 22.21 187.497 21.3325 186.799 20.7025C186.124 20.0725 185.078 19.7575 183.661 19.7575C182.693 19.7575 181.737 19.915 180.792 20.23C179.869 20.5225 179.082 20.9275 178.429 21.445L176.539 17.7662C177.529 17.0687 178.722 16.5287 180.117 16.1462C181.512 15.7637 182.929 15.5725 184.369 15.5725C187.137 15.5725 189.286 16.225 190.816 17.53C192.346 18.835 193.111 20.8712 193.111 23.6387V34H188.183ZM182.648 34.27C181.231 34.27 180.016 34.0338 179.003 33.5612C177.991 33.0662 177.214 32.4025 176.674 31.57C176.134 30.7375 175.864 29.8037 175.864 28.7687C175.864 27.6887 176.123 26.7437 176.641 25.9337C177.181 25.1237 178.024 24.4937 179.172 24.0437C180.319 23.5712 181.816 23.335 183.661 23.335H188.487V26.4062H184.234C182.997 26.4062 182.142 26.6087 181.669 27.0137C181.219 27.4187 180.994 27.925 180.994 28.5325C180.994 29.2075 181.253 29.7475 181.771 30.1525C182.311 30.535 183.042 30.7262 183.964 30.7262C184.842 30.7262 185.629 30.5237 186.327 30.1187C187.024 29.6912 187.531 29.0725 187.846 28.2625L188.656 30.6925C188.273 31.8625 187.576 32.7512 186.563 33.3587C185.551 33.9662 184.246 34.27 182.648 34.27ZM203.985 34.27C202.432 34.27 200.936 34.09 199.496 33.73C198.078 33.3475 196.953 32.875 196.121 32.3125L197.876 28.5325C198.708 29.05 199.687 29.4775 200.812 29.815C201.96 30.13 203.085 30.2875 204.187 30.2875C205.402 30.2875 206.257 30.1412 206.752 29.8487C207.27 29.5562 207.528 29.1512 207.528 28.6337C207.528 28.2062 207.326 27.8912 206.921 27.6887C206.538 27.4637 206.021 27.295 205.368 27.1825C204.716 27.07 203.996 26.9575 203.208 26.845C202.443 26.7325 201.667 26.5862 200.88 26.4062C200.092 26.2037 199.372 25.9112 198.72 25.5287C198.067 25.1462 197.538 24.6287 197.133 23.9762C196.751 23.3237 196.56 22.48 196.56 21.445C196.56 20.2975 196.886 19.285 197.538 18.4075C198.213 17.53 199.181 16.8437 200.441 16.3487C201.701 15.8312 203.208 15.5725 204.963 15.5725C206.201 15.5725 207.461 15.7075 208.743 15.9775C210.026 16.2475 211.095 16.6412 211.95 17.1587L210.195 20.905C209.317 20.3875 208.428 20.0387 207.528 19.8587C206.651 19.6562 205.796 19.555 204.963 19.555C203.793 19.555 202.938 19.7125 202.398 20.0275C201.858 20.3425 201.588 20.7475 201.588 21.2425C201.588 21.6925 201.78 22.03 202.162 22.255C202.567 22.48 203.096 22.66 203.748 22.795C204.401 22.93 205.11 23.0537 205.875 23.1662C206.662 23.2562 207.45 23.4025 208.237 23.605C209.025 23.8075 209.733 24.1 210.363 24.4825C211.016 24.8425 211.545 25.3487 211.95 26.0012C212.355 26.6312 212.557 27.4637 212.557 28.4987C212.557 29.6237 212.22 30.625 211.545 31.5025C210.87 32.3575 209.891 33.0325 208.608 33.5275C207.348 34.0225 205.807 34.27 203.985 34.27ZM233.092 34.27C231.382 34.27 229.841 33.8875 228.469 33.1225C227.096 32.3575 226.005 31.2775 225.195 29.8825C224.407 28.4875 224.014 26.8337 224.014 24.9212C224.014 23.0312 224.407 21.3887 225.195 19.9937C226.005 18.5987 227.096 17.5187 228.469 16.7537C229.841 15.9662 231.382 15.5725 233.092 15.5725C234.69 15.5725 236.051 15.91 237.176 16.585C238.324 17.26 239.201 18.2837 239.809 19.6562C240.416 21.0287 240.72 22.7837 240.72 24.9212C240.72 27.0362 240.405 28.7912 239.775 30.1862C239.145 31.5587 238.256 32.5825 237.109 33.2575C235.961 33.9325 234.622 34.27 233.092 34.27ZM234.004 29.95C234.859 29.95 235.635 29.7475 236.332 29.3425C237.03 28.9375 237.581 28.3637 237.986 27.6212C238.414 26.8562 238.627 25.9562 238.627 24.9212C238.627 23.8637 238.414 22.9637 237.986 22.2212C237.581 21.4787 237.03 20.905 236.332 20.5C235.635 20.095 234.859 19.8925 234.004 19.8925C233.126 19.8925 232.339 20.095 231.641 20.5C230.944 20.905 230.381 21.4787 229.954 22.2212C229.549 22.9637 229.346 23.8637 229.346 24.9212C229.346 25.9562 229.549 26.8562 229.954 27.6212C230.381 28.3637 230.944 28.9375 231.641 29.3425C232.339 29.7475 233.126 29.95 234.004 29.95ZM238.526 40.5475V30.3212L238.864 24.955L238.762 19.555V15.8425H243.791V40.5475H238.526ZM256.327 34.27C254.819 34.27 253.469 33.9775 252.277 33.3925C251.107 32.8075 250.196 31.9187 249.543 30.7262C248.891 29.5112 248.564 27.97 248.564 26.1025V15.8425H253.829V25.3263C253.829 26.8337 254.144 27.9475 254.774 28.6675C255.427 29.365 256.338 29.7137 257.508 29.7137C258.318 29.7137 259.038 29.545 259.668 29.2075C260.298 28.8475 260.793 28.3075 261.153 27.5875C261.513 26.845 261.693 25.9225 261.693 24.82V15.8425H266.958V34H261.963V29.005L262.874 30.4562C262.267 31.7162 261.367 32.6725 260.174 33.325C259.004 33.955 257.722 34.27 256.327 34.27ZM280.847 34.27C278.777 34.27 276.955 33.865 275.38 33.055C273.827 32.245 272.623 31.1425 271.768 29.7475C270.913 28.33 270.486 26.7212 270.486 24.9212C270.486 23.0987 270.902 21.49 271.735 20.095C272.59 18.6775 273.748 17.575 275.211 16.7875C276.673 15.9775 278.327 15.5725 280.172 15.5725C281.95 15.5725 283.547 15.955 284.965 16.72C286.405 17.4625 287.541 18.5425 288.373 19.96C289.206 21.355 289.622 23.0312 289.622 24.9887C289.622 25.1912 289.611 25.4275 289.588 25.6975C289.566 25.945 289.543 26.1812 289.521 26.4062H274.772V23.335H286.753L284.728 24.2462C284.728 23.3012 284.537 22.48 284.155 21.7825C283.772 21.085 283.243 20.545 282.568 20.1625C281.893 19.7575 281.106 19.555 280.206 19.555C279.306 19.555 278.507 19.7575 277.81 20.1625C277.135 20.545 276.606 21.0962 276.223 21.8162C275.841 22.5137 275.65 23.3462 275.65 24.3137V25.1237C275.65 26.1137 275.863 26.9912 276.291 27.7562C276.741 28.4987 277.36 29.0725 278.147 29.4775C278.957 29.86 279.902 30.0512 280.982 30.0512C281.95 30.0512 282.793 29.905 283.513 29.6125C284.256 29.32 284.931 28.8812 285.538 28.2962L288.34 31.3337C287.507 32.2787 286.461 33.01 285.201 33.5275C283.941 34.0225 282.49 34.27 280.847 34.27ZM311.46 34.27C309.503 34.27 307.759 33.8763 306.229 33.0887C304.699 32.2787 303.495 31.165 302.618 29.7475C301.763 28.33 301.335 26.7212 301.335 24.9212C301.335 23.0987 301.763 21.49 302.618 20.095C303.495 18.6775 304.699 17.575 306.229 16.7875C307.759 15.9775 309.503 15.5725 311.46 15.5725C313.373 15.5725 315.038 15.9775 316.455 16.7875C317.873 17.575 318.919 18.7112 319.594 20.1962L315.51 22.39C315.038 21.535 314.442 20.905 313.722 20.5C313.024 20.095 312.259 19.8925 311.427 19.8925C310.527 19.8925 309.717 20.095 308.997 20.5C308.277 20.905 307.703 21.4787 307.275 22.2212C306.87 22.9637 306.668 23.8637 306.668 24.9212C306.668 25.9787 306.87 26.8787 307.275 27.6212C307.703 28.3637 308.277 28.9375 308.997 29.3425C309.717 29.7475 310.527 29.95 311.427 29.95C312.259 29.95 313.024 29.7587 313.722 29.3762C314.442 28.9712 315.038 28.33 315.51 27.4525L319.594 29.68C318.919 31.1425 317.873 32.2787 316.455 33.0887C315.038 33.8763 313.373 34.27 311.46 34.27ZM322.626 34V15.8425H327.654V20.9725L326.946 19.4875C327.486 18.205 328.352 17.2375 329.544 16.585C330.737 15.91 332.188 15.5725 333.898 15.5725V20.4325C333.673 20.41 333.471 20.3987 333.291 20.3987C333.111 20.3762 332.919 20.365 332.717 20.365C331.277 20.365 330.107 20.7812 329.207 21.6137C328.329 22.4237 327.891 23.695 327.891 25.4275V34H322.626ZM345.908 34.27C343.838 34.27 342.016 33.865 340.441 33.055C338.888 32.245 337.684 31.1425 336.829 29.7475C335.974 28.33 335.547 26.7212 335.547 24.9212C335.547 23.0987 335.963 21.49 336.796 20.095C337.651 18.6775 338.809 17.575 340.272 16.7875C341.734 15.9775 343.388 15.5725 345.233 15.5725C347.011 15.5725 348.608 15.955 350.026 16.72C351.466 17.4625 352.602 18.5425 353.434 19.96C354.267 21.355 354.683 23.0312 354.683 24.9887C354.683 25.1912 354.672 25.4275 354.649 25.6975C354.627 25.945 354.604 26.1812 354.582 26.4062H339.833V23.335H351.814L349.789 24.2462C349.789 23.3012 349.598 22.48 349.216 21.7825C348.833 21.085 348.304 20.545 347.629 20.1625C346.954 19.7575 346.167 19.555 345.267 19.555C344.367 19.555 343.568 19.7575 342.871 20.1625C342.196 20.545 341.667 21.0962 341.284 21.8162C340.902 22.5137 340.711 23.3462 340.711 24.3137V25.1237C340.711 26.1137 340.924 26.9912 341.352 27.7562C341.802 28.4987 342.421 29.0725 343.208 29.4775C344.018 29.86 344.963 30.0512 346.043 30.0512C347.011 30.0512 347.854 29.905 348.574 29.6125C349.317 29.32 349.992 28.8812 350.599 28.2962L353.401 31.3337C352.568 32.2787 351.522 33.01 350.262 33.5275C349.002 34.0225 347.551 34.27 345.908 34.27ZM366.963 34.27C365.006 34.27 363.262 33.8763 361.732 33.0887C360.202 32.2787 358.998 31.165 358.121 29.7475C357.266 28.33 356.838 26.7212 356.838 24.9212C356.838 23.0987 357.266 21.49 358.121 20.095C358.998 18.6775 360.202 17.575 361.732 16.7875C363.262 15.9775 365.006 15.5725 366.963 15.5725C368.876 15.5725 370.541 15.9775 371.958 16.7875C373.376 17.575 374.422 18.7112 375.097 20.1962L371.013 22.39C370.541 21.535 369.945 20.905 369.225 20.5C368.527 20.095 367.762 19.8925 366.93 19.8925C366.03 19.8925 365.22 20.095 364.5 20.5C363.78 20.905 363.206 21.4787 362.778 22.2212C362.373 22.9637 362.171 23.8637 362.171 24.9212C362.171 25.9787 362.373 26.8787 362.778 27.6212C363.206 28.3637 363.78 28.9375 364.5 29.3425C365.22 29.7475 366.03 29.95 366.93 29.95C367.762 29.95 368.527 29.7587 369.225 29.3762C369.945 28.9712 370.541 28.33 371.013 27.4525L375.097 29.68C374.422 31.1425 373.376 32.2787 371.958 33.0887C370.541 33.8763 368.876 34.27 366.963 34.27ZM386.909 34.27C384.839 34.27 383.017 33.865 381.442 33.055C379.889 32.245 378.685 31.1425 377.83 29.7475C376.975 28.33 376.548 26.7212 376.548 24.9212C376.548 23.0987 376.964 21.49 377.797 20.095C378.652 18.6775 379.81 17.575 381.273 16.7875C382.735 15.9775 384.389 15.5725 386.234 15.5725C388.012 15.5725 389.609 15.955 391.027 16.72C392.467 17.4625 393.603 18.5425 394.435 19.96C395.268 21.355 395.684 23.0312 395.684 24.9887C395.684 25.1912 395.673 25.4275 395.65 25.6975C395.628 25.945 395.605 26.1812 395.583 26.4062H380.834V23.335H392.815L390.79 24.2462C390.79 23.3012 390.599 22.48 390.217 21.7825C389.834 21.085 389.305 20.545 388.63 20.1625C387.955 19.7575 387.168 19.555 386.268 19.555C385.368 19.555 384.569 19.7575 383.872 20.1625C383.197 20.545 382.668 21.0962 382.285 21.8162C381.903 22.5137 381.712 23.3462 381.712 24.3137V25.1237C381.712 26.1137 381.925 26.9912 382.353 27.7562C382.803 28.4987 383.422 29.0725 384.209 29.4775C385.019 29.86 385.964 30.0512 387.044 30.0512C388.012 30.0512 388.855 29.905 389.575 29.6125C390.318 29.32 390.993 28.8812 391.6 28.2962L394.402 31.3337C393.569 32.2787 392.523 33.01 391.263 33.5275C390.003 34.0225 388.552 34.27 386.909 34.27ZM410.226 15.5725C411.666 15.5725 412.948 15.865 414.073 16.45C415.221 17.0125 416.121 17.89 416.773 19.0825C417.426 20.2525 417.752 21.76 417.752 23.605V34H412.487V24.415C412.487 22.9525 412.161 21.8725 411.508 21.175C410.878 20.4775 409.978 20.1287 408.808 20.1287C407.976 20.1287 407.222 20.3087 406.547 20.6687C405.894 21.0062 405.377 21.535 404.994 22.255C404.634 22.975 404.454 23.8975 404.454 25.0225V34H399.189V15.8425H404.218V20.8712L403.273 19.3525C403.926 18.1375 404.859 17.2037 406.074 16.5512C407.289 15.8987 408.673 15.5725 410.226 15.5725ZM140.041 78.27C138.083 78.27 136.339 77.8763 134.809 77.0887C133.279 76.2787 132.076 75.165 131.198 73.7475C130.343 72.33 129.916 70.7212 129.916 68.9212C129.916 67.0987 130.343 65.49 131.198 64.095C132.076 62.6775 133.279 61.575 134.809 60.7875C136.339 59.9775 138.083 59.5725 140.041 59.5725C141.953 59.5725 143.618 59.9775 145.036 60.7875C146.453 61.575 147.499 62.7112 148.174 64.1962L144.091 66.39C143.618 65.535 143.022 64.905 142.302 64.5C141.604 64.095 140.839 63.8925 140.007 63.8925C139.107 63.8925 138.297 64.095 137.577 64.5C136.857 64.905 136.283 65.4787 135.856 66.2212C135.451 66.9637 135.248 67.8637 135.248 68.9212C135.248 69.9787 135.451 70.8787 135.856 71.6212C136.283 72.3637 136.857 72.9375 137.577 73.3425C138.297 73.7475 139.107 73.95 140.007 73.95C140.839 73.95 141.604 73.7587 142.302 73.3762C143.022 72.9712 143.618 72.33 144.091 71.4525L148.174 73.68C147.499 75.1425 146.453 76.2787 145.036 77.0887C143.618 77.8763 141.953 78.27 140.041 78.27ZM159.615 78.27C157.68 78.27 155.959 77.865 154.451 77.055C152.966 76.245 151.785 75.1425 150.908 73.7475C150.053 72.33 149.625 70.7212 149.625 68.9212C149.625 67.0987 150.053 65.49 150.908 64.095C151.785 62.6775 152.966 61.575 154.451 60.7875C155.959 59.9775 157.68 59.5725 159.615 59.5725C161.528 59.5725 163.238 59.9775 164.745 60.7875C166.253 61.575 167.434 62.6662 168.289 64.0612C169.144 65.4562 169.571 67.0762 169.571 68.9212C169.571 70.7212 169.144 72.33 168.289 73.7475C167.434 75.1425 166.253 76.245 164.745 77.055C163.238 77.865 161.528 78.27 159.615 78.27ZM159.615 73.95C160.493 73.95 161.28 73.7475 161.978 73.3425C162.675 72.9375 163.226 72.3637 163.631 71.6212C164.036 70.8562 164.239 69.9562 164.239 68.9212C164.239 67.8637 164.036 66.9637 163.631 66.2212C163.226 65.4787 162.675 64.905 161.978 64.5C161.28 64.095 160.493 63.8925 159.615 63.8925C158.738 63.8925 157.95 64.095 157.253 64.5C156.555 64.905 155.993 65.4787 155.565 66.2212C155.16 66.9637 154.958 67.8637 154.958 68.9212C154.958 69.9562 155.16 70.8562 155.565 71.6212C155.993 72.3637 156.555 72.9375 157.253 73.3425C157.95 73.7475 158.738 73.95 159.615 73.95ZM184.127 59.5725C185.567 59.5725 186.849 59.865 187.974 60.45C189.122 61.0125 190.022 61.89 190.674 63.0825C191.327 64.2525 191.653 65.76 191.653 67.605V78H186.388V68.415C186.388 66.9525 186.062 65.8725 185.409 65.175C184.779 64.4775 183.879 64.1287 182.709 64.1287C181.877 64.1287 181.123 64.3087 180.448 64.6687C179.796 65.0062 179.278 65.535 178.896 66.255C178.536 66.975 178.356 67.8975 178.356 69.0225V78H173.091V59.8425H178.119V64.8712L177.174 63.3525C177.827 62.1375 178.761 61.2037 179.976 60.5512C181.191 59.8987 182.574 59.5725 184.127 59.5725ZM217.02 59.5725C218.46 59.5725 219.742 59.865 220.867 60.45C222.015 61.0125 222.915 61.89 223.567 63.0825C224.22 64.2525 224.546 65.76 224.546 67.605V78H219.281V68.415C219.281 66.9525 218.955 65.8725 218.302 65.175C217.672 64.4775 216.772 64.1287 215.602 64.1287C214.77 64.1287 214.016 64.3087 213.341 64.6687C212.689 65.0062 212.171 65.535 211.789 66.255C211.429 66.975 211.249 67.8975 211.249 69.0225V78H205.984V59.8425H211.012V64.8712L210.067 63.3525C210.72 62.1375 211.654 61.2037 212.869 60.5512C214.084 59.8987 215.467 59.5725 217.02 59.5725ZM238.091 78.27C236.156 78.27 234.434 77.865 232.927 77.055C231.442 76.245 230.261 75.1425 229.383 73.7475C228.528 72.33 228.101 70.7212 228.101 68.9212C228.101 67.0987 228.528 65.49 229.383 64.095C230.261 62.6775 231.442 61.575 232.927 60.7875C234.434 59.9775 236.156 59.5725 238.091 59.5725C240.003 59.5725 241.713 59.9775 243.221 60.7875C244.728 61.575 245.909 62.6662 246.764 64.0612C247.619 65.4562 248.047 67.0762 248.047 68.9212C248.047 70.7212 247.619 72.33 246.764 73.7475C245.909 75.1425 244.728 76.245 243.221 77.055C241.713 77.865 240.003 78.27 238.091 78.27ZM238.091 73.95C238.968 73.95 239.756 73.7475 240.453 73.3425C241.151 72.9375 241.702 72.3637 242.107 71.6212C242.512 70.8562 242.714 69.9562 242.714 68.9212C242.714 67.8637 242.512 66.9637 242.107 66.2212C241.702 65.4787 241.151 64.905 240.453 64.5C239.756 64.095 238.968 63.8925 238.091 63.8925C237.213 63.8925 236.426 64.095 235.728 64.5C235.031 64.905 234.468 65.4787 234.041 66.2212C233.636 66.9637 233.433 67.8637 233.433 68.9212C233.433 69.9562 233.636 70.8562 234.041 71.6212C234.468 72.3637 235.031 72.9375 235.728 73.3425C236.426 73.7475 237.213 73.95 238.091 73.95ZM257.675 78.27C256.122 78.27 254.626 78.09 253.186 77.73C251.768 77.3475 250.643 76.875 249.811 76.3125L251.566 72.5325C252.398 73.05 253.377 73.4775 254.502 73.815C255.65 74.13 256.775 74.2875 257.877 74.2875C259.092 74.2875 259.947 74.1412 260.442 73.8487C260.96 73.5562 261.218 73.1512 261.218 72.6337C261.218 72.2062 261.016 71.8912 260.611 71.6887C260.228 71.4637 259.711 71.295 259.058 71.1825C258.406 71.07 257.686 70.9575 256.898 70.845C256.133 70.7325 255.357 70.5862 254.57 70.4062C253.782 70.2037 253.062 69.9112 252.41 69.5287C251.757 69.1462 251.228 68.6287 250.823 67.9762C250.441 67.3237 250.25 66.48 250.25 65.445C250.25 64.2975 250.576 63.285 251.228 62.4075C251.903 61.53 252.871 60.8437 254.131 60.3487C255.391 59.8312 256.898 59.5725 258.653 59.5725C259.891 59.5725 261.151 59.7075 262.433 59.9775C263.716 60.2475 264.785 60.6412 265.64 61.1587L263.885 64.905C263.007 64.3875 262.118 64.0387 261.218 63.8587C260.341 63.6562 259.486 63.555 258.653 63.555C257.483 63.555 256.628 63.7125 256.088 64.0275C255.548 64.3425 255.278 64.7475 255.278 65.2425C255.278 65.6925 255.47 66.03 255.852 66.255C256.257 66.48 256.786 66.66 257.438 66.795C258.091 66.93 258.8 67.0537 259.565 67.1662C260.352 67.2562 261.14 67.4025 261.927 67.605C262.715 67.8075 263.423 68.1 264.053 68.4825C264.706 68.8425 265.235 69.3487 265.64 70.0012C266.045 70.6312 266.247 71.4637 266.247 72.4987C266.247 73.6237 265.91 74.625 265.235 75.5025C264.56 76.3575 263.581 77.0325 262.298 77.5275C261.038 78.0225 259.497 78.27 257.675 78.27ZM278.136 78.27C276.201 78.27 274.479 77.865 272.972 77.055C271.487 76.245 270.306 75.1425 269.428 73.7475C268.573 72.33 268.146 70.7212 268.146 68.9212C268.146 67.0987 268.573 65.49 269.428 64.095C270.306 62.6775 271.487 61.575 272.972 60.7875C274.479 59.9775 276.201 59.5725 278.136 59.5725C280.048 59.5725 281.758 59.9775 283.266 60.7875C284.773 61.575 285.954 62.6662 286.809 64.0612C287.664 65.4562 288.092 67.0762 288.092 68.9212C288.092 70.7212 287.664 72.33 286.809 73.7475C285.954 75.1425 284.773 76.245 283.266 77.055C281.758 77.865 280.048 78.27 278.136 78.27ZM278.136 73.95C279.013 73.95 279.801 73.7475 280.498 73.3425C281.196 72.9375 281.747 72.3637 282.152 71.6212C282.557 70.8562 282.759 69.9562 282.759 68.9212C282.759 67.8637 282.557 66.9637 282.152 66.2212C281.747 65.4787 281.196 64.905 280.498 64.5C279.801 64.095 279.013 63.8925 278.136 63.8925C277.258 63.8925 276.471 64.095 275.773 64.5C275.076 64.905 274.513 65.4787 274.086 66.2212C273.681 66.9637 273.478 67.8637 273.478 68.9212C273.478 69.9562 273.681 70.8562 274.086 71.6212C274.513 72.3637 275.076 72.9375 275.773 73.3425C276.471 73.7475 277.258 73.95 278.136 73.95ZM299.036 78.27C296.899 78.27 295.234 77.73 294.041 76.65C292.849 75.5475 292.252 73.9162 292.252 71.7562V55.8262H297.517V71.6887C297.517 72.4537 297.72 73.05 298.125 73.4775C298.53 73.8825 299.081 74.085 299.779 74.085C300.611 74.085 301.32 73.86 301.905 73.41L303.322 77.1225C302.782 77.505 302.13 77.7975 301.365 78C300.622 78.18 299.846 78.27 299.036 78.27ZM289.451 64.2975V60.2475H302.04V64.2975H289.451ZM306.278 78V59.8425H311.307V64.9725L310.598 63.4875C311.138 62.205 312.004 61.2375 313.197 60.585C314.389 59.91 315.84 59.5725 317.55 59.5725V64.4325C317.325 64.41 317.123 64.3987 316.943 64.3987C316.763 64.3762 316.572 64.365 316.369 64.365C314.929 64.365 313.759 64.7812 312.859 65.6137C311.982 66.4237 311.543 67.695 311.543 69.4275V78H306.278ZM329.189 78.27C327.254 78.27 325.533 77.865 324.025 77.055C322.54 76.245 321.359 75.1425 320.482 73.7475C319.627 72.33 319.199 70.7212 319.199 68.9212C319.199 67.0987 319.627 65.49 320.482 64.095C321.359 62.6775 322.54 61.575 324.025 60.7875C325.533 59.9775 327.254 59.5725 329.189 59.5725C331.102 59.5725 332.812 59.9775 334.319 60.7875C335.827 61.575 337.008 62.6662 337.863 64.0612C338.718 65.4562 339.145 67.0762 339.145 68.9212C339.145 70.7212 338.718 72.33 337.863 73.7475C337.008 75.1425 335.827 76.245 334.319 77.055C332.812 77.865 331.102 78.27 329.189 78.27ZM329.189 73.95C330.067 73.95 330.854 73.7475 331.552 73.3425C332.249 72.9375 332.8 72.3637 333.205 71.6212C333.61 70.8562 333.813 69.9562 333.813 68.9212C333.813 67.8637 333.61 66.9637 333.205 66.2212C332.8 65.4787 332.249 64.905 331.552 64.5C330.854 64.095 330.067 63.8925 329.189 63.8925C328.312 63.8925 327.524 64.095 326.827 64.5C326.129 64.905 325.567 65.4787 325.139 66.2212C324.734 66.9637 324.532 67.8637 324.532 68.9212C324.532 69.9562 324.734 70.8562 325.139 71.6212C325.567 72.3637 326.129 72.9375 326.827 73.3425C327.524 73.7475 328.312 73.95 329.189 73.95ZM348.773 78.27C347.221 78.27 345.725 78.09 344.285 77.73C342.867 77.3475 341.742 76.875 340.91 76.3125L342.665 72.5325C343.497 73.05 344.476 73.4775 345.601 73.815C346.748 74.13 347.873 74.2875 348.976 74.2875C350.191 74.2875 351.046 74.1412 351.541 73.8487C352.058 73.5562 352.317 73.1512 352.317 72.6337C352.317 72.2062 352.115 71.8912 351.71 71.6887C351.327 71.4637 350.81 71.295 350.157 71.1825C349.505 71.07 348.785 70.9575 347.997 70.845C347.232 70.7325 346.456 70.5862 345.668 70.4062C344.881 70.2037 344.161 69.9112 343.508 69.5287C342.856 69.1462 342.327 68.6287 341.922 67.9762C341.54 67.3237 341.348 66.48 341.348 65.445C341.348 64.2975 341.675 63.285 342.327 62.4075C343.002 61.53 343.97 60.8437 345.23 60.3487C346.49 59.8312 347.997 59.5725 349.752 59.5725C350.99 59.5725 352.25 59.7075 353.532 59.9775C354.815 60.2475 355.883 60.6412 356.738 61.1587L354.983 64.905C354.106 64.3875 353.217 64.0387 352.317 63.8587C351.44 63.6562 350.585 63.555 349.752 63.555C348.582 63.555 347.727 63.7125 347.187 64.0275C346.647 64.3425 346.377 64.7475 346.377 65.2425C346.377 65.6925 346.568 66.03 346.951 66.255C347.356 66.48 347.885 66.66 348.537 66.795C349.19 66.93 349.898 67.0537 350.663 67.1662C351.451 67.2562 352.238 67.4025 353.026 67.605C353.813 67.8075 354.522 68.1 355.152 68.4825C355.805 68.8425 356.333 69.3487 356.738 70.0012C357.143 70.6312 357.346 71.4637 357.346 72.4987C357.346 73.6237 357.008 74.625 356.333 75.5025C355.658 76.3575 354.68 77.0325 353.397 77.5275C352.137 78.0225 350.596 78.27 348.773 78.27Z" fill="#252B42"/>
</svg>
